<svg width="28" height="28" viewBox="0 0 28 28" fill="none" xmlns="http://www.w3.org/2000/svg">
<rect width="28" height="28" rx="14" fill="#414141"/>
<path d="M20.526 10.2277C20.373 10.1345 20.1979 10.0839 20.0188 10.0811C19.8398 10.0783 19.6632 10.1233 19.5073 10.2117L17 12.0163V11.3337C16.9995 10.8918 16.8237 10.4682 16.5113 10.1557C16.1988 9.84329 15.7752 9.66752 15.3333 9.66699H8.66667C8.2248 9.66752 7.80119 9.84329 7.48874 10.1557C7.17629 10.4682 7.00053 10.8918 7 11.3337V16.667C7.00053 17.1089 7.17629 17.5325 7.48874 17.8449C7.80119 18.1574 8.2248 18.3331 8.66667 18.3337H15.3333C15.7752 18.3331 16.1988 18.1574 16.5113 17.8449C16.8237 17.5325 16.9995 17.1089 17 16.667V15.983L19.5533 17.8163C19.7058 17.8925 19.8753 17.9284 20.0456 17.9206C20.2158 17.9128 20.3813 17.8617 20.5263 17.7719C20.6712 17.6822 20.7908 17.557 20.8737 17.408C20.9566 17.2591 21.0001 17.0915 21 16.921V11.0783C21.0006 10.9078 20.9573 10.7399 20.8743 10.591C20.7913 10.442 20.6713 10.3169 20.526 10.2277ZM16.3333 16.667C16.333 16.9321 16.2275 17.1862 16.0401 17.3737C15.8526 17.5612 15.5984 17.6666 15.3333 17.667H8.66667C8.40156 17.6666 8.14741 17.5612 7.95995 17.3737C7.77249 17.1862 7.66702 16.9321 7.66667 16.667V11.3337C7.66702 11.0686 7.77249 10.8144 7.95995 10.6269C8.14741 10.4395 8.40156 10.334 8.66667 10.3337H15.3333C15.5984 10.334 15.8526 10.4395 16.0401 10.6269C16.2275 10.8144 16.333 11.0686 16.3333 11.3337V16.667ZM20.3333 16.921C20.3325 16.9736 20.3196 17.0254 20.2957 17.0723C20.2717 17.1192 20.2373 17.16 20.1952 17.1915C20.153 17.223 20.1042 17.2445 20.0524 17.2542C20.0007 17.264 19.9474 17.2617 19.8967 17.2477L17 15.1623V12.837L19.8507 10.7797C19.9015 10.7542 19.958 10.7421 20.0148 10.7447C20.0715 10.7472 20.1267 10.7642 20.1751 10.794C20.2235 10.8239 20.2634 10.8656 20.2911 10.9153C20.3188 10.9649 20.3333 11.0208 20.3333 11.0777V16.921Z" fill="#FEFEFE"/>
</svg>
