<svg width="33" height="32" viewBox="0 0 33 32" fill="none" xmlns="http://www.w3.org/2000/svg">
<path fill-rule="evenodd" clip-rule="evenodd" d="M7.20087 0.58006V0H12.8733L12.9443 0.0447651C13.2658 0.247641 14.0988 0.821437 14.581 1.8191L18.1014 1.78783L13.3955 16.0396H22.3627L19.3752 8.51806L19.3987 8.42657C19.6821 7.32594 19.9653 6.22507 20.2484 5.12416C20.5316 4.02326 20.8147 2.92232 21.0981 1.82161L21.2988 1.04213L21.6417 1.77041C22.7712 4.16968 23.901 6.5692 25.0307 8.96873L25.1462 9.21399C26.2436 11.5448 27.3411 13.8756 28.4382 16.2062L28.6329 16.6197H23.2175L27.0558 26.283C28.695 26.2957 30.3342 26.3086 31.9734 26.3215C31.5 25.2639 31.0266 24.2061 30.5532 23.1483L30.5023 23.0344C29.9844 21.8772 29.4665 20.72 28.9486 19.563L29.4784 19.3261C30.0132 20.5211 30.5481 21.7163 31.083 22.9114L31.1253 23.0059C31.646 24.1696 32.1668 25.3332 32.6875 26.4967L32.872 26.9087L32.4204 26.9051C30.7092 26.8916 28.9981 26.8782 27.2869 26.8648L29.3266 32H20.2375L20.1999 31.9897C18.5904 31.5493 17.6033 29.9999 17.884 28.5412L17.8841 28.5411C18.1041 27.4011 19.0668 26.4906 20.2809 26.2365L20.3114 26.2301L20.3427 26.2303C22.3337 26.2461 24.3247 26.2616 26.3158 26.2772L26.4294 26.2781L22.5931 16.6197H13.204L11.6197 21.4178H16.1228L14.7098 26.7156H9.87031L8.12543 32H2.26393L2.21955 31.9853C0.704055 31.4843 -0.211935 29.9884 0.0421392 28.5457L0.0421581 28.5456C0.247731 27.3809 1.18394 26.4383 2.39082 26.1439L2.42473 26.1356H9.45073L10.817 21.9978H7.00289L9.027 16.0396H12.7844L17.2964 2.37507L14.8017 2.39722C14.9605 2.95084 14.9704 3.46753 14.9675 3.69L14.6774 3.68628L14.9675 3.68956C14.9675 3.68971 14.9675 3.68986 14.9675 3.69C14.9613 4.23695 14.8603 4.68697 14.7665 4.99704L14.762 5.01197L14.7559 5.02632C14.6054 5.38118 14.2597 6.06107 13.5395 6.64799L13.5394 6.64806C12.6871 7.34211 11.7963 7.50992 11.4105 7.55967L11.392 7.56205H7.01243L6.99341 7.55953C5.51485 7.36326 4.42358 6.07339 4.47644 4.61941L4.76641 4.62985L4.47644 4.61931C4.52618 3.24064 5.59378 2.07308 6.99369 1.88865L7.01129 1.88633L13.9255 1.82492C13.5413 1.1816 12.9967 0.772533 12.704 0.58006H7.20087ZM14.1952 2.40261L7.05245 2.46605C5.93648 2.62139 5.09548 3.55541 5.05639 4.64029L5.05638 4.64039C5.01473 5.78487 5.8738 6.81619 7.05135 6.98199H11.3544C11.6973 6.93603 12.452 6.78533 13.1728 6.19841C13.7836 5.70065 14.0824 5.1243 14.2155 4.81421C14.2964 4.54294 14.3819 4.15383 14.3872 3.68301L14.3872 3.68257C14.39 3.46875 14.3783 2.96503 14.2128 2.45523L14.2127 2.45509C14.207 2.43748 14.2012 2.41998 14.1952 2.40261ZM12.5929 16.6197H9.44281L7.81282 21.4178H11.0085L12.5929 16.6197ZM11.4281 21.9978L10.0618 26.1356H14.2639L15.3675 21.9978H11.4281ZM9.25919 26.7156H2.49541C1.5079 26.9695 0.773841 27.7388 0.613656 28.6464C0.415507 29.7719 1.123 30.989 2.35861 31.4199H7.70585L9.25919 26.7156ZM26.6605 26.8599C26.5896 26.8594 26.5187 26.8588 26.4478 26.8583L26.3037 26.8572C24.3258 26.8417 22.348 26.8263 20.3701 26.8106C19.3725 27.0309 18.6229 27.7752 18.4539 28.651C18.2377 29.7748 18.9949 31.0391 20.3165 31.4199H28.4718L26.6605 26.8599ZM22.9871 16.0396H27.7185C26.6648 13.8016 25.611 11.5634 24.5572 9.32523L24.4901 9.18261C23.4798 7.03692 22.4696 4.89124 21.4595 2.74572C21.2431 3.58659 21.0268 4.42758 20.8105 5.26859C20.5352 6.33898 20.2599 7.40942 19.9843 8.47964L22.9871 16.0396Z" fill="url(#paint0_linear_19_396)"/>
<defs>
<linearGradient id="paint0_linear_19_396" x1="0.000895311" y1="16" x2="32.873" y2="16" gradientUnits="userSpaceOnUse">
<stop stop-color="#E0D296"/>
<stop offset="0.1407" stop-color="#DACC92"/>
<stop offset="0.3313" stop-color="#CABB86"/>
<stop offset="0.5506" stop-color="#AE9E72"/>
<stop offset="0.7892" stop-color="#897757"/>
<stop offset="1" stop-color="#624E3B"/>
</linearGradient>
</defs>
</svg>
