<svg width="16" height="16" viewBox="0 0 16 16" fill="none" xmlns="http://www.w3.org/2000/svg">
<path d="M8.00083 8.00005C8.1497 8.00033 8.29715 7.97121 8.43474 7.91436C8.57232 7.85752 8.69733 7.77407 8.80258 7.6688C8.84812 7.62164 8.87332 7.55849 8.87275 7.49295C8.87218 7.4274 8.84589 7.36469 8.79954 7.31834C8.75319 7.27199 8.69048 7.2457 8.62494 7.24513C8.55939 7.24456 8.49623 7.26976 8.44908 7.3153C8.33006 7.43391 8.16887 7.50052 8.00083 7.50052C7.8328 7.50052 7.67161 7.43391 7.55258 7.3153C7.50543 7.26976 7.44228 7.24456 7.37673 7.24513C7.31118 7.2457 7.24848 7.27199 7.20213 7.31834C7.15578 7.36469 7.12949 7.4274 7.12892 7.49295C7.12835 7.55849 7.15354 7.62164 7.19908 7.6688C7.30434 7.77407 7.42935 7.85752 7.56693 7.91436C7.70451 7.97121 7.85197 8.00033 8.00083 8.00005Z" fill="#B8B8B8"/>
<path d="M11 9H9.5V8.606C9.70481 8.42459 9.88924 8.22139 10.05 8H10.75C11.0152 8 11.2696 7.89464 11.4571 7.70711C11.6446 7.51957 11.75 7.26522 11.75 7V4C11.75 3.00544 11.3549 2.05161 10.6517 1.34835C9.94839 0.645088 8.99456 0.25 8 0.25C7.00544 0.25 6.05161 0.645088 5.34835 1.34835C4.64509 2.05161 4.25 3.00544 4.25 4V5.25C4.25 5.51522 4.35536 5.76957 4.54289 5.95711C4.73043 6.14464 4.98478 6.25 5.25 6.25H5.25625C5.36674 7.16164 5.80959 8.0005 6.5 8.606V9H5C4.20461 9.00086 3.44205 9.31721 2.87963 9.87963C2.31721 10.4421 2.00086 11.2046 2 12V15.5C2 15.5663 2.02634 15.6299 2.07322 15.6768C2.12011 15.7237 2.1837 15.75 2.25 15.75H13.75C13.8163 15.75 13.8799 15.7237 13.9268 15.6768C13.9737 15.6299 14 15.5663 14 15.5V12C13.9991 11.2046 13.6828 10.4421 13.1204 9.87963C12.5579 9.31721 11.7954 9.00086 11 9ZM10.25 5.25C10.25 5.38261 10.1973 5.50979 10.1036 5.60355C10.0098 5.69732 9.88261 5.75 9.75 5.75H9.25C9.11739 5.75 8.99021 5.69732 8.89645 5.60355C8.80268 5.50979 8.75 5.38261 8.75 5.25V5C8.75 4.9337 8.77634 4.87011 8.82322 4.82322C8.87011 4.77634 8.9337 4.75 9 4.75H10C10.0663 4.75 10.1299 4.77634 10.1768 4.82322C10.2237 4.87011 10.25 4.9337 10.25 5V5.25ZM10.25 4.293C10.1697 4.2645 10.0852 4.24996 10 4.25H9C8.84492 4.25002 8.69367 4.29812 8.56705 4.38766C8.44044 4.4772 8.34469 4.60379 8.293 4.75H7.707C7.65531 4.60379 7.55956 4.4772 7.43295 4.38766C7.30634 4.29812 7.15508 4.25002 7 4.25H6C5.91482 4.24996 5.83027 4.2645 5.75 4.293V4.125C5.74955 4.01068 5.77925 3.89827 5.83611 3.79909C5.89298 3.69992 5.97499 3.6175 6.07388 3.56014C6.17277 3.50279 6.28503 3.47253 6.39935 3.47241C6.51367 3.4723 6.626 3.50234 6.725 3.5595C7.11389 3.78057 7.55354 3.8968 8.00088 3.8968C8.44821 3.8968 8.88786 3.78057 9.27675 3.5595C9.37571 3.50278 9.48785 3.47309 9.60191 3.47342C9.71597 3.47376 9.82794 3.5041 9.92656 3.56141C10.0252 3.61871 10.107 3.70096 10.1638 3.79988C10.2205 3.89881 10.2503 4.01094 10.25 4.125V4.293ZM11.25 7C11.25 7.13261 11.1973 7.25979 11.1036 7.35355C11.0098 7.44732 10.8826 7.5 10.75 7.5H10.3617C10.5722 7.11339 10.7021 6.68818 10.7437 6.25H10.75C10.9256 6.25015 11.0981 6.20383 11.25 6.11575V7ZM10.75 5.75V4.75C10.8826 4.75 11.0098 4.80268 11.1036 4.89645C11.1973 4.99021 11.25 5.11739 11.25 5.25C11.25 5.38261 11.1973 5.50979 11.1036 5.60355C11.0098 5.69732 10.8826 5.75 10.75 5.75ZM5.25 5.75C5.11739 5.75 4.99021 5.69732 4.89645 5.60355C4.80268 5.50979 4.75 5.38261 4.75 5.25C4.75 5.11739 4.80268 4.99021 4.89645 4.89645C4.99021 4.80268 5.11739 4.75 5.25 4.75V5.75ZM5.25 4.125V4.25C5.07441 4.24985 4.9019 4.29617 4.75 4.38425V4C4.75 3.13805 5.09241 2.3114 5.7019 1.7019C6.3114 1.09241 7.13805 0.75 8 0.75C8.86195 0.75 9.6886 1.09241 10.2981 1.7019C10.9076 2.3114 11.25 3.13805 11.25 4V4.38425C11.0981 4.29617 10.9256 4.24985 10.75 4.25V4.125C10.7505 3.92315 10.6978 3.72474 10.5973 3.5497C10.4968 3.37466 10.352 3.22916 10.1774 3.12782C10.0028 3.02648 9.80467 2.97286 9.60282 2.97237C9.40098 2.97188 9.20256 3.02452 9.0275 3.125C8.71431 3.303 8.36024 3.39658 8 3.39658C7.63976 3.39658 7.28569 3.303 6.9725 3.125C6.79738 3.02492 6.59904 2.9726 6.39735 2.97328C6.19565 2.97397 5.99767 3.02763 5.82324 3.1289C5.6488 3.23016 5.50403 3.37548 5.40343 3.5503C5.30283 3.72512 5.24992 3.9233 5.25 4.125ZM5.75 5C5.75 4.9337 5.77634 4.87011 5.82322 4.82322C5.87011 4.77634 5.9337 4.75 6 4.75H7C7.0663 4.75 7.12989 4.77634 7.17678 4.82322C7.22366 4.87011 7.25 4.9337 7.25 5V5.25C7.25 5.38261 7.19732 5.50979 7.10355 5.60355C7.00979 5.69732 6.88261 5.75 6.75 5.75H6.25C6.11739 5.75 5.99021 5.69732 5.89645 5.60355C5.80268 5.50979 5.75 5.38261 5.75 5.25V5ZM5.75 6.116C5.9019 6.20405 6.07442 6.25029 6.25 6.25H6.75C7.01522 6.25 7.26957 6.14464 7.45711 5.95711C7.64464 5.76957 7.75 5.51522 7.75 5.25H8.25C8.25 5.51522 8.35536 5.76957 8.54289 5.95711C8.73043 6.14464 8.98478 6.25 9.25 6.25H9.75C9.92558 6.25029 10.0981 6.20405 10.25 6.116C10.2176 6.61033 10.0561 7.08753 9.78175 7.5H9.25C9.1837 7.5 9.12011 7.52634 9.07322 7.57322C9.02634 7.62011 9 7.6837 9 7.75C9 7.8163 9.02634 7.87989 9.07322 7.92678C9.12011 7.97366 9.1837 8 9.25 8H9.40225C9.23152 8.21349 9.01919 8.39006 8.77814 8.51899C8.53709 8.64791 8.27235 8.72651 8 8.75C6.89475 8.75 5.77225 7.2285 5.75 6.116ZM9 8.966V9.225L8.9135 9.657C8.83486 9.83358 8.70672 9.98359 8.54459 10.0889C8.38247 10.1941 8.19331 10.2502 8 10.2502C7.80669 10.2502 7.61753 10.1941 7.45541 10.0889C7.29328 9.98359 7.16514 9.83358 7.0865 9.657L7 9.225V8.96525C7.30033 9.15139 7.64666 9.25001 8 9.25001C8.35334 9.25001 8.69967 9.15139 9 8.96525V8.966ZM4.25 15.25V13C4.25 12.9337 4.22366 12.8701 4.17678 12.8232C4.12989 12.7763 4.0663 12.75 4 12.75C3.9337 12.75 3.87011 12.7763 3.82322 12.8232C3.77634 12.8701 3.75 12.9337 3.75 13V15.25H2.5V12C2.50073 11.3372 2.76435 10.7017 3.23304 10.233C3.70172 9.76435 4.33718 9.50073 5 9.5H5.87825L4.6175 10.288C4.58118 10.3107 4.55129 10.3423 4.53069 10.3798C4.51009 10.4173 4.49947 10.4595 4.49984 10.5023C4.50022 10.5451 4.51158 10.5871 4.53284 10.6243C4.5541 10.6614 4.58454 10.6925 4.62125 10.7145L5.63375 11.3217L5.05 12.1C5.01993 12.1402 5.00263 12.1884 5.00036 12.2385C4.99808 12.2887 5.01094 12.3383 5.03725 12.381L6.8025 15.25H4.25ZM7.38975 15.25L5.552 12.264L6.2 11.4C6.22102 11.372 6.23591 11.3399 6.24373 11.3057C6.25154 11.2716 6.25209 11.2362 6.24535 11.2018C6.23861 11.1675 6.22473 11.1349 6.2046 11.1063C6.18447 11.0776 6.15854 11.0535 6.1285 11.0355L5.2285 10.4955L6.575 9.65375L7.695 15.25H7.38975ZM7.267 10.5595C7.49111 10.6844 7.74343 10.75 8 10.75C8.25657 10.75 8.50889 10.6844 8.733 10.5595L8 14.225L7.267 10.5595ZM8.305 15.25L9.425 9.65375L10.772 10.4955L9.872 11.0355C9.84192 11.0535 9.81595 11.0775 9.79577 11.1062C9.77559 11.1348 9.76166 11.1674 9.75487 11.2017C9.74808 11.2361 9.74859 11.2715 9.75636 11.3057C9.76414 11.3398 9.77901 11.372 9.8 11.4L10.448 12.264L8.61025 15.25H8.305ZM13.5 15.25H12.25V13C12.25 12.9337 12.2237 12.8701 12.1768 12.8232C12.1299 12.7763 12.0663 12.75 12 12.75C11.9337 12.75 11.8701 12.7763 11.8232 12.8232C11.7763 12.8701 11.75 12.9337 11.75 13V15.25H9.1975L10.9628 12.381C10.9891 12.3383 11.0019 12.2887 10.9996 12.2385C10.9974 12.1884 10.9801 12.1402 10.95 12.1L10.3663 11.3217L11.3787 10.7145C11.4155 10.6925 11.4459 10.6614 11.4672 10.6243C11.4884 10.5871 11.4998 10.5451 11.5002 10.5023C11.5005 10.4595 11.4899 10.4173 11.4693 10.3798C11.4487 10.3423 11.4188 10.3107 11.3825 10.288L10.1217 9.5H11C11.6628 9.50073 12.2983 9.76435 12.767 10.233C13.2356 10.7017 13.4993 11.3372 13.5 12V15.25Z" fill="#B8B8B8"/>
</svg>
