<svg width="68" height="32" viewBox="0 0 68 32" fill="none" xmlns="http://www.w3.org/2000/svg">
<path d="M33.9999 17.2174C38.3043 17.2174 41.826 13.6956 41.826 9.39127C41.826 5.08692 38.3043 1.56519 33.9999 1.56519C29.6956 1.56519 26.1738 5.08692 26.1738 9.39127C26.1738 13.6956 29.6956 17.2174 33.9999 17.2174Z" stroke="#ABABAB" stroke-width="1.17391" stroke-linecap="round" stroke-linejoin="round"/>
<path d="M30.8711 9.39136H37.132" stroke="#ABABAB" stroke-width="1.17391" stroke-linecap="round" stroke-linejoin="round"/>
<path d="M34 12.5219V6.26099" stroke="#ABABAB" stroke-width="1.17391" stroke-linecap="round" stroke-linejoin="round"/>
<path d="M3.136 29.8547C2.58133 29.8547 2.10667 29.7374 1.712 29.5027C1.31733 29.268 1.01333 28.9347 0.8 28.5027C0.592 28.0707 0.488 27.556 0.488 26.9587C0.488 26.5107 0.546667 26.1107 0.664 25.7587C0.786667 25.4014 0.96 25.1 1.184 24.8547C1.41333 24.604 1.69333 24.412 2.024 24.2787C2.35467 24.14 2.72533 24.0707 3.136 24.0707C3.46667 24.0707 3.78133 24.1187 4.08 24.2147C4.37867 24.3054 4.63733 24.4414 4.856 24.6227C4.92533 24.676 4.97067 24.7374 4.992 24.8067C5.01867 24.8707 5.02133 24.9347 5 24.9987C4.984 25.0574 4.952 25.108 4.904 25.1507C4.86133 25.188 4.808 25.2067 4.744 25.2067C4.68 25.2067 4.608 25.18 4.528 25.1267C4.336 24.972 4.12533 24.8574 3.896 24.7827C3.66667 24.708 3.41867 24.6707 3.152 24.6707C2.73067 24.6707 2.37333 24.7614 2.08 24.9427C1.78667 25.1187 1.56533 25.3774 1.416 25.7187C1.26667 26.06 1.192 26.4734 1.192 26.9587C1.192 27.444 1.26667 27.86 1.416 28.2067C1.56533 28.548 1.78667 28.8094 2.08 28.9907C2.37333 29.1667 2.73067 29.2547 3.152 29.2547C3.41333 29.2547 3.66133 29.2174 3.896 29.1427C4.13067 29.0627 4.34667 28.9454 4.544 28.7907C4.624 28.7374 4.696 28.7134 4.76 28.7187C4.824 28.7187 4.87733 28.7374 4.92 28.7747C4.96267 28.812 4.992 28.86 5.008 28.9187C5.02933 28.9774 5.02933 29.0387 5.008 29.1027C4.992 29.1667 4.952 29.2227 4.888 29.2707C4.664 29.4627 4.4 29.6094 4.096 29.7107C3.79733 29.8067 3.47733 29.8547 3.136 29.8547ZM7.08981 29.8547C6.82315 29.8547 6.58315 29.804 6.36981 29.7027C6.16181 29.596 5.99648 29.452 5.87381 29.2707C5.75115 29.0894 5.68981 28.8867 5.68981 28.6627C5.68981 28.3747 5.76181 28.148 5.90581 27.9827C6.05515 27.8174 6.29781 27.7 6.63381 27.6307C6.97515 27.5614 7.43915 27.5267 8.02581 27.5267H8.38581V27.9507H8.03381C7.60181 27.9507 7.26048 27.972 7.00981 28.0147C6.76448 28.052 6.59115 28.1187 6.48981 28.2147C6.39381 28.3107 6.34581 28.4467 6.34581 28.6227C6.34581 28.8414 6.42048 29.02 6.56981 29.1587C6.72448 29.2974 6.93248 29.3667 7.19381 29.3667C7.40715 29.3667 7.59381 29.316 7.75381 29.2147C7.91915 29.1134 8.04715 28.9747 8.13781 28.7987C8.23381 28.6227 8.28181 28.42 8.28181 28.1907V27.2787C8.28181 26.948 8.21515 26.7107 8.08181 26.5667C7.94848 26.4174 7.72981 26.3427 7.42581 26.3427C7.23915 26.3427 7.05248 26.3667 6.86581 26.4147C6.67915 26.4627 6.48181 26.54 6.27381 26.6467C6.19915 26.684 6.13515 26.6974 6.08181 26.6867C6.02848 26.6707 5.98581 26.6414 5.95381 26.5987C5.92181 26.556 5.90315 26.508 5.89781 26.4547C5.89248 26.396 5.90315 26.34 5.92981 26.2867C5.96181 26.2334 6.00981 26.1907 6.07381 26.1587C6.30848 26.0414 6.54048 25.956 6.76981 25.9027C6.99915 25.8494 7.21781 25.8227 7.42581 25.8227C7.76181 25.8227 8.03915 25.8787 8.25781 25.9907C8.47648 26.0974 8.63915 26.2627 8.74581 26.4867C8.85248 26.7054 8.90581 26.988 8.90581 27.3347V29.5027C8.90581 29.6094 8.87915 29.692 8.82581 29.7507C8.77781 29.8094 8.70581 29.8387 8.60981 29.8387C8.50848 29.8387 8.43115 29.8094 8.37781 29.7507C8.32448 29.692 8.29781 29.6094 8.29781 29.5027V28.8787H8.36981C8.32715 29.0814 8.24448 29.2547 8.12181 29.3987C8.00448 29.5427 7.85781 29.6547 7.68181 29.7347C7.50581 29.8147 7.30848 29.8547 7.08981 29.8547ZM10.428 31.2787C10.3213 31.2787 10.2413 31.2494 10.188 31.1907C10.1347 31.1374 10.108 31.0574 10.108 30.9507V26.1667C10.108 26.06 10.1347 25.98 10.188 25.9267C10.2413 25.868 10.3187 25.8387 10.42 25.8387C10.5267 25.8387 10.6067 25.868 10.66 25.9267C10.7187 25.98 10.748 26.06 10.748 26.1667V26.9267L10.66 26.8147C10.7453 26.5107 10.9133 26.2707 11.164 26.0947C11.42 25.9134 11.724 25.8227 12.076 25.8227C12.4227 25.8227 12.724 25.9054 12.98 26.0707C13.2413 26.2307 13.4413 26.4627 13.58 26.7667C13.724 27.0654 13.796 27.4227 13.796 27.8387C13.796 28.2494 13.724 28.6067 13.58 28.9107C13.4413 29.2094 13.244 29.4414 12.988 29.6067C12.732 29.772 12.428 29.8547 12.076 29.8547C11.724 29.8547 11.4227 29.7667 11.172 29.5907C10.9213 29.4094 10.7507 29.1694 10.66 28.8707H10.756V30.9507C10.756 31.0574 10.7267 31.1374 10.668 31.1907C10.6093 31.2494 10.5293 31.2787 10.428 31.2787ZM11.94 29.3347C12.1853 29.3347 12.396 29.276 12.572 29.1587C12.7533 29.0414 12.892 28.8707 12.988 28.6467C13.0893 28.4227 13.14 28.1534 13.14 27.8387C13.14 27.3534 13.0307 26.9827 12.812 26.7267C12.5987 26.4707 12.308 26.3427 11.94 26.3427C11.7 26.3427 11.4893 26.4014 11.308 26.5187C11.1267 26.6307 10.9853 26.7987 10.884 27.0227C10.788 27.2414 10.74 27.5134 10.74 27.8387C10.74 28.3187 10.8493 28.6894 11.068 28.9507C11.2867 29.2067 11.5773 29.3347 11.94 29.3347ZM16.293 29.8547C15.989 29.8547 15.733 29.8014 15.525 29.6947C15.3223 29.5827 15.1703 29.4227 15.069 29.2147C14.9677 29.0014 14.917 28.7427 14.917 28.4387V26.3987H14.381C14.2903 26.3987 14.221 26.3774 14.173 26.3347C14.125 26.2867 14.101 26.2227 14.101 26.1427C14.101 26.0627 14.125 26.0014 14.173 25.9587C14.221 25.916 14.2903 25.8947 14.381 25.8947H14.917V24.9747C14.917 24.868 14.9463 24.788 15.005 24.7347C15.0637 24.676 15.1437 24.6467 15.245 24.6467C15.3463 24.6467 15.4237 24.676 15.477 24.7347C15.5357 24.788 15.565 24.868 15.565 24.9747V25.8947H16.573C16.6637 25.8947 16.733 25.916 16.781 25.9587C16.829 26.0014 16.853 26.0627 16.853 26.1427C16.853 26.2227 16.829 26.2867 16.781 26.3347C16.733 26.3774 16.6637 26.3987 16.573 26.3987H15.565V28.3747C15.565 28.6787 15.629 28.9107 15.757 29.0707C15.885 29.2254 16.093 29.3027 16.381 29.3027C16.4823 29.3027 16.5677 29.292 16.637 29.2707C16.7117 29.2494 16.773 29.2387 16.821 29.2387C16.869 29.2334 16.909 29.2494 16.941 29.2867C16.973 29.324 16.989 29.388 16.989 29.4787C16.989 29.5427 16.9757 29.6014 16.949 29.6547C16.9277 29.708 16.8877 29.7454 16.829 29.7667C16.765 29.788 16.6797 29.8067 16.573 29.8227C16.4717 29.844 16.3783 29.8547 16.293 29.8547ZM18.9059 29.8547C18.5912 29.8547 18.3299 29.7987 18.1219 29.6867C17.9192 29.5694 17.7645 29.396 17.6579 29.1667C17.5565 28.9374 17.5059 28.652 17.5059 28.3107V26.1667C17.5059 26.0547 17.5325 25.972 17.5859 25.9187C17.6445 25.8654 17.7245 25.8387 17.8259 25.8387C17.9325 25.8387 18.0125 25.8654 18.0659 25.9187C18.1245 25.972 18.1539 26.0547 18.1539 26.1667V28.3027C18.1539 28.644 18.2232 28.9 18.3619 29.0707C18.5059 29.236 18.7299 29.3187 19.0339 29.3187C19.3645 29.3187 19.6339 29.2067 19.8419 28.9827C20.0499 28.7587 20.1539 28.4654 20.1539 28.1027V26.1667C20.1539 26.0547 20.1805 25.972 20.2339 25.9187C20.2925 25.8654 20.3752 25.8387 20.4819 25.8387C20.5832 25.8387 20.6605 25.8654 20.7139 25.9187C20.7725 25.972 20.8019 26.0547 20.8019 26.1667V29.5027C20.8019 29.7267 20.6979 29.8387 20.4899 29.8387C20.3885 29.8387 20.3085 29.8094 20.2499 29.7507C20.1965 29.692 20.1699 29.6094 20.1699 29.5027V28.7747L20.2739 28.8867C20.1672 29.2014 19.9912 29.4414 19.7459 29.6067C19.5059 29.772 19.2259 29.8547 18.9059 29.8547ZM22.3423 29.8387C22.2356 29.8387 22.1529 29.8094 22.0943 29.7507C22.0409 29.692 22.0143 29.6094 22.0143 29.5027V26.1667C22.0143 26.06 22.0409 25.98 22.0943 25.9267C22.1476 25.868 22.2249 25.8387 22.3263 25.8387C22.4276 25.8387 22.5049 25.868 22.5583 25.9267C22.6169 25.98 22.6463 26.06 22.6463 26.1667V26.8147H22.5663C22.6516 26.5 22.8143 26.2574 23.0543 26.0867C23.2943 25.916 23.5903 25.8254 23.9423 25.8147C24.0223 25.8094 24.0863 25.828 24.1343 25.8707C24.1823 25.908 24.2089 25.9747 24.2143 26.0707C24.2196 26.1614 24.1983 26.2334 24.1503 26.2867C24.1023 26.34 24.0276 26.372 23.9263 26.3827L23.7983 26.3987C23.4356 26.4307 23.1556 26.548 22.9583 26.7507C22.7663 26.948 22.6703 27.22 22.6703 27.5667V29.5027C22.6703 29.6094 22.6409 29.692 22.5822 29.7507C22.5289 29.8094 22.4489 29.8387 22.3423 29.8387ZM26.5866 29.8547C26.1759 29.8547 25.8212 29.7747 25.5226 29.6147C25.2292 29.4494 24.9999 29.2174 24.8346 28.9187C24.6746 28.62 24.5946 28.2627 24.5946 27.8467C24.5946 27.4414 24.6746 27.0894 24.8346 26.7907C24.9946 26.4867 25.2132 26.2494 25.4906 26.0787C25.7732 25.908 26.0986 25.8227 26.4666 25.8227C26.7279 25.8227 26.9626 25.868 27.1706 25.9587C27.3786 26.044 27.5546 26.1694 27.6986 26.3347C27.8479 26.5 27.9599 26.7 28.0346 26.9347C28.1146 27.1694 28.1546 27.4334 28.1546 27.7267C28.1546 27.812 28.1306 27.876 28.0826 27.9187C28.0346 27.956 27.9652 27.9747 27.8746 27.9747H25.0906V27.5507H27.7226L27.5946 27.6547C27.5946 27.3667 27.5519 27.124 27.4666 26.9267C27.3812 26.724 27.2559 26.5694 27.0906 26.4627C26.9306 26.356 26.7279 26.3027 26.4826 26.3027C26.2106 26.3027 25.9786 26.3667 25.7866 26.4947C25.5999 26.6174 25.4586 26.7907 25.3626 27.0147C25.2666 27.2334 25.2186 27.4894 25.2186 27.7827V27.8307C25.2186 28.3214 25.3359 28.6947 25.5706 28.9507C25.8106 29.2067 26.1492 29.3347 26.5866 29.3347C26.7679 29.3347 26.9466 29.3107 27.1226 29.2627C27.3039 29.2147 27.4799 29.1347 27.6506 29.0227C27.7252 28.9747 27.7919 28.9534 27.8506 28.9587C27.9146 28.9587 27.9652 28.9774 28.0026 29.0147C28.0399 29.0467 28.0639 29.0894 28.0746 29.1427C28.0906 29.1907 28.0852 29.244 28.0586 29.3027C28.0372 29.3614 27.9919 29.412 27.9226 29.4547C27.7466 29.5827 27.5386 29.6814 27.2986 29.7507C27.0586 29.82 26.8212 29.8547 26.5866 29.8547ZM31.5949 29.8387C31.4829 29.8387 31.3949 29.8094 31.3309 29.7507C31.2722 29.6867 31.2429 29.596 31.2429 29.4787V24.5027C31.2429 24.3854 31.2722 24.2974 31.3309 24.2387C31.3949 24.1747 31.4855 24.1427 31.6029 24.1427H34.5069C34.5975 24.1427 34.6669 24.1667 34.7149 24.2147C34.7629 24.2627 34.7869 24.3294 34.7869 24.4147C34.7869 24.5054 34.7629 24.5747 34.7149 24.6227C34.6669 24.6707 34.5975 24.6947 34.5069 24.6947H31.8989V26.6627H34.3389C34.4295 26.6627 34.4989 26.6867 34.5469 26.7347C34.6002 26.7827 34.6269 26.8494 34.6269 26.9347C34.6269 27.0254 34.6002 27.0947 34.5469 27.1427C34.4989 27.1907 34.4295 27.2147 34.3389 27.2147H31.8989V29.4787C31.8989 29.7187 31.7975 29.8387 31.5949 29.8387ZM35.7876 29.8387C35.6809 29.8387 35.5982 29.8094 35.5396 29.7507C35.4862 29.692 35.4596 29.6094 35.4596 29.5027V26.1667C35.4596 26.06 35.4862 25.98 35.5396 25.9267C35.5929 25.868 35.6702 25.8387 35.7716 25.8387C35.8729 25.8387 35.9502 25.868 36.0036 25.9267C36.0622 25.98 36.0916 26.06 36.0916 26.1667V26.8147H36.0116C36.0969 26.5 36.2596 26.2574 36.4996 26.0867C36.7396 25.916 37.0356 25.8254 37.3876 25.8147C37.4676 25.8094 37.5316 25.828 37.5796 25.8707C37.6276 25.908 37.6542 25.9747 37.6596 26.0707C37.6649 26.1614 37.6436 26.2334 37.5956 26.2867C37.5476 26.34 37.4729 26.372 37.3716 26.3827L37.2436 26.3987C36.8809 26.4307 36.6009 26.548 36.4036 26.7507C36.2116 26.948 36.1156 27.22 36.1156 27.5667V29.5027C36.1156 29.6094 36.0862 29.692 36.0276 29.7507C35.9742 29.8094 35.8942 29.8387 35.7876 29.8387ZM39.8959 29.8547C39.5172 29.8547 39.1892 29.772 38.9119 29.6067C38.6345 29.4414 38.4185 29.2094 38.2639 28.9107C38.1145 28.6067 38.0399 28.2494 38.0399 27.8387C38.0399 27.5294 38.0825 27.252 38.1679 27.0067C38.2532 26.756 38.3785 26.5427 38.5439 26.3667C38.7092 26.1907 38.9039 26.0574 39.1279 25.9667C39.3572 25.8707 39.6132 25.8227 39.8959 25.8227C40.2745 25.8227 40.6025 25.9054 40.8799 26.0707C41.1572 26.236 41.3705 26.4707 41.5199 26.7747C41.6745 27.0734 41.7519 27.428 41.7519 27.8387C41.7519 28.148 41.7092 28.4254 41.6239 28.6707C41.5385 28.916 41.4132 29.1294 41.2479 29.3107C41.0825 29.4867 40.8852 29.6227 40.6559 29.7187C40.4319 29.8094 40.1785 29.8547 39.8959 29.8547ZM39.8959 29.3347C40.1359 29.3347 40.3465 29.276 40.5279 29.1587C40.7092 29.0414 40.8479 28.8707 40.9439 28.6467C41.0452 28.4227 41.0959 28.1534 41.0959 27.8387C41.0959 27.3534 40.9865 26.9827 40.7679 26.7267C40.5545 26.4707 40.2639 26.3427 39.8959 26.3427C39.6505 26.3427 39.4372 26.4014 39.2559 26.5187C39.0799 26.6307 38.9412 26.7987 38.8399 27.0227C38.7439 27.2414 38.6959 27.5134 38.6959 27.8387C38.6959 28.3187 38.8052 28.6894 39.0239 28.9507C39.2425 29.2067 39.5332 29.3347 39.8959 29.3347ZM43.0452 29.8387C42.9385 29.8387 42.8585 29.8094 42.8052 29.7507C42.7519 29.692 42.7252 29.6094 42.7252 29.5027V26.1667C42.7252 26.06 42.7519 25.98 42.8052 25.9267C42.8585 25.868 42.9359 25.8387 43.0372 25.8387C43.1385 25.8387 43.2159 25.868 43.2692 25.9267C43.3279 25.98 43.3572 26.06 43.3572 26.1667V26.8547L43.2692 26.7587C43.3812 26.4494 43.5625 26.2174 43.8132 26.0627C44.0692 25.9027 44.3625 25.8227 44.6932 25.8227C45.0025 25.8227 45.2585 25.8787 45.4612 25.9907C45.6692 26.1027 45.8239 26.2734 45.9252 26.5027C46.0265 26.7267 46.0772 27.012 46.0772 27.3587V29.5027C46.0772 29.6094 46.0479 29.692 45.9892 29.7507C45.9359 29.8094 45.8585 29.8387 45.7572 29.8387C45.6505 29.8387 45.5679 29.8094 45.5092 29.7507C45.4559 29.692 45.4292 29.6094 45.4292 29.5027V27.3987C45.4292 27.036 45.3572 26.772 45.2132 26.6067C45.0745 26.436 44.8505 26.3507 44.5412 26.3507C44.1839 26.3507 43.8985 26.4627 43.6852 26.6867C43.4772 26.9054 43.3732 27.1987 43.3732 27.5667V29.5027C43.3732 29.7267 43.2639 29.8387 43.0452 29.8387ZM48.8321 29.8547C48.5281 29.8547 48.2721 29.8014 48.0641 29.6947C47.8614 29.5827 47.7094 29.4227 47.6081 29.2147C47.5067 29.0014 47.4561 28.7427 47.4561 28.4387V26.3987H46.9201C46.8294 26.3987 46.7601 26.3774 46.7121 26.3347C46.6641 26.2867 46.6401 26.2227 46.6401 26.1427C46.6401 26.0627 46.6641 26.0014 46.7121 25.9587C46.7601 25.916 46.8294 25.8947 46.9201 25.8947H47.4561V24.9747C47.4561 24.868 47.4854 24.788 47.5441 24.7347C47.6027 24.676 47.6827 24.6467 47.7841 24.6467C47.8854 24.6467 47.9627 24.676 48.0161 24.7347C48.0747 24.788 48.1041 24.868 48.1041 24.9747V25.8947H49.1121C49.2027 25.8947 49.2721 25.916 49.3201 25.9587C49.3681 26.0014 49.3921 26.0627 49.3921 26.1427C49.3921 26.2227 49.3681 26.2867 49.3201 26.3347C49.2721 26.3774 49.2027 26.3987 49.1121 26.3987H48.1041V28.3747C48.1041 28.6787 48.1681 28.9107 48.2961 29.0707C48.4241 29.2254 48.6321 29.3027 48.9201 29.3027C49.0214 29.3027 49.1067 29.292 49.1761 29.2707C49.2507 29.2494 49.3121 29.2387 49.3601 29.2387C49.4081 29.2334 49.4481 29.2494 49.4801 29.2867C49.5121 29.324 49.5281 29.388 49.5281 29.4787C49.5281 29.5427 49.5147 29.6014 49.4881 29.6547C49.4667 29.708 49.4267 29.7454 49.3681 29.7667C49.3041 29.788 49.2187 29.8067 49.1121 29.8227C49.0107 29.844 48.9174 29.8547 48.8321 29.8547ZM54.0434 29.8547C53.7928 29.8547 53.5474 29.8334 53.3074 29.7907C53.0674 29.748 52.8434 29.6867 52.6354 29.6067C52.4328 29.5267 52.2488 29.4254 52.0834 29.3027C52.0194 29.2547 51.9741 29.2014 51.9474 29.1427C51.9261 29.0787 51.9208 29.0174 51.9314 28.9587C51.9474 28.8947 51.9741 28.8414 52.0114 28.7987C52.0541 28.756 52.1048 28.732 52.1634 28.7267C52.2221 28.7214 52.2861 28.74 52.3554 28.7827C52.5954 28.9534 52.8514 29.0787 53.1234 29.1587C53.3954 29.2334 53.7021 29.2707 54.0434 29.2707C54.5234 29.2707 54.8781 29.1827 55.1074 29.0067C55.3421 28.8254 55.4594 28.588 55.4594 28.2947C55.4594 28.0547 55.3741 27.868 55.2034 27.7347C55.0381 27.596 54.7581 27.4867 54.3634 27.4067L53.5314 27.2387C53.0301 27.132 52.6541 26.9587 52.4034 26.7187C52.1581 26.4734 52.0354 26.148 52.0354 25.7427C52.0354 25.492 52.0861 25.2654 52.1874 25.0627C52.2888 24.8547 52.4301 24.6787 52.6114 24.5347C52.7928 24.3854 53.0088 24.2707 53.2594 24.1907C53.5101 24.1107 53.7874 24.0707 54.0914 24.0707C54.4274 24.0707 54.7394 24.1187 55.0274 24.2147C55.3208 24.3054 55.5848 24.444 55.8194 24.6307C55.8781 24.6787 55.9181 24.7347 55.9394 24.7987C55.9608 24.8574 55.9634 24.916 55.9474 24.9747C55.9314 25.028 55.9021 25.0734 55.8594 25.1107C55.8221 25.148 55.7714 25.1694 55.7074 25.1747C55.6488 25.18 55.5821 25.1587 55.5074 25.1107C55.2941 24.9507 55.0728 24.836 54.8434 24.7667C54.6141 24.692 54.3608 24.6547 54.0834 24.6547C53.8008 24.6547 53.5554 24.6974 53.3474 24.7827C53.1448 24.868 52.9848 24.9934 52.8674 25.1587C52.7554 25.3187 52.6994 25.5054 52.6994 25.7187C52.6994 25.9747 52.7768 26.1774 52.9314 26.3267C53.0914 26.476 53.3501 26.5854 53.7074 26.6547L54.5394 26.8307C55.0781 26.9427 55.4754 27.1134 55.7314 27.3427C55.9928 27.5667 56.1234 27.8734 56.1234 28.2627C56.1234 28.4974 56.0754 28.7134 55.9794 28.9107C55.8834 29.108 55.7448 29.2787 55.5634 29.4227C55.3821 29.5614 55.1634 29.668 54.9074 29.7427C54.6514 29.8174 54.3634 29.8547 54.0434 29.8547ZM57.3733 29.8227C57.2666 29.8227 57.1866 29.7934 57.1333 29.7347C57.08 29.6707 57.0533 29.5827 57.0533 29.4707V26.1987C57.0533 26.0867 57.08 26.0014 57.1333 25.9427C57.1866 25.884 57.2666 25.8547 57.3733 25.8547C57.4746 25.8547 57.5546 25.884 57.6133 25.9427C57.672 26.0014 57.7013 26.0867 57.7013 26.1987V29.4707C57.7013 29.5827 57.672 29.6707 57.6133 29.7347C57.56 29.7934 57.48 29.8227 57.3733 29.8227ZM57.3733 24.9587C57.24 24.9587 57.136 24.924 57.0613 24.8547C56.9866 24.78 56.9493 24.6814 56.9493 24.5587C56.9493 24.4307 56.9866 24.3347 57.0613 24.2707C57.136 24.2014 57.24 24.1667 57.3733 24.1667C57.512 24.1667 57.616 24.2014 57.6853 24.2707C57.76 24.3347 57.7973 24.4307 57.7973 24.5587C57.7973 24.6814 57.76 24.78 57.6853 24.8547C57.616 24.924 57.512 24.9587 57.3733 24.9587ZM60.3927 29.8547C60.046 29.8547 59.742 29.772 59.4807 29.6067C59.2247 29.4414 59.0247 29.2094 58.8807 28.9107C58.742 28.6067 58.6727 28.2494 58.6727 27.8387C58.6727 27.4227 58.742 27.0654 58.8807 26.7667C59.0247 26.4627 59.2247 26.2307 59.4807 26.0707C59.742 25.9054 60.046 25.8227 60.3927 25.8227C60.7447 25.8227 61.046 25.9107 61.2967 26.0867C61.5474 26.2627 61.7154 26.5 61.8007 26.7987H61.7127V24.4147C61.7127 24.308 61.7394 24.228 61.7927 24.1747C61.8514 24.116 61.934 24.0867 62.0407 24.0867C62.142 24.0867 62.2194 24.116 62.2727 24.1747C62.3314 24.228 62.3607 24.308 62.3607 24.4147V29.5027C62.3607 29.6094 62.334 29.692 62.2807 29.7507C62.2274 29.8094 62.1474 29.8387 62.0407 29.8387C61.9394 29.8387 61.8594 29.8094 61.8007 29.7507C61.7474 29.692 61.7207 29.6094 61.7207 29.5027V28.7427L61.8087 28.8547C61.7234 29.1587 61.5527 29.4014 61.2967 29.5827C61.046 29.764 60.7447 29.8547 60.3927 29.8547ZM60.5287 29.3347C60.7687 29.3347 60.9794 29.276 61.1607 29.1587C61.342 29.0414 61.4807 28.8707 61.5767 28.6467C61.678 28.4227 61.7287 28.1534 61.7287 27.8387C61.7287 27.3534 61.6194 26.9827 61.4007 26.7267C61.1874 26.4707 60.8967 26.3427 60.5287 26.3427C60.2834 26.3427 60.07 26.4014 59.8887 26.5187C59.7127 26.6307 59.574 26.7987 59.4727 27.0227C59.3767 27.2414 59.3287 27.5134 59.3287 27.8387C59.3287 28.3187 59.438 28.6894 59.6567 28.9507C59.8754 29.2067 60.166 29.3347 60.5287 29.3347ZM65.3288 29.8547C64.9181 29.8547 64.5634 29.7747 64.2648 29.6147C63.9714 29.4494 63.7421 29.2174 63.5768 28.9187C63.4168 28.62 63.3368 28.2627 63.3368 27.8467C63.3368 27.4414 63.4168 27.0894 63.5768 26.7907C63.7368 26.4867 63.9554 26.2494 64.2328 26.0787C64.5154 25.908 64.8408 25.8227 65.2088 25.8227C65.4701 25.8227 65.7048 25.868 65.9128 25.9587C66.1208 26.044 66.2968 26.1694 66.4408 26.3347C66.5901 26.5 66.7021 26.7 66.7768 26.9347C66.8568 27.1694 66.8968 27.4334 66.8968 27.7267C66.8968 27.812 66.8728 27.876 66.8248 27.9187C66.7768 27.956 66.7074 27.9747 66.6168 27.9747H63.8328V27.5507H66.4648L66.3368 27.6547C66.3368 27.3667 66.2941 27.124 66.2088 26.9267C66.1234 26.724 65.9981 26.5694 65.8328 26.4627C65.6728 26.356 65.4701 26.3027 65.2248 26.3027C64.9528 26.3027 64.7208 26.3667 64.5288 26.4947C64.3421 26.6174 64.2008 26.7907 64.1048 27.0147C64.0088 27.2334 63.9608 27.4894 63.9608 27.7827V27.8307C63.9608 28.3214 64.0781 28.6947 64.3128 28.9507C64.5528 29.2067 64.8914 29.3347 65.3288 29.3347C65.5101 29.3347 65.6888 29.3107 65.8648 29.2627C66.0461 29.2147 66.2221 29.1347 66.3928 29.0227C66.4674 28.9747 66.5341 28.9534 66.5928 28.9587C66.6568 28.9587 66.7074 28.9774 66.7448 29.0147C66.7821 29.0467 66.8061 29.0894 66.8168 29.1427C66.8328 29.1907 66.8274 29.244 66.8008 29.3027C66.7794 29.3614 66.7341 29.412 66.6648 29.4547C66.4888 29.5827 66.2808 29.6814 66.0408 29.7507C65.8008 29.82 65.5634 29.8547 65.3288 29.8547Z" fill="#ABABAB"/>
</svg>
