<svg width="68" height="32" viewBox="0 0 68 32" fill="none" xmlns="http://www.w3.org/2000/svg">
<path d="M33.9999 17.2174C38.3043 17.2174 41.826 13.6956 41.826 9.39127C41.826 5.08692 38.3043 1.56519 33.9999 1.56519C29.6956 1.56519 26.1738 5.08692 26.1738 9.39127C26.1738 13.6956 29.6956 17.2174 33.9999 17.2174Z" stroke="#ABABAB" stroke-width="1.17391" stroke-linecap="round" stroke-linejoin="round"/>
<path d="M30.8711 9.39136H37.132" stroke="#ABABAB" stroke-width="1.17391" stroke-linecap="round" stroke-linejoin="round"/>
<path d="M34 12.5219V6.26099" stroke="#ABABAB" stroke-width="1.17391" stroke-linecap="round" stroke-linejoin="round"/>
<path d="M3.136 29.8547C2.58133 29.8547 2.10667 29.7374 1.712 29.5027C1.31733 29.268 1.01333 28.9347 0.8 28.5027C0.592 28.0707 0.488 27.556 0.488 26.9587C0.488 26.5107 0.546667 26.1107 0.664 25.7587C0.786667 25.4014 0.96 25.1 1.184 24.8547C1.41333 24.604 1.69333 24.412 2.024 24.2787C2.35467 24.14 2.72533 24.0707 3.136 24.0707C3.46667 24.0707 3.78133 24.1187 4.08 24.2147C4.37867 24.3054 4.63733 24.4414 4.856 24.6227C4.92533 24.676 4.97067 24.7374 4.992 24.8067C5.01867 24.8707 5.02133 24.9347 5 24.9987C4.984 25.0574 4.952 25.108 4.904 25.1507C4.86133 25.188 4.808 25.2067 4.744 25.2067C4.68 25.2067 4.608 25.18 4.528 25.1267C4.336 24.972 4.12533 24.8574 3.896 24.7827C3.66667 24.708 3.41867 24.6707 3.152 24.6707C2.73067 24.6707 2.37333 24.7614 2.08 24.9427C1.78667 25.1187 1.56533 25.3774 1.416 25.7187C1.26667 26.06 1.192 26.4734 1.192 26.9587C1.192 27.444 1.26667 27.86 1.416 28.2067C1.56533 28.548 1.78667 28.8094 2.08 28.9907C2.37333 29.1667 2.73067 29.2547 3.152 29.2547C3.41333 29.2547 3.66133 29.2174 3.896 29.1427C4.13067 29.0627 4.34667 28.9454 4.544 28.7907C4.624 28.7374 4.696 28.7134 4.76 28.7187C4.824 28.7187 4.87733 28.7374 4.92 28.7747C4.96267 28.812 4.992 28.86 5.008 28.9187C5.02933 28.9774 5.02933 29.0387 5.008 29.1027C4.992 29.1667 4.952 29.2227 4.888 29.2707C4.664 29.4627 4.4 29.6094 4.096 29.7107C3.79733 29.8067 3.47733 29.8547 3.136 29.8547ZM7.08981 29.8547C6.82315 29.8547 6.58315 29.804 6.36981 29.7027C6.16181 29.596 5.99648 29.452 5.87381 29.2707C5.75115 29.0894 5.68981 28.8867 5.68981 28.6627C5.68981 28.3747 5.76181 28.148 5.90581 27.9827C6.05515 27.8174 6.29781 27.7 6.63381 27.6307C6.97515 27.5614 7.43915 27.5267 8.02581 27.5267H8.38581V27.9507H8.03381C7.60181 27.9507 7.26048 27.972 7.00981 28.0147C6.76448 28.052 6.59115 28.1187 6.48981 28.2147C6.39381 28.3107 6.34581 28.4467 6.34581 28.6227C6.34581 28.8414 6.42048 29.02 6.56981 29.1587C6.72448 29.2974 6.93248 29.3667 7.19381 29.3667C7.40715 29.3667 7.59381 29.316 7.75381 29.2147C7.91915 29.1134 8.04715 28.9747 8.13781 28.7987C8.23381 28.6227 8.28181 28.42 8.28181 28.1907V27.2787C8.28181 26.948 8.21515 26.7107 8.08181 26.5667C7.94848 26.4174 7.72981 26.3427 7.42581 26.3427C7.23915 26.3427 7.05248 26.3667 6.86581 26.4147C6.67915 26.4627 6.48181 26.54 6.27381 26.6467C6.19915 26.684 6.13515 26.6974 6.08181 26.6867C6.02848 26.6707 5.98581 26.6414 5.95381 26.5987C5.92181 26.556 5.90315 26.508 5.89781 26.4547C5.89248 26.396 5.90315 26.34 5.92981 26.2867C5.96181 26.2334 6.00981 26.1907 6.07381 26.1587C6.30848 26.0414 6.54048 25.956 6.76981 25.9027C6.99915 25.8494 7.21781 25.8227 7.42581 25.8227C7.76181 25.8227 8.03915 25.8787 8.25781 25.9907C8.47648 26.0974 8.63915 26.2627 8.74581 26.4867C8.85248 26.7054 8.90581 26.988 8.90581 27.3347V29.5027C8.90581 29.6094 8.87915 29.692 8.82581 29.7507C8.77781 29.8094 8.70581 29.8387 8.60981 29.8387C8.50848 29.8387 8.43115 29.8094 8.37781 29.7507C8.32448 29.692 8.29781 29.6094 8.29781 29.5027V28.8787H8.36981C8.32715 29.0814 8.24448 29.2547 8.12181 29.3987C8.00448 29.5427 7.85781 29.6547 7.68181 29.7347C7.50581 29.8147 7.30848 29.8547 7.08981 29.8547ZM10.428 31.2787C10.3213 31.2787 10.2413 31.2494 10.188 31.1907C10.1347 31.1374 10.108 31.0574 10.108 30.9507V26.1667C10.108 26.06 10.1347 25.98 10.188 25.9267C10.2413 25.868 10.3187 25.8387 10.42 25.8387C10.5267 25.8387 10.6067 25.868 10.66 25.9267C10.7187 25.98 10.748 26.06 10.748 26.1667V26.9267L10.66 26.8147C10.7453 26.5107 10.9133 26.2707 11.164 26.0947C11.42 25.9134 11.724 25.8227 12.076 25.8227C12.4227 25.8227 12.724 25.9054 12.98 26.0707C13.2413 26.2307 13.4413 26.4627 13.58 26.7667C13.724 27.0654 13.796 27.4227 13.796 27.8387C13.796 28.2494 13.724 28.6067 13.58 28.9107C13.4413 29.2094 13.244 29.4414 12.988 29.6067C12.732 29.772 12.428 29.8547 12.076 29.8547C11.724 29.8547 11.4227 29.7667 11.172 29.5907C10.9213 29.4094 10.7507 29.1694 10.66 28.8707H10.756V30.9507C10.756 31.0574 10.7267 31.1374 10.668 31.1907C10.6093 31.2494 10.5293 31.2787 10.428 31.2787ZM11.94 29.3347C12.1853 29.3347 12.396 29.276 12.572 29.1587C12.7533 29.0414 12.892 28.8707 12.988 28.6467C13.0893 28.4227 13.14 28.1534 13.14 27.8387C13.14 27.3534 13.0307 26.9827 12.812 26.7267C12.5987 26.4707 12.308 26.3427 11.94 26.3427C11.7 26.3427 11.4893 26.4014 11.308 26.5187C11.1267 26.6307 10.9853 26.7987 10.884 27.0227C10.788 27.2414 10.74 27.5134 10.74 27.8387C10.74 28.3187 10.8493 28.6894 11.068 28.9507C11.2867 29.2067 11.5773 29.3347 11.94 29.3347ZM16.293 29.8547C15.989 29.8547 15.733 29.8014 15.525 29.6947C15.3223 29.5827 15.1703 29.4227 15.069 29.2147C14.9677 29.0014 14.917 28.7427 14.917 28.4387V26.3987H14.381C14.2903 26.3987 14.221 26.3774 14.173 26.3347C14.125 26.2867 14.101 26.2227 14.101 26.1427C14.101 26.0627 14.125 26.0014 14.173 25.9587C14.221 25.916 14.2903 25.8947 14.381 25.8947H14.917V24.9747C14.917 24.868 14.9463 24.788 15.005 24.7347C15.0637 24.676 15.1437 24.6467 15.245 24.6467C15.3463 24.6467 15.4237 24.676 15.477 24.7347C15.5357 24.788 15.565 24.868 15.565 24.9747V25.8947H16.573C16.6637 25.8947 16.733 25.916 16.781 25.9587C16.829 26.0014 16.853 26.0627 16.853 26.1427C16.853 26.2227 16.829 26.2867 16.781 26.3347C16.733 26.3774 16.6637 26.3987 16.573 26.3987H15.565V28.3747C15.565 28.6787 15.629 28.9107 15.757 29.0707C15.885 29.2254 16.093 29.3027 16.381 29.3027C16.4823 29.3027 16.5677 29.292 16.637 29.2707C16.7117 29.2494 16.773 29.2387 16.821 29.2387C16.869 29.2334 16.909 29.2494 16.941 29.2867C16.973 29.324 16.989 29.388 16.989 29.4787C16.989 29.5427 16.9757 29.6014 16.949 29.6547C16.9277 29.708 16.8877 29.7454 16.829 29.7667C16.765 29.788 16.6797 29.8067 16.573 29.8227C16.4717 29.844 16.3783 29.8547 16.293 29.8547ZM18.9059 29.8547C18.5912 29.8547 18.3299 29.7987 18.1219 29.6867C17.9192 29.5694 17.7645 29.396 17.6579 29.1667C17.5565 28.9374 17.5059 28.652 17.5059 28.3107V26.1667C17.5059 26.0547 17.5325 25.972 17.5859 25.9187C17.6445 25.8654 17.7245 25.8387 17.8259 25.8387C17.9325 25.8387 18.0125 25.8654 18.0659 25.9187C18.1245 25.972 18.1539 26.0547 18.1539 26.1667V28.3027C18.1539 28.644 18.2232 28.9 18.3619 29.0707C18.5059 29.236 18.7299 29.3187 19.0339 29.3187C19.3645 29.3187 19.6339 29.2067 19.8419 28.9827C20.0499 28.7587 20.1539 28.4654 20.1539 28.1027V26.1667C20.1539 26.0547 20.1805 25.972 20.2339 25.9187C20.2925 25.8654 20.3752 25.8387 20.4819 25.8387C20.5832 25.8387 20.6605 25.8654 20.7139 25.9187C20.7725 25.972 20.8019 26.0547 20.8019 26.1667V29.5027C20.8019 29.7267 20.6979 29.8387 20.4899 29.8387C20.3885 29.8387 20.3085 29.8094 20.2499 29.7507C20.1965 29.692 20.1699 29.6094 20.1699 29.5027V28.7747L20.2739 28.8867C20.1672 29.2014 19.9912 29.4414 19.7459 29.6067C19.5059 29.772 19.2259 29.8547 18.9059 29.8547ZM22.3423 29.8387C22.2356 29.8387 22.1529 29.8094 22.0943 29.7507C22.0409 29.692 22.0143 29.6094 22.0143 29.5027V26.1667C22.0143 26.06 22.0409 25.98 22.0943 25.9267C22.1476 25.868 22.2249 25.8387 22.3263 25.8387C22.4276 25.8387 22.5049 25.868 22.5583 25.9267C22.6169 25.98 22.6463 26.06 22.6463 26.1667V26.8147H22.5663C22.6516 26.5 22.8143 26.2574 23.0543 26.0867C23.2943 25.916 23.5903 25.8254 23.9423 25.8147C24.0223 25.8094 24.0863 25.828 24.1343 25.8707C24.1823 25.908 24.2089 25.9747 24.2143 26.0707C24.2196 26.1614 24.1983 26.2334 24.1503 26.2867C24.1023 26.34 24.0276 26.372 23.9263 26.3827L23.7983 26.3987C23.4356 26.4307 23.1556 26.548 22.9583 26.7507C22.7663 26.948 22.6703 27.22 22.6703 27.5667V29.5027C22.6703 29.6094 22.6409 29.692 22.5822 29.7507C22.5289 29.8094 22.4489 29.8387 22.3423 29.8387ZM26.5866 29.8547C26.1759 29.8547 25.8212 29.7747 25.5226 29.6147C25.2292 29.4494 24.9999 29.2174 24.8346 28.9187C24.6746 28.62 24.5946 28.2627 24.5946 27.8467C24.5946 27.4414 24.6746 27.0894 24.8346 26.7907C24.9946 26.4867 25.2132 26.2494 25.4906 26.0787C25.7732 25.908 26.0986 25.8227 26.4666 25.8227C26.7279 25.8227 26.9626 25.868 27.1706 25.9587C27.3786 26.044 27.5546 26.1694 27.6986 26.3347C27.8479 26.5 27.9599 26.7 28.0346 26.9347C28.1146 27.1694 28.1546 27.4334 28.1546 27.7267C28.1546 27.812 28.1306 27.876 28.0826 27.9187C28.0346 27.956 27.9652 27.9747 27.8746 27.9747H25.0906V27.5507H27.7226L27.5946 27.6547C27.5946 27.3667 27.5519 27.124 27.4666 26.9267C27.3812 26.724 27.2559 26.5694 27.0906 26.4627C26.9306 26.356 26.7279 26.3027 26.4826 26.3027C26.2106 26.3027 25.9786 26.3667 25.7866 26.4947C25.5999 26.6174 25.4586 26.7907 25.3626 27.0147C25.2666 27.2334 25.2186 27.4894 25.2186 27.7827V27.8307C25.2186 28.3214 25.3359 28.6947 25.5706 28.9507C25.8106 29.2067 26.1492 29.3347 26.5866 29.3347C26.7679 29.3347 26.9466 29.3107 27.1226 29.2627C27.3039 29.2147 27.4799 29.1347 27.6506 29.0227C27.7252 28.9747 27.7919 28.9534 27.8506 28.9587C27.9146 28.9587 27.9652 28.9774 28.0026 29.0147C28.0399 29.0467 28.0639 29.0894 28.0746 29.1427C28.0906 29.1907 28.0852 29.244 28.0586 29.3027C28.0372 29.3614 27.9919 29.412 27.9226 29.4547C27.7466 29.5827 27.5386 29.6814 27.2986 29.7507C27.0586 29.82 26.8212 29.8547 26.5866 29.8547ZM31.6029 29.7827C31.4855 29.7827 31.3949 29.7534 31.3309 29.6947C31.2722 29.6307 31.2429 29.54 31.2429 29.4227V24.5027C31.2429 24.3854 31.2722 24.2974 31.3309 24.2387C31.3949 24.1747 31.4855 24.1427 31.6029 24.1427H33.4989C33.8882 24.1427 34.2162 24.2014 34.4829 24.3187C34.7549 24.4307 34.9629 24.596 35.1069 24.8147C35.2509 25.0334 35.3229 25.3 35.3229 25.6147C35.3229 25.9667 35.2189 26.26 35.0109 26.4947C34.8082 26.7294 34.5309 26.884 34.1789 26.9587V26.8467C34.5789 26.8947 34.8909 27.0387 35.1149 27.2787C35.3442 27.5187 35.4589 27.836 35.4589 28.2307C35.4589 28.732 35.2962 29.116 34.9709 29.3827C34.6455 29.6494 34.1869 29.7827 33.5949 29.7827H31.6029ZM31.8829 29.2547H33.5309C33.9575 29.2547 34.2775 29.1694 34.4909 28.9987C34.7042 28.828 34.8109 28.5694 34.8109 28.2227C34.8109 27.8707 34.7042 27.612 34.4909 27.4467C34.2775 27.276 33.9575 27.1907 33.5309 27.1907H31.8829V29.2547ZM31.8829 26.6627H33.4029C33.8189 26.6627 34.1335 26.5774 34.3469 26.4067C34.5655 26.236 34.6749 25.9907 34.6749 25.6707C34.6749 25.34 34.5655 25.092 34.3469 24.9267C34.1335 24.756 33.8189 24.6707 33.4029 24.6707H31.8829V26.6627ZM37.7851 29.8547C37.5185 29.8547 37.2785 29.804 37.0651 29.7027C36.8571 29.596 36.6918 29.452 36.5691 29.2707C36.4465 29.0894 36.3851 28.8867 36.3851 28.6627C36.3851 28.3747 36.4571 28.148 36.6011 27.9827C36.7505 27.8174 36.9931 27.7 37.3291 27.6307C37.6705 27.5614 38.1345 27.5267 38.7211 27.5267H39.0811V27.9507H38.7291C38.2971 27.9507 37.9558 27.972 37.7051 28.0147C37.4598 28.052 37.2865 28.1187 37.1851 28.2147C37.0891 28.3107 37.0411 28.4467 37.0411 28.6227C37.0411 28.8414 37.1158 29.02 37.2651 29.1587C37.4198 29.2974 37.6278 29.3667 37.8891 29.3667C38.1025 29.3667 38.2891 29.316 38.4491 29.2147C38.6145 29.1134 38.7425 28.9747 38.8331 28.7987C38.9291 28.6227 38.9771 28.42 38.9771 28.1907V27.2787C38.9771 26.948 38.9105 26.7107 38.7771 26.5667C38.6438 26.4174 38.4251 26.3427 38.1211 26.3427C37.9345 26.3427 37.7478 26.3667 37.5611 26.4147C37.3745 26.4627 37.1771 26.54 36.9691 26.6467C36.8945 26.684 36.8305 26.6974 36.7771 26.6867C36.7238 26.6707 36.6811 26.6414 36.6491 26.5987C36.6171 26.556 36.5985 26.508 36.5931 26.4547C36.5878 26.396 36.5985 26.34 36.6251 26.2867C36.6571 26.2334 36.7051 26.1907 36.7691 26.1587C37.0038 26.0414 37.2358 25.956 37.4651 25.9027C37.6945 25.8494 37.9131 25.8227 38.1211 25.8227C38.4571 25.8227 38.7345 25.8787 38.9531 25.9907C39.1718 26.0974 39.3345 26.2627 39.4411 26.4867C39.5478 26.7054 39.6011 26.988 39.6011 27.3347V29.5027C39.6011 29.6094 39.5745 29.692 39.5211 29.7507C39.4731 29.8094 39.4011 29.8387 39.3051 29.8387C39.2038 29.8387 39.1265 29.8094 39.0731 29.7507C39.0198 29.692 38.9931 29.6094 38.9931 29.5027V28.8787H39.0651C39.0225 29.0814 38.9398 29.2547 38.8171 29.3987C38.6998 29.5427 38.5531 29.6547 38.3771 29.7347C38.2011 29.8147 38.0038 29.8547 37.7851 29.8547ZM42.4513 29.8547C42.062 29.8547 41.726 29.7694 41.4433 29.5987C41.1606 29.428 40.942 29.1907 40.7873 28.8867C40.638 28.5774 40.5633 28.22 40.5633 27.8147C40.5633 27.5054 40.606 27.228 40.6913 26.9827C40.7766 26.7374 40.902 26.5294 41.0673 26.3587C41.2326 26.1827 41.43 26.0494 41.6593 25.9587C41.894 25.868 42.158 25.8227 42.4513 25.8227C42.6433 25.8227 42.8433 25.852 43.0513 25.9107C43.2593 25.9694 43.4486 26.0707 43.6193 26.2147C43.6726 26.252 43.7073 26.2974 43.7233 26.3507C43.7393 26.404 43.7393 26.4574 43.7233 26.5107C43.7073 26.5587 43.6806 26.6014 43.6433 26.6387C43.606 26.6707 43.558 26.6894 43.4993 26.6947C43.446 26.7 43.39 26.6814 43.3313 26.6387C43.1926 26.532 43.0513 26.4574 42.9073 26.4147C42.7633 26.372 42.6246 26.3507 42.4913 26.3507C42.2833 26.3507 42.102 26.3854 41.9473 26.4547C41.7926 26.5187 41.662 26.612 41.5553 26.7347C41.4486 26.8574 41.366 27.0094 41.3073 27.1907C41.254 27.372 41.2273 27.5827 41.2273 27.8227C41.2273 28.2867 41.3366 28.6547 41.5553 28.9267C41.774 29.1934 42.086 29.3267 42.4913 29.3267C42.6246 29.3267 42.7606 29.3054 42.8993 29.2627C43.0433 29.22 43.1873 29.1454 43.3313 29.0387C43.39 28.996 43.446 28.9774 43.4993 28.9827C43.5526 28.988 43.598 29.0094 43.6353 29.0467C43.6726 29.0787 43.6966 29.1214 43.7073 29.1747C43.7233 29.228 43.7233 29.2814 43.7073 29.3347C43.6913 29.3827 43.6566 29.4254 43.6033 29.4627C43.4326 29.6014 43.246 29.7027 43.0433 29.7667C42.8406 29.8254 42.6433 29.8547 42.4513 29.8547ZM44.8264 29.8387C44.7198 29.8387 44.6398 29.8094 44.5864 29.7507C44.5331 29.692 44.5064 29.6094 44.5064 29.5027V24.4147C44.5064 24.308 44.5331 24.228 44.5864 24.1747C44.6398 24.116 44.7198 24.0867 44.8264 24.0867C44.9278 24.0867 45.0078 24.116 45.0664 24.1747C45.1251 24.228 45.1544 24.308 45.1544 24.4147V27.6227H45.1704L46.8104 26.0547C46.8851 25.9854 46.9491 25.932 47.0024 25.8947C47.0611 25.8574 47.1384 25.8387 47.2344 25.8387C47.3198 25.8387 47.3864 25.8627 47.4344 25.9107C47.4824 25.9534 47.5038 26.0094 47.4984 26.0787C47.4984 26.1427 47.4664 26.212 47.4024 26.2867L45.6584 27.9427V27.5907L47.5544 29.3747C47.6291 29.4494 47.6664 29.5214 47.6664 29.5907C47.6664 29.66 47.6398 29.7187 47.5864 29.7667C47.5384 29.8147 47.4744 29.8387 47.3944 29.8387C47.2984 29.8387 47.2211 29.82 47.1624 29.7827C47.1038 29.74 47.0318 29.6787 46.9464 29.5987L45.1704 27.9587H45.1544V29.5027C45.1544 29.7267 45.0451 29.8387 44.8264 29.8387ZM52.4809 29.8547C52.2303 29.8547 51.9849 29.8334 51.7449 29.7907C51.5049 29.748 51.2809 29.6867 51.0729 29.6067C50.8703 29.5267 50.6863 29.4254 50.5209 29.3027C50.4569 29.2547 50.4116 29.2014 50.3849 29.1427C50.3636 29.0787 50.3583 29.0174 50.3689 28.9587C50.3849 28.8947 50.4116 28.8414 50.4489 28.7987C50.4916 28.756 50.5423 28.732 50.6009 28.7267C50.6596 28.7214 50.7236 28.74 50.7929 28.7827C51.0329 28.9534 51.2889 29.0787 51.5609 29.1587C51.8329 29.2334 52.1396 29.2707 52.4809 29.2707C52.9609 29.2707 53.3156 29.1827 53.5449 29.0067C53.7796 28.8254 53.8969 28.588 53.8969 28.2947C53.8969 28.0547 53.8116 27.868 53.6409 27.7347C53.4756 27.596 53.1956 27.4867 52.8009 27.4067L51.9689 27.2387C51.4676 27.132 51.0916 26.9587 50.8409 26.7187C50.5956 26.4734 50.4729 26.148 50.4729 25.7427C50.4729 25.492 50.5236 25.2654 50.6249 25.0627C50.7263 24.8547 50.8676 24.6787 51.0489 24.5347C51.2303 24.3854 51.4463 24.2707 51.6969 24.1907C51.9476 24.1107 52.2249 24.0707 52.5289 24.0707C52.8649 24.0707 53.1769 24.1187 53.4649 24.2147C53.7583 24.3054 54.0223 24.444 54.2569 24.6307C54.3156 24.6787 54.3556 24.7347 54.3769 24.7987C54.3983 24.8574 54.4009 24.916 54.3849 24.9747C54.3689 25.028 54.3396 25.0734 54.2969 25.1107C54.2596 25.148 54.2089 25.1694 54.1449 25.1747C54.0863 25.18 54.0196 25.1587 53.9449 25.1107C53.7316 24.9507 53.5103 24.836 53.2809 24.7667C53.0516 24.692 52.7983 24.6547 52.5209 24.6547C52.2383 24.6547 51.9929 24.6974 51.7849 24.7827C51.5823 24.868 51.4223 24.9934 51.3049 25.1587C51.1929 25.3187 51.1369 25.5054 51.1369 25.7187C51.1369 25.9747 51.2143 26.1774 51.3689 26.3267C51.5289 26.476 51.7876 26.5854 52.1449 26.6547L52.9769 26.8307C53.5156 26.9427 53.9129 27.1134 54.1689 27.3427C54.4303 27.5667 54.5609 27.8734 54.5609 28.2627C54.5609 28.4974 54.5129 28.7134 54.4169 28.9107C54.3209 29.108 54.1823 29.2787 54.0009 29.4227C53.8196 29.5614 53.6009 29.668 53.3449 29.7427C53.0889 29.8174 52.8009 29.8547 52.4809 29.8547ZM55.8108 29.8227C55.7041 29.8227 55.6241 29.7934 55.5708 29.7347C55.5175 29.6707 55.4908 29.5827 55.4908 29.4707V26.1987C55.4908 26.0867 55.5175 26.0014 55.5708 25.9427C55.6241 25.884 55.7041 25.8547 55.8108 25.8547C55.9121 25.8547 55.9921 25.884 56.0508 25.9427C56.1095 26.0014 56.1388 26.0867 56.1388 26.1987V29.4707C56.1388 29.5827 56.1095 29.6707 56.0508 29.7347C55.9975 29.7934 55.9175 29.8227 55.8108 29.8227ZM55.8108 24.9587C55.6775 24.9587 55.5735 24.924 55.4988 24.8547C55.4241 24.78 55.3868 24.6814 55.3868 24.5587C55.3868 24.4307 55.4241 24.3347 55.4988 24.2707C55.5735 24.2014 55.6775 24.1667 55.8108 24.1667C55.9495 24.1667 56.0535 24.2014 56.1228 24.2707C56.1975 24.3347 56.2348 24.4307 56.2348 24.5587C56.2348 24.6814 56.1975 24.78 56.1228 24.8547C56.0535 24.924 55.9495 24.9587 55.8108 24.9587ZM58.8302 29.8547C58.4835 29.8547 58.1795 29.772 57.9182 29.6067C57.6622 29.4414 57.4622 29.2094 57.3182 28.9107C57.1795 28.6067 57.1102 28.2494 57.1102 27.8387C57.1102 27.4227 57.1795 27.0654 57.3182 26.7667C57.4622 26.4627 57.6622 26.2307 57.9182 26.0707C58.1795 25.9054 58.4835 25.8227 58.8302 25.8227C59.1822 25.8227 59.4835 25.9107 59.7342 26.0867C59.9849 26.2627 60.1529 26.5 60.2382 26.7987H60.1502V24.4147C60.1502 24.308 60.1769 24.228 60.2302 24.1747C60.2889 24.116 60.3715 24.0867 60.4782 24.0867C60.5795 24.0867 60.6569 24.116 60.7102 24.1747C60.7689 24.228 60.7982 24.308 60.7982 24.4147V29.5027C60.7982 29.6094 60.7715 29.692 60.7182 29.7507C60.6649 29.8094 60.5849 29.8387 60.4782 29.8387C60.3769 29.8387 60.2969 29.8094 60.2382 29.7507C60.1849 29.692 60.1582 29.6094 60.1582 29.5027V28.7427L60.2462 28.8547C60.1609 29.1587 59.9902 29.4014 59.7342 29.5827C59.4835 29.764 59.1822 29.8547 58.8302 29.8547ZM58.9662 29.3347C59.2062 29.3347 59.4169 29.276 59.5982 29.1587C59.7795 29.0414 59.9182 28.8707 60.0142 28.6467C60.1155 28.4227 60.1662 28.1534 60.1662 27.8387C60.1662 27.3534 60.0569 26.9827 59.8382 26.7267C59.6249 26.4707 59.3342 26.3427 58.9662 26.3427C58.7209 26.3427 58.5075 26.4014 58.3262 26.5187C58.1502 26.6307 58.0115 26.7987 57.9102 27.0227C57.8142 27.2414 57.7662 27.5134 57.7662 27.8387C57.7662 28.3187 57.8755 28.6894 58.0942 28.9507C58.3129 29.2067 58.6035 29.3347 58.9662 29.3347ZM63.7663 29.8547C63.3556 29.8547 63.0009 29.7747 62.7023 29.6147C62.4089 29.4494 62.1796 29.2174 62.0143 28.9187C61.8543 28.62 61.7743 28.2627 61.7743 27.8467C61.7743 27.4414 61.8543 27.0894 62.0143 26.7907C62.1743 26.4867 62.3929 26.2494 62.6703 26.0787C62.9529 25.908 63.2783 25.8227 63.6463 25.8227C63.9076 25.8227 64.1423 25.868 64.3503 25.9587C64.5583 26.044 64.7343 26.1694 64.8783 26.3347C65.0276 26.5 65.1396 26.7 65.2143 26.9347C65.2943 27.1694 65.3343 27.4334 65.3343 27.7267C65.3343 27.812 65.3103 27.876 65.2623 27.9187C65.2143 27.956 65.1449 27.9747 65.0543 27.9747H62.2703V27.5507H64.9023L64.7743 27.6547C64.7743 27.3667 64.7316 27.124 64.6463 26.9267C64.5609 26.724 64.4356 26.5694 64.2703 26.4627C64.1103 26.356 63.9076 26.3027 63.6623 26.3027C63.3903 26.3027 63.1583 26.3667 62.9663 26.4947C62.7796 26.6174 62.6383 26.7907 62.5423 27.0147C62.4463 27.2334 62.3983 27.4894 62.3983 27.7827V27.8307C62.3983 28.3214 62.5156 28.6947 62.7503 28.9507C62.9903 29.2067 63.3289 29.3347 63.7663 29.3347C63.9476 29.3347 64.1263 29.3107 64.3023 29.2627C64.4836 29.2147 64.6596 29.1347 64.8303 29.0227C64.9049 28.9747 64.9716 28.9534 65.0303 28.9587C65.0943 28.9587 65.1449 28.9774 65.1823 29.0147C65.2196 29.0467 65.2436 29.0894 65.2543 29.1427C65.2703 29.1907 65.2649 29.244 65.2383 29.3027C65.2169 29.3614 65.1716 29.412 65.1023 29.4547C64.9263 29.5827 64.7183 29.6814 64.4783 29.7507C64.2383 29.82 64.0009 29.8547 63.7663 29.8547Z" fill="#ABABAB"/>
</svg>
