<svg width="20" height="20" viewBox="0 0 20 20" fill="none" xmlns="http://www.w3.org/2000/svg">
<path fill-rule="evenodd" clip-rule="evenodd" d="M17.0711 2.92891C15.1823 1.04016 12.6711 0 10 0C7.32891 0 4.8177 1.04016 2.92891 2.92891C1.04012 4.81766 0 7.32891 0 10C0 11.6702 0.418008 13.3148 1.21102 14.7731L0.0212891 19.2132C-0.00707854 19.3192 -0.00706019 19.4308 0.0213423 19.5367C0.0497447 19.6427 0.105531 19.7393 0.183097 19.8169C0.260662 19.8944 0.357276 19.9502 0.463231 19.9786C0.569186 20.007 0.680751 20.0071 0.786719 19.9787L5.2268 18.789C6.68512 19.582 8.32961 20 10 20C12.6711 20 15.1823 18.9598 17.0711 17.0711C18.9599 15.1823 20 12.6711 20 10C20 7.32891 18.9598 4.8177 17.0711 2.92891ZM10 18.75C8.46109 18.75 6.94785 18.3449 5.62387 17.5786C5.55273 17.5374 5.47418 17.5107 5.3927 17.4999C5.31122 17.4891 5.22841 17.4945 5.14902 17.5158L1.50887 18.4911L2.48422 14.851C2.50549 14.7716 2.51089 14.6888 2.50012 14.6073C2.48935 14.5258 2.46261 14.4473 2.42145 14.3762C1.65508 13.052 1.25 11.5388 1.25 10C1.25 5.17523 5.17523 1.25 10 1.25C14.8248 1.25 18.75 5.17523 18.75 10C18.75 14.8248 14.8248 18.75 10 18.75ZM6.56742 10C6.56742 10.5379 6.12871 10.9766 5.59086 10.9766C5.05297 10.9766 4.6143 10.5379 4.6143 10C4.6143 9.46215 5.05301 9.02344 5.59086 9.02344C6.12871 9.02344 6.56742 9.46211 6.56742 10ZM10.9766 10C10.9766 10.5379 10.5379 10.9766 10 10.9766C9.46215 10.9766 9.02344 10.5379 9.02344 10C9.02344 9.46215 9.46215 9.02344 10 9.02344C10.5379 9.02344 10.9766 9.46211 10.9766 10ZM15.3858 10C15.3858 10.5379 14.9471 10.9766 14.4092 10.9766C13.8713 10.9766 13.4327 10.5379 13.4327 10C13.4327 9.46215 13.8714 9.02344 14.4092 9.02344C14.9471 9.02344 15.3858 9.46211 15.3858 10Z" fill="#585858"/>
</svg>
