<svg width="398" height="52" viewBox="0 0 398 52" fill="none" xmlns="http://www.w3.org/2000/svg">
<rect x="0.5" y="0.5" width="397" height="51" rx="11.5" stroke="url(#paint0_linear_9640_2135)"/>
<path d="M154.291 33.18C152.757 33.18 151.464 32.8933 150.411 32.32C149.357 31.7333 148.557 30.9 148.011 29.82C147.477 28.74 147.211 27.4533 147.211 25.96C147.211 24.84 147.364 23.84 147.671 22.96C147.991 22.0667 148.444 21.3067 149.031 20.68C149.631 20.04 150.357 19.5533 151.211 19.22C152.077 18.8867 153.057 18.72 154.151 18.72C154.951 18.72 155.737 18.8267 156.511 19.04C157.284 19.24 157.991 19.5733 158.631 20.04C158.817 20.1733 158.937 20.3267 158.991 20.5C159.044 20.6733 159.044 20.8533 158.991 21.04C158.951 21.2133 158.864 21.3667 158.731 21.5C158.611 21.6333 158.457 21.7133 158.271 21.74C158.097 21.7667 157.904 21.7133 157.691 21.58C157.171 21.22 156.624 20.96 156.051 20.8C155.477 20.6267 154.844 20.54 154.151 20.54C153.111 20.54 152.231 20.7533 151.511 21.18C150.804 21.6067 150.271 22.2267 149.911 23.04C149.551 23.84 149.371 24.8133 149.371 25.96C149.371 27.7333 149.791 29.08 150.631 30C151.471 30.92 152.717 31.38 154.371 31.38C154.971 31.38 155.557 31.3267 156.131 31.22C156.717 31.1 157.277 30.9333 157.811 30.72L157.391 31.76V27.1H154.811C154.544 27.1 154.331 27.0333 154.171 26.9C154.024 26.7533 153.951 26.5533 153.951 26.3C153.951 26.0467 154.024 25.86 154.171 25.74C154.331 25.6067 154.544 25.54 154.811 25.54H158.271C158.551 25.54 158.764 25.6133 158.911 25.76C159.057 25.9067 159.131 26.12 159.131 26.4V31.44C159.131 31.68 159.084 31.8867 158.991 32.06C158.911 32.22 158.771 32.34 158.571 32.42C157.997 32.6467 157.324 32.8333 156.551 32.98C155.777 33.1133 155.024 33.18 154.291 33.18ZM166.34 33.18C165.353 33.18 164.5 32.9733 163.78 32.56C163.073 32.1467 162.52 31.56 162.12 30.8C161.72 30.04 161.52 29.1467 161.52 28.12C161.52 27.3333 161.633 26.6333 161.86 26.02C162.086 25.4067 162.406 24.88 162.82 24.44C163.246 23.9867 163.753 23.6467 164.34 23.42C164.94 23.18 165.606 23.06 166.34 23.06C167.313 23.06 168.153 23.2667 168.86 23.68C169.58 24.0933 170.14 24.68 170.54 25.44C170.94 26.1867 171.14 27.08 171.14 28.12C171.14 28.8933 171.026 29.5933 170.8 30.22C170.573 30.8467 170.246 31.38 169.82 31.82C169.406 32.26 168.9 32.6 168.3 32.84C167.713 33.0667 167.06 33.18 166.34 33.18ZM166.34 31.62C166.886 31.62 167.366 31.4867 167.78 31.22C168.193 30.9533 168.513 30.56 168.74 30.04C168.98 29.52 169.1 28.88 169.1 28.12C169.1 26.9733 168.846 26.1067 168.34 25.52C167.833 24.9333 167.166 24.64 166.34 24.64C165.78 24.64 165.293 24.7733 164.88 25.04C164.466 25.2933 164.14 25.68 163.9 26.2C163.673 26.72 163.56 27.36 163.56 28.12C163.56 29.2533 163.813 30.12 164.32 30.72C164.826 31.32 165.5 31.62 166.34 31.62ZM182.842 33.18C182.042 33.18 181.368 33.04 180.822 32.76C180.275 32.48 179.868 32.0667 179.602 31.52C179.335 30.9733 179.202 30.3067 179.202 29.52V24.8H178.002C177.735 24.8 177.528 24.7333 177.382 24.6C177.235 24.4533 177.162 24.26 177.162 24.02C177.162 23.7667 177.235 23.5733 177.382 23.44C177.528 23.3067 177.735 23.24 178.002 23.24H179.202V21.18C179.202 20.8467 179.288 20.5933 179.462 20.42C179.648 20.2467 179.902 20.16 180.222 20.16C180.542 20.16 180.788 20.2467 180.962 20.42C181.135 20.5933 181.222 20.8467 181.222 21.18V23.24H183.562C183.828 23.24 184.035 23.3067 184.182 23.44C184.328 23.5733 184.402 23.7667 184.402 24.02C184.402 24.26 184.328 24.4533 184.182 24.6C184.035 24.7333 183.828 24.8 183.562 24.8H181.222V29.36C181.222 30.0667 181.368 30.6 181.662 30.96C181.968 31.32 182.462 31.5 183.142 31.5C183.382 31.5 183.588 31.48 183.762 31.44C183.948 31.3867 184.102 31.3533 184.222 31.34C184.368 31.34 184.488 31.3933 184.582 31.5C184.675 31.5933 184.722 31.78 184.722 32.06C184.722 32.26 184.682 32.4467 184.602 32.62C184.535 32.7933 184.408 32.9067 184.222 32.96C184.062 33.0133 183.842 33.06 183.562 33.1C183.295 33.1533 183.055 33.18 182.842 33.18ZM190.129 33.18C189.142 33.18 188.289 32.9733 187.569 32.56C186.862 32.1467 186.309 31.56 185.909 30.8C185.509 30.04 185.309 29.1467 185.309 28.12C185.309 27.3333 185.422 26.6333 185.649 26.02C185.875 25.4067 186.195 24.88 186.609 24.44C187.035 23.9867 187.542 23.6467 188.129 23.42C188.729 23.18 189.395 23.06 190.129 23.06C191.102 23.06 191.942 23.2667 192.649 23.68C193.369 24.0933 193.929 24.68 194.329 25.44C194.729 26.1867 194.929 27.08 194.929 28.12C194.929 28.8933 194.815 29.5933 194.589 30.22C194.362 30.8467 194.035 31.38 193.609 31.82C193.195 32.26 192.689 32.6 192.089 32.84C191.502 33.0667 190.849 33.18 190.129 33.18ZM190.129 31.62C190.675 31.62 191.155 31.4867 191.569 31.22C191.982 30.9533 192.302 30.56 192.529 30.04C192.769 29.52 192.889 28.88 192.889 28.12C192.889 26.9733 192.635 26.1067 192.129 25.52C191.622 24.9333 190.955 24.64 190.129 24.64C189.569 24.64 189.082 24.7733 188.669 25.04C188.255 25.2933 187.929 25.68 187.689 26.2C187.462 26.72 187.349 27.36 187.349 28.12C187.349 29.2533 187.602 30.12 188.109 30.72C188.615 31.32 189.289 31.62 190.129 31.62ZM203.471 33.14C203.151 33.14 202.904 33.0533 202.731 32.88C202.557 32.6933 202.471 32.44 202.471 32.12V19.78C202.471 19.4467 202.557 19.1933 202.731 19.02C202.904 18.8467 203.151 18.76 203.471 18.76C203.791 18.76 204.037 18.8467 204.211 19.02C204.397 19.1933 204.491 19.4467 204.491 19.78V25.32H204.211C204.504 24.5733 204.964 24.0133 205.591 23.64C206.217 23.2533 206.937 23.06 207.751 23.06C208.524 23.06 209.164 23.2067 209.671 23.5C210.191 23.78 210.577 24.2133 210.831 24.8C211.084 25.3733 211.211 26.1 211.211 26.98V32.12C211.211 32.44 211.124 32.6933 210.951 32.88C210.777 33.0533 210.531 33.14 210.211 33.14C209.877 33.14 209.624 33.0533 209.451 32.88C209.277 32.6933 209.191 32.44 209.191 32.12V27.1C209.191 26.26 209.024 25.6467 208.691 25.26C208.371 24.8733 207.864 24.68 207.171 24.68C206.357 24.68 205.704 24.9333 205.211 25.44C204.731 25.9467 204.491 26.6267 204.491 27.48V32.12C204.491 32.8 204.151 33.14 203.471 33.14ZM218.234 33.18C217.248 33.18 216.394 32.9733 215.674 32.56C214.968 32.1467 214.414 31.56 214.014 30.8C213.614 30.04 213.414 29.1467 213.414 28.12C213.414 27.3333 213.528 26.6333 213.754 26.02C213.981 25.4067 214.301 24.88 214.714 24.44C215.141 23.9867 215.648 23.6467 216.234 23.42C216.834 23.18 217.501 23.06 218.234 23.06C219.208 23.06 220.048 23.2667 220.754 23.68C221.474 24.0933 222.034 24.68 222.434 25.44C222.834 26.1867 223.034 27.08 223.034 28.12C223.034 28.8933 222.921 29.5933 222.694 30.22C222.468 30.8467 222.141 31.38 221.714 31.82C221.301 32.26 220.794 32.6 220.194 32.84C219.608 33.0667 218.954 33.18 218.234 33.18ZM218.234 31.62C218.781 31.62 219.261 31.4867 219.674 31.22C220.088 30.9533 220.408 30.56 220.634 30.04C220.874 29.52 220.994 28.88 220.994 28.12C220.994 26.9733 220.741 26.1067 220.234 25.52C219.728 24.9333 219.061 24.64 218.234 24.64C217.674 24.64 217.188 24.7733 216.774 25.04C216.361 25.2933 216.034 25.68 215.794 26.2C215.568 26.72 215.454 27.36 215.454 28.12C215.454 29.2533 215.708 30.12 216.214 30.72C216.721 31.32 217.394 31.62 218.234 31.62ZM226.343 33.14C226.023 33.14 225.776 33.0533 225.603 32.88C225.429 32.6933 225.343 32.44 225.343 32.12V24.12C225.343 23.7867 225.429 23.5333 225.603 23.36C225.776 23.1867 226.016 23.1 226.323 23.1C226.643 23.1 226.883 23.1867 227.043 23.36C227.216 23.5333 227.303 23.7867 227.303 24.12V25.76L227.083 25.32C227.349 24.6133 227.763 24.06 228.323 23.66C228.883 23.26 229.556 23.06 230.343 23.06C231.156 23.06 231.816 23.2533 232.323 23.64C232.829 24.0267 233.176 24.62 233.363 25.42H233.083C233.336 24.6867 233.769 24.1133 234.383 23.7C234.996 23.2733 235.709 23.06 236.523 23.06C237.269 23.06 237.883 23.2067 238.363 23.5C238.843 23.78 239.203 24.2133 239.443 24.8C239.683 25.3733 239.803 26.1 239.803 26.98V32.12C239.803 32.44 239.709 32.6933 239.523 32.88C239.349 33.0533 239.103 33.14 238.783 33.14C238.463 33.14 238.216 33.0533 238.043 32.88C237.869 32.6933 237.783 32.44 237.783 32.12V27.08C237.783 26.2533 237.636 25.6467 237.343 25.26C237.063 24.8733 236.596 24.68 235.943 24.68C235.209 24.68 234.629 24.9333 234.203 25.44C233.776 25.9467 233.563 26.6467 233.563 27.54V32.12C233.563 32.44 233.476 32.6933 233.303 32.88C233.129 33.0533 232.883 33.14 232.563 33.14C232.243 33.14 231.989 33.0533 231.803 32.88C231.629 32.6933 231.543 32.44 231.543 32.12V27.08C231.543 26.2533 231.403 25.6467 231.123 25.26C230.843 24.8733 230.376 24.68 229.723 24.68C228.989 24.68 228.409 24.9333 227.983 25.44C227.569 25.9467 227.363 26.6467 227.363 27.54V32.12C227.363 32.8 227.023 33.14 226.343 33.14ZM247.207 33.18C246.14 33.18 245.22 32.98 244.447 32.58C243.687 32.1667 243.094 31.5867 242.667 30.84C242.254 30.08 242.047 29.18 242.047 28.14C242.047 27.1267 242.254 26.24 242.667 25.48C243.08 24.72 243.647 24.1267 244.367 23.7C245.087 23.2733 245.907 23.06 246.827 23.06C247.507 23.06 248.114 23.1733 248.647 23.4C249.18 23.6133 249.634 23.9333 250.007 24.36C250.394 24.7733 250.68 25.28 250.867 25.88C251.067 26.48 251.167 27.1533 251.167 27.9C251.167 28.1267 251.1 28.3 250.967 28.42C250.834 28.5267 250.634 28.58 250.367 28.58H243.647V27.34H249.807L249.467 27.62C249.467 26.9533 249.367 26.3867 249.167 25.92C248.98 25.4533 248.694 25.1 248.307 24.86C247.934 24.6067 247.467 24.48 246.907 24.48C246.28 24.48 245.747 24.6267 245.307 24.92C244.88 25.2133 244.554 25.62 244.327 26.14C244.1 26.66 243.987 27.2667 243.987 27.96V28.08C243.987 29.2533 244.26 30.14 244.807 30.74C245.367 31.3267 246.174 31.62 247.227 31.62C247.627 31.62 248.047 31.5667 248.487 31.46C248.94 31.3533 249.367 31.1733 249.767 30.92C249.994 30.7867 250.194 30.7267 250.367 30.74C250.554 30.7533 250.7 30.8133 250.807 30.92C250.927 31.0267 251 31.16 251.027 31.32C251.054 31.48 251.027 31.6467 250.947 31.82C250.867 31.98 250.727 32.1267 250.527 32.26C250.074 32.5667 249.547 32.8 248.947 32.96C248.347 33.1067 247.767 33.18 247.207 33.18Z" fill="url(#paint1_linear_9640_2135)"/>
<defs>
<linearGradient id="paint0_linear_9640_2135" x1="0" y1="26" x2="398" y2="26" gradientUnits="userSpaceOnUse">
<stop stop-color="#DDCC94"/>
<stop offset="1" stop-color="#8F7F5E"/>
</linearGradient>
<linearGradient id="paint1_linear_9640_2135" x1="146" y1="26" x2="252" y2="26" gradientUnits="userSpaceOnUse">
<stop stop-color="#DDCC94"/>
<stop offset="1" stop-color="#8F7F5E"/>
</linearGradient>
</defs>
</svg>
