<svg width="20" height="20" viewBox="0 0 20 20" fill="none" xmlns="http://www.w3.org/2000/svg">
<path d="M1.95312 9.84375V19.0622C1.95312 19.1451 1.98605 19.2246 2.04465 19.2832C2.10326 19.3418 2.18274 19.3747 2.26562 19.3747H17.7337C17.8166 19.3747 17.8961 19.3418 17.9547 19.2832C18.0133 19.2246 18.0462 19.1451 18.0462 19.0622V9.84375C18.0462 9.76087 18.0133 9.68138 17.9547 9.62278C17.8961 9.56417 17.8166 9.53125 17.7337 9.53125H2.26562C2.18274 9.53125 2.10326 9.56417 2.04465 9.62278C1.98605 9.68138 1.95312 9.76087 1.95312 9.84375ZM2.57813 10.1562H17.4212V18.7497H2.57813V10.1562Z" fill="#DBDBDB"/>
<path d="M16.667 11.698C16.4582 11.6977 16.2579 11.6146 16.1102 11.4669C15.9625 11.3193 15.8795 11.119 15.8792 10.9102C15.8792 10.8273 15.8463 10.7478 15.7877 10.6892C15.7291 10.6306 15.6496 10.5977 15.5667 10.5977H4.43234C4.34946 10.5977 4.26998 10.6306 4.21137 10.6892C4.15277 10.7478 4.11984 10.8273 4.11984 10.9102C4.1196 11.119 4.03651 11.3193 3.88883 11.4669C3.74114 11.6146 3.5409 11.6977 3.33203 11.698C3.24915 11.698 3.16967 11.7309 3.11106 11.7895C3.05246 11.8481 3.01953 11.9276 3.01953 12.0105V16.8948C3.01953 16.9777 3.05246 17.0572 3.11106 17.1158C3.16967 17.1744 3.24915 17.2073 3.33203 17.2073C3.5409 17.2076 3.74114 17.2907 3.88883 17.4384C4.03651 17.5861 4.1196 17.7863 4.11984 17.9952C4.11984 18.078 4.15277 18.1575 4.21137 18.2161C4.26998 18.2747 4.34946 18.3077 4.43234 18.3077H15.5667C15.6496 18.3077 15.7291 18.2747 15.7877 18.2161C15.8463 18.1575 15.8792 18.078 15.8792 17.9952C15.8795 17.7863 15.9625 17.5861 16.1102 17.4384C16.2579 17.2907 16.4582 17.2076 16.667 17.2073C16.7499 17.2073 16.8294 17.1744 16.888 17.1158C16.9466 17.0572 16.9795 16.9777 16.9795 16.8948V12.0105C16.9795 11.9276 16.9466 11.8481 16.888 11.7895C16.8294 11.7309 16.7499 11.698 16.667 11.698ZM16.3545 16.6173C16.0948 16.6769 15.8571 16.8085 15.6686 16.997C15.4802 17.1854 15.3487 17.4232 15.2892 17.683H4.70984C4.65028 17.4232 4.51876 17.1855 4.33035 16.997C4.14194 16.8086 3.90426 16.677 3.64453 16.6173V12.2883C3.90427 12.2288 4.14197 12.0973 4.3304 11.9088C4.51882 11.7204 4.65033 11.4827 4.70984 11.223H15.2892C15.3487 11.4827 15.4802 11.7204 15.6687 11.9088C15.8571 12.0973 16.0948 12.2288 16.3545 12.2883V16.6173Z" fill="#DBDBDB"/>
<path d="M9.99883 11.5898C8.42008 11.5898 7.1357 12.8742 7.1357 14.4533C7.1357 16.0323 8.42008 17.3167 9.99883 17.3167C11.5776 17.3167 12.862 16.0323 12.862 14.4533C12.862 12.8742 11.5776 11.5898 9.99883 11.5898ZM9.99883 16.6914C8.76477 16.6914 7.7607 15.6873 7.7607 14.453C7.7607 13.2186 8.76477 12.2145 9.99883 12.2145C11.2329 12.2145 12.237 13.2186 12.237 14.453C12.237 15.6873 11.2329 16.6914 9.99883 16.6914ZM14.6829 14.1405H13.9085C13.8256 14.1405 13.7462 14.1734 13.6875 14.232C13.6289 14.2906 13.596 14.3701 13.596 14.453C13.596 14.5358 13.6289 14.6153 13.6875 14.6739C13.7462 14.7325 13.8256 14.7655 13.9085 14.7655H14.6829C14.7658 14.7655 14.8453 14.7325 14.9039 14.6739C14.9625 14.6153 14.9954 14.5358 14.9954 14.453C14.9954 14.3701 14.9625 14.2906 14.9039 14.232C14.8453 14.1734 14.7658 14.1405 14.6829 14.1405ZM6.08883 14.1405H5.31445C5.23157 14.1405 5.15209 14.1734 5.09348 14.232C5.03488 14.2906 5.00195 14.3701 5.00195 14.453C5.00195 14.5358 5.03488 14.6153 5.09348 14.6739C5.15209 14.7325 5.23157 14.7655 5.31445 14.7655H6.08883C6.17171 14.7655 6.25119 14.7325 6.3098 14.6739C6.3684 14.6153 6.40133 14.5358 6.40133 14.453C6.40133 14.3701 6.3684 14.2906 6.3098 14.232C6.25119 14.1734 6.17171 14.1405 6.08883 14.1405Z" fill="#DBDBDB"/>
<path d="M9.54526 13.5553H9.99432C9.99651 13.5553 9.99807 13.5566 10.0003 13.5566C10.0024 13.5566 10.004 13.5553 10.0062 13.5553H10.4559C10.5443 13.5553 10.6165 13.6272 10.6165 13.7159C10.6165 13.7988 10.6494 13.8783 10.708 13.9369C10.7666 13.9955 10.8461 14.0284 10.929 14.0284C11.0119 14.0284 11.0914 13.9955 11.15 13.9369C11.2086 13.8783 11.2415 13.7988 11.2415 13.7159C11.2413 13.5077 11.1584 13.308 11.0111 13.1607C10.8639 13.0134 10.6642 12.9306 10.4559 12.9303H10.3128V12.7756C10.3128 12.6927 10.2798 12.6133 10.2212 12.5547C10.1626 12.496 10.0831 12.4631 10.0003 12.4631C9.91738 12.4631 9.83789 12.496 9.77929 12.5547C9.72068 12.6133 9.68776 12.6927 9.68776 12.7756V12.9303H9.54526C9.33697 12.9306 9.13729 13.0134 8.99001 13.1607C8.84273 13.308 8.75988 13.5077 8.75963 13.7159V13.9787C8.75988 14.187 8.84273 14.3867 8.99001 14.534C9.13729 14.6813 9.33697 14.7641 9.54526 14.7644H10.4559C10.5443 14.7644 10.6165 14.8362 10.6165 14.925V15.1878C10.6165 15.2766 10.5446 15.3484 10.4559 15.3484H9.54526C9.50266 15.3484 9.4618 15.3315 9.43168 15.3014C9.40156 15.2713 9.38463 15.2304 9.38463 15.1878C9.38463 15.1049 9.35171 15.0254 9.2931 14.9668C9.2345 14.9082 9.15501 14.8753 9.07213 14.8753C8.98925 14.8753 8.90977 14.9082 8.85116 14.9668C8.79256 15.0254 8.75963 15.1049 8.75963 15.1878C8.75988 15.3961 8.84273 15.5958 8.99001 15.7431C9.13729 15.8903 9.33697 15.9732 9.54526 15.9734H9.68776V16.1306C9.68776 16.1717 9.69584 16.2123 9.71155 16.2502C9.72725 16.2881 9.75027 16.3226 9.77929 16.3516C9.80831 16.3806 9.84276 16.4036 9.88067 16.4193C9.91858 16.435 9.95922 16.4431 10.0003 16.4431C10.0413 16.4431 10.0819 16.435 10.1198 16.4193C10.1578 16.4036 10.1922 16.3806 10.2212 16.3516C10.2502 16.3226 10.2733 16.2881 10.289 16.2502C10.3047 16.2123 10.3128 16.1717 10.3128 16.1306V15.9734H10.4559C10.6642 15.9732 10.8639 15.8903 11.0111 15.7431C11.1584 15.5958 11.2413 15.3961 11.2415 15.1878V14.925C11.2413 14.7167 11.1584 14.517 11.0111 14.3698C10.8639 14.2225 10.6642 14.1396 10.4559 14.1394H9.54526C9.50266 14.1394 9.4618 14.1225 9.43168 14.0923C9.40156 14.0622 9.38463 14.0213 9.38463 13.9787V13.7159C9.38463 13.6272 9.45651 13.5553 9.54526 13.5553ZM4.94276 8.97375H7.57307C7.65595 8.97375 7.73544 8.94083 7.79404 8.88222C7.85265 8.82362 7.88557 8.74413 7.88557 8.66125V4.38156H9.24026C9.30146 4.38172 9.36136 4.36388 9.41251 4.33027C9.46366 4.29666 9.5038 4.24876 9.52794 4.19252C9.55208 4.13628 9.55916 4.07418 9.54829 4.01395C9.53742 3.95372 9.50909 3.89801 9.46682 3.85375L6.48432 0.722188C6.36588 0.598438 6.14995 0.598438 6.03151 0.722188L3.04932 3.85375C3.00705 3.89801 2.97872 3.95372 2.96785 4.01395C2.95698 4.07418 2.96406 4.13628 2.9882 4.19252C3.01234 4.24876 3.05248 4.29666 3.10363 4.33027C3.15478 4.36388 3.21468 4.38172 3.27588 4.38156H4.63057V8.66125C4.63057 8.74413 4.66349 8.82362 4.7221 8.88222C4.78071 8.94083 4.86019 8.97375 4.94307 8.97375H4.94276ZM4.00463 3.75656L6.25776 1.39062L8.5112 3.75656H7.57307C7.49019 3.75656 7.41071 3.78949 7.3521 3.84809C7.29349 3.9067 7.26057 3.98618 7.26057 4.06906V8.34875H5.25526V4.06906C5.25526 3.98618 5.22233 3.9067 5.16373 3.84809C5.10512 3.78949 5.02564 3.75656 4.94276 3.75656H4.00463ZM15.0574 0.625H12.4271C12.3443 0.625 12.2648 0.657924 12.2062 0.716529C12.1476 0.775134 12.1146 0.85462 12.1146 0.9375V5.2175H10.7599C10.6988 5.2174 10.6389 5.23528 10.5878 5.26892C10.5367 5.30255 10.4966 5.35046 10.4725 5.40669C10.4484 5.46292 10.4414 5.52499 10.4522 5.58519C10.4631 5.64539 10.4914 5.70107 10.5337 5.74531L13.5162 8.87687C13.5454 8.90756 13.5805 8.93198 13.6194 8.94868C13.6583 8.96537 13.7003 8.97398 13.7426 8.97398C13.785 8.97398 13.8269 8.96537 13.8658 8.94868C13.9047 8.93198 13.9398 8.90756 13.969 8.87687L16.9512 5.74531C16.9935 5.70105 17.0218 5.64535 17.0327 5.58511C17.0435 5.52488 17.0365 5.46279 17.0123 5.40655C16.9882 5.35031 16.948 5.3024 16.8969 5.26879C16.8457 5.23518 16.7858 5.21734 16.7246 5.2175H15.3699V0.9375C15.3699 0.85462 15.337 0.775134 15.2784 0.716529C15.2198 0.657924 15.1403 0.625 15.0574 0.625ZM15.9956 5.8425L13.7424 8.20813L11.489 5.8425H12.4271C12.51 5.8425 12.5895 5.80958 12.6481 5.75097C12.7067 5.69237 12.7396 5.61288 12.7396 5.53V1.25H14.7449V5.53C14.7449 5.61288 14.7779 5.69237 14.8365 5.75097C14.8951 5.80958 14.9746 5.8425 15.0574 5.8425H15.9956Z" fill="#DBDBDB"/>
</svg>
