<svg width="52" height="52" viewBox="0 0 52 52" fill="none" xmlns="http://www.w3.org/2000/svg">
<rect width="52" height="52" rx="26" fill="white"/>
<g clip-path="url(#clip0_10094_2845)">
<path d="M41.2268 26.3863C41.2268 35.0093 34.2366 41.9998 25.6135 41.9998C16.9904 41.9998 10 35.0093 10 26.3863C10 17.7633 16.9905 10.7729 25.6135 10.7729C34.2365 10.7729 41.2269 17.7633 41.2269 26.3863H41.2268Z" fill="#FDD33A"/>
<path d="M25.7833 22.0479H17.9121C14.3201 22.0479 11.4082 24.9597 11.4082 28.5517C11.4082 31.1501 12.9321 33.3925 15.1348 34.4343C16.0193 34.8528 16.5866 35.7399 16.5866 36.7185V38.1137C16.5866 38.6443 17.2723 38.8557 17.5708 38.4175L19.1116 36.1577C19.3432 35.8181 19.6542 35.5402 20.0175 35.3481C20.3809 35.1561 20.7857 35.0557 21.1968 35.0557H25.7832C29.3753 35.0557 32.2871 32.1438 32.2871 28.5517C32.2869 24.9597 29.375 22.0479 25.7832 22.0479H25.7833Z" fill="#F8FAFD"/>
<path d="M17.6201 34.4344C15.4175 33.3925 13.8936 31.1501 13.8936 28.5517C13.8936 24.9597 16.8055 22.0479 20.3975 22.0479H17.9121C14.3201 22.0479 11.4082 24.9597 11.4082 28.5517C11.4082 31.1501 12.9319 33.3925 15.1345 34.4343C16.0193 34.8528 16.5864 35.7399 16.5864 36.7185V38.1137C16.5864 38.6443 17.272 38.8557 17.5708 38.4175L19.031 36.2756C18.9596 35.8785 18.7944 35.5041 18.5489 35.1838C18.3035 34.8635 17.9851 34.6066 17.6201 34.4344Z" fill="#DDDDDD"/>
<path d="M18.6472 28.6758C18.6472 29.3389 18.1098 29.8765 17.4468 29.8765C16.7837 29.8765 16.2461 29.3389 16.2461 28.6758C16.2461 28.0128 16.7837 27.4751 17.4467 27.4751C18.1098 27.4751 18.6472 28.0127 18.6472 28.6758ZM23.0498 28.6758C23.0498 29.3389 22.5122 29.8765 21.8492 29.8765C21.186 29.8765 20.6484 29.3389 20.6484 28.6758C20.6484 28.0128 21.186 27.4751 21.8491 27.4751C22.5122 27.4751 23.0498 28.0127 23.0498 28.6758ZM27.4522 28.6758C27.4522 29.3389 26.9145 29.8765 26.2515 29.8765C25.5883 29.8765 25.0508 29.3389 25.0508 28.6758C25.0508 28.0128 25.5883 27.4751 26.2514 27.4751C26.9145 27.4751 27.4522 28.0127 27.4522 28.6758Z" fill="#7956BA"/>
<path d="M25.3926 10H33.2634C36.8554 10 39.7673 12.9119 39.7673 16.5039C39.7673 19.1023 38.2436 21.3445 36.041 22.3864C35.1562 22.8049 34.5891 23.6921 34.5891 24.6706V26.0659C34.5891 26.5962 33.9035 26.8078 33.6047 26.3697L32.0639 24.1096C31.8324 23.77 31.5214 23.4921 31.158 23.3001C30.7946 23.1081 30.3898 23.0077 29.9787 23.0078H25.3925C21.8005 23.0078 18.8887 20.0959 18.8887 16.5039C18.8887 12.9118 21.8006 10 25.3926 10Z" fill="#F84E82"/>
<path d="M32.6555 22.1792H28.0691C24.4771 22.1792 21.5652 19.2671 21.5652 15.6753C21.5652 13.3074 22.8309 11.2352 24.7224 10.0977C21.4454 10.4332 18.8887 13.2017 18.8887 16.5674C18.8887 20.1595 21.8005 23.0713 25.3926 23.0713H29.979C30.39 23.0713 30.7948 23.1717 31.1582 23.3638C31.5216 23.5558 31.8325 23.8337 32.064 24.1733L33.6048 26.4332C33.9035 26.8713 34.5892 26.6599 34.5892 26.1294V24.7342C34.5892 24.309 34.6972 23.8909 34.9029 23.5188L34.7405 23.2813C34.509 22.9416 34.1981 22.6637 33.8347 22.4716C33.4713 22.2796 33.0666 22.1792 32.6555 22.1792Z" fill="#DD3A71"/>
<path d="M34.9309 16.6284C34.9309 17.2915 34.3934 17.8291 33.7303 17.8291C33.0672 17.8291 32.5295 17.2915 32.5295 16.6284C32.5295 15.9654 33.0672 15.4277 33.7302 15.4277C34.3934 15.4277 34.9309 15.9653 34.9309 16.6284ZM30.5284 16.6284C30.5284 17.2915 29.991 17.8291 29.3279 17.8291C28.6648 17.8291 28.1272 17.2915 28.1272 16.6284C28.1272 15.9654 28.6648 15.4277 29.3279 15.4277C29.991 15.4277 30.5284 15.9653 30.5284 16.6284ZM26.126 16.6284C26.126 17.2915 25.5884 17.8291 24.9254 17.8291C24.2623 17.8291 23.7246 17.2915 23.7246 16.6284C23.7246 15.9654 24.2622 15.4277 24.9253 15.4277C25.5884 15.4277 26.126 15.9653 26.126 16.6284Z" fill="#F8FAFD"/>
</g>
<defs>
<clipPath id="clip0_10094_2845">
<rect width="32" height="32" fill="white" transform="translate(10 10)"/>
</clipPath>
</defs>
</svg>
