<svg width="20" height="20" viewBox="0 0 20 20" fill="none" xmlns="http://www.w3.org/2000/svg">
<g clip-path="url(#clip0_19_398)">
<path d="M16.1037 10.2647V8.41833C16.1037 5.7248 14.3133 3.44185 11.8602 2.6962V1.86023C11.8602 0.903022 11.0814 0.124268 10.1242 0.124268C9.16702 0.124268 8.38827 0.903022 8.38827 1.86023V2.6962C5.93516 3.44185 4.1448 5.72476 4.1448 8.41833V10.2647C4.1448 12.6307 3.24294 14.8742 1.60539 16.5819C1.52687 16.6638 1.47414 16.7669 1.45376 16.8785C1.43337 16.99 1.44623 17.1052 1.49073 17.2095C1.53524 17.3138 1.60942 17.4028 1.70406 17.4653C1.79871 17.5278 1.90964 17.5611 2.02306 17.5611H7.28917C7.55797 18.8801 8.72701 19.8757 10.1242 19.8757C11.5215 19.8757 12.6905 18.8801 12.9593 17.5611H18.2254C18.3388 17.5611 18.4497 17.5278 18.5444 17.4652C18.639 17.4027 18.7132 17.3138 18.7577 17.2095C18.8022 17.1051 18.815 16.99 18.7947 16.8785C18.7743 16.7669 18.7216 16.6638 18.6431 16.5819C17.0055 14.8742 16.1037 12.6307 16.1037 10.2647ZM9.54558 1.86023C9.54558 1.54116 9.80516 1.28158 10.1242 1.28158C10.4433 1.28158 10.7029 1.54116 10.7029 1.86023V2.46697C10.5124 2.44861 10.3194 2.43889 10.1242 2.43889C9.92903 2.43889 9.73603 2.44861 9.54558 2.46697V1.86023ZM10.1242 18.7184C9.36986 18.7184 8.72666 18.2346 8.4878 17.5611H11.7607C11.5218 18.2346 10.8786 18.7184 10.1242 18.7184ZM3.27026 16.4038C4.58808 14.6372 5.30211 12.4995 5.30211 10.2647V8.41833C5.30211 5.7594 7.46531 3.5962 10.1242 3.5962C12.7832 3.5962 14.9464 5.7594 14.9464 8.41833V10.2647C14.9464 12.4995 15.6604 14.6372 16.9782 16.4038H3.27026ZM17.6467 8.41833C17.6467 8.7379 17.9058 8.99698 18.2254 8.99698C18.545 8.99698 18.8041 8.7379 18.8041 8.41833C18.8041 6.09985 17.9012 3.92013 16.2618 2.28072C16.0359 2.05478 15.6694 2.05474 15.4435 2.28072C15.2175 2.50671 15.2175 2.87307 15.4435 3.09906C16.8643 4.51989 17.6467 6.40896 17.6467 8.41833ZM2.02306 8.99698C2.34263 8.99698 2.60172 8.7379 2.60172 8.41833C2.60172 6.409 3.38421 4.51993 4.805 3.0991C5.03099 2.87311 5.03099 2.50675 4.805 2.28076C4.57906 2.05478 4.21265 2.05478 3.98667 2.28076C2.34726 3.92017 1.44441 6.09985 1.44441 8.41833C1.44441 8.7379 1.70349 8.99698 2.02306 8.99698Z" fill="#B8B8B8"/>
</g>
<defs>
<clipPath id="clip0_19_398">
<rect width="19.7514" height="19.7514" fill="white" transform="translate(0.248535 0.124268)"/>
</clipPath>
</defs>
</svg>
