<svg width="24" height="24" viewBox="0 0 24 24" fill="none" xmlns="http://www.w3.org/2000/svg">
<rect width="24" height="24" rx="12" fill="#0C0B0E"/>
<path opacity="0.4" d="M17.5995 14.8872C17.4128 15.3872 17.0195 15.7672 16.5062 15.9405C15.7862 16.1805 15.0462 16.3605 14.2995 16.4872C14.2262 16.5005 14.1528 16.5139 14.0795 16.5205C13.9595 16.5405 13.8395 16.5539 13.7195 16.5672C13.5728 16.5872 13.4195 16.6005 13.2662 16.6139C12.8462 16.6472 12.4328 16.6672 12.0128 16.6672C11.5862 16.6672 11.1595 16.6472 10.7395 16.6072C10.5595 16.5939 10.3862 16.5739 10.2128 16.5472C10.1128 16.5339 10.0128 16.5205 9.91948 16.5072C9.84615 16.4939 9.77282 16.4872 9.69948 16.4739C8.95948 16.3539 8.22615 16.1739 7.51282 15.9339C6.97948 15.7539 6.57282 15.3739 6.39282 14.8872C6.21282 14.4072 6.27948 13.8472 6.56615 13.3672L7.31948 12.1139C7.47948 11.8405 7.62615 11.3139 7.62615 10.9939V9.75385C7.62615 7.33385 9.59282 5.36719 12.0128 5.36719C14.4262 5.36719 16.3928 7.33385 16.3928 9.75385V10.9939C16.3928 11.3139 16.5395 11.8405 16.7062 12.1139L17.4595 13.3672C17.7328 13.8339 17.7862 14.3805 17.5995 14.8872Z" fill="#DBCC93"/>
<path d="M11.9989 11.1738C11.7189 11.1738 11.4922 10.9471 11.4922 10.6671V8.60042C11.4922 8.32042 11.7189 8.09375 11.9989 8.09375C12.2789 8.09375 12.5055 8.32042 12.5055 8.60042V10.6671C12.4989 10.9471 12.2722 11.1738 11.9989 11.1738Z" fill="#DBCC93"/>
<path d="M13.8878 17.3407C13.6078 18.114 12.8678 18.6673 12.0011 18.6673C11.4744 18.6673 10.9544 18.454 10.5878 18.074C10.3744 17.874 10.2144 17.6073 10.1211 17.334C10.2078 17.3473 10.2944 17.354 10.3878 17.3673C10.5411 17.3873 10.7011 17.4073 10.8611 17.4207C11.2411 17.454 11.6278 17.474 12.0144 17.474C12.3944 17.474 12.7744 17.454 13.1478 17.4207C13.2878 17.4073 13.4278 17.4007 13.5611 17.3807C13.6678 17.3673 13.7744 17.354 13.8878 17.3407Z" fill="#DBCC93"/>
</svg>
