<svg width="392" height="380" viewBox="0 0 392 380" fill="none" xmlns="http://www.w3.org/2000/svg">
<g clip-path="url(#clip0_9640_2003)">
<path fill-rule="evenodd" clip-rule="evenodd" d="M196.625 243.024C178.33 243.024 160.446 237.599 145.235 227.435C130.023 217.271 118.167 202.825 111.166 185.923C104.165 169.02 102.333 150.422 105.902 132.479C109.472 114.535 118.281 98.0535 131.218 85.1171C144.154 72.1807 160.636 63.371 178.579 59.8018C196.522 56.2327 215.121 58.0644 232.023 65.0656C248.926 72.0667 263.372 83.9226 273.536 99.1342C283.7 114.346 289.125 132.23 289.125 150.524C289.125 175.057 279.38 198.585 262.032 215.932C244.685 233.279 221.158 243.024 196.625 243.024ZM144.252 171.383C142.262 169.372 141.147 166.658 141.147 163.829C141.147 161 142.262 158.286 144.252 156.275L149.697 150.861C150.623 149.926 151.727 149.187 152.944 148.688C154.161 148.188 155.466 147.939 156.782 147.953C158.097 147.968 159.396 148.247 160.602 148.773C161.807 149.3 162.895 150.063 163.8 151.018L173.42 160.999C173.879 161.482 174.431 161.868 175.044 162.131C175.656 162.395 176.316 162.531 176.983 162.531C177.65 162.531 178.309 162.395 178.922 162.131C179.534 161.868 180.087 161.482 180.545 160.999L229.57 110.463C230.482 109.501 231.579 108.734 232.794 108.207C234.01 107.68 235.32 107.404 236.644 107.397C237.969 107.389 239.282 107.649 240.504 108.162C241.726 108.674 242.831 109.429 243.754 110.379L249.042 115.726C250.982 117.729 252.067 120.408 252.067 123.197C252.067 125.986 250.982 128.665 249.042 130.668L183.956 196.808C183.047 197.749 181.961 198.498 180.759 199.013C179.557 199.527 178.265 199.797 176.957 199.805C175.65 199.814 174.354 199.562 173.146 199.063C171.938 198.564 170.841 197.829 169.92 196.901L144.252 171.383Z" fill="#E2D6A9"/>
<path d="M270.125 82.0244C274.543 82.0244 278.125 78.4427 278.125 74.0244C278.125 69.6061 274.543 66.0244 270.125 66.0244C265.707 66.0244 262.125 69.6061 262.125 74.0244C262.125 78.4427 265.707 82.0244 270.125 82.0244Z" fill="#E2D6A9"/>
</g>
<path d="M156.244 279.876C159.557 279.975 162.322 277.37 162.421 274.058C162.52 270.746 159.915 267.981 156.603 267.882C153.291 267.783 150.525 270.388 150.426 273.7C150.327 277.012 152.932 279.777 156.244 279.876Z" fill="#E2D6A9"/>
<path d="M216.5 276C220.366 276 223.5 272.866 223.5 269C223.5 265.134 220.366 262 216.5 262C212.634 262 209.5 265.134 209.5 269C209.5 272.866 212.634 276 216.5 276Z" fill="#E2D6A9"/>
<path d="M278.5 249C281.261 249 283.5 246.761 283.5 244C283.5 241.239 281.261 239 278.5 239C275.739 239 273.5 241.239 273.5 244C273.5 246.761 275.739 249 278.5 249Z" fill="#E2D6A9"/>
<path d="M123.5 255C127.918 255 131.5 251.418 131.5 247C131.5 242.582 127.918 239 123.5 239C119.082 239 115.5 242.582 115.5 247C115.5 251.418 119.082 255 123.5 255Z" fill="#E2D6A9"/>
<path d="M59 202C63.1421 202 66.5 198.642 66.5 194.5C66.5 190.358 63.1421 187 59 187C54.8579 187 51.5 190.358 51.5 194.5C51.5 198.642 54.8579 202 59 202Z" fill="#E2D6A9"/>
<path d="M303.5 215C306.814 215 309.5 212.314 309.5 209C309.5 205.686 306.814 203 303.5 203C300.186 203 297.5 205.686 297.5 209C297.5 212.314 300.186 215 303.5 215Z" fill="#E2D6A9"/>
<path d="M348.5 203C352.918 203 356.5 199.418 356.5 195C356.5 190.582 352.918 187 348.5 187C344.082 187 340.5 190.582 340.5 195C340.5 199.418 344.082 203 348.5 203Z" fill="#E2D6A9"/>
<path d="M307.5 162C310.261 162 312.5 159.761 312.5 157C312.5 154.239 310.261 152 307.5 152C304.739 152 302.5 154.239 302.5 157C302.5 159.761 304.739 162 307.5 162Z" fill="#E2D6A9"/>
<path d="M302.5 140C306.918 140 310.5 136.418 310.5 132C310.5 127.582 306.918 124 302.5 124C298.082 124 294.5 127.582 294.5 132C294.5 136.418 298.082 140 302.5 140Z" fill="#E2D6A9"/>
<path d="M329.5 104C332.261 104 334.5 101.761 334.5 99C334.5 96.2386 332.261 94 329.5 94C326.739 94 324.5 96.2386 324.5 99C324.5 101.761 326.739 104 329.5 104Z" fill="#E2D6A9"/>
<path d="M318.5 82C322.918 82 326.5 78.4183 326.5 74C326.5 69.5817 322.918 66 318.5 66C314.082 66 310.5 69.5817 310.5 74C310.5 78.4183 314.082 82 318.5 82Z" fill="#E2D6A9"/>
<path d="M53.5 247C56.8137 247 59.5 244.314 59.5 241C59.5 237.686 56.8137 235 53.5 235C50.1863 235 47.5 237.686 47.5 241C47.5 244.314 50.1863 247 53.5 247Z" fill="#E2D6A9"/>
<path d="M280.5 56C284.366 56 287.5 52.866 287.5 49C287.5 45.134 284.366 42 280.5 42C276.634 42 273.5 45.134 273.5 49C273.5 52.866 276.634 56 280.5 56Z" fill="#E2D6A9"/>
<path d="M289 38C293.142 38 296.5 34.6421 296.5 30.5C296.5 26.3579 293.142 23 289 23C284.858 23 281.5 26.3579 281.5 30.5C281.5 34.6421 284.858 38 289 38Z" fill="#E2D6A9"/>
<path d="M216.5 10C219.261 10 221.5 7.76142 221.5 5C221.5 2.23858 219.261 0 216.5 0C213.739 0 211.5 2.23858 211.5 5C211.5 7.76142 213.739 10 216.5 10Z" fill="#E2D6A9"/>
<path d="M122.5 41C125.261 41 127.5 38.7614 127.5 36C127.5 33.2386 125.261 31 122.5 31C119.739 31 117.5 33.2386 117.5 36C117.5 38.7614 119.739 41 122.5 41Z" fill="#E2D6A9"/>
<path d="M154.5 56C158.366 56 161.5 52.866 161.5 49C161.5 45.134 158.366 42 154.5 42C150.634 42 147.5 45.134 147.5 49C147.5 52.866 150.634 56 154.5 56Z" fill="#E2D6A9"/>
<path d="M94.5 54C97.8137 54 100.5 51.3137 100.5 48C100.5 44.6863 97.8137 42 94.5 42C91.1863 42 88.5 44.6863 88.5 48C88.5 51.3137 91.1863 54 94.5 54Z" fill="#E2D6A9"/>
<path d="M71.5 16C75.9183 16 79.5 12.4183 79.5 8C79.5 3.58172 75.9183 0 71.5 0C67.0817 0 63.5 3.58172 63.5 8C63.5 12.4183 67.0817 16 71.5 16Z" fill="#E2D6A9"/>
<path d="M43 101C47.1421 101 50.5 97.6421 50.5 93.5C50.5 89.3579 47.1421 86 43 86C38.8579 86 35.5 89.3579 35.5 93.5C35.5 97.6421 38.8579 101 43 101Z" fill="#E2D6A9"/>
<path d="M77.5 126C80.2614 126 82.5 123.761 82.5 121C82.5 118.239 80.2614 116 77.5 116C74.7386 116 72.5 118.239 72.5 121C72.5 123.761 74.7386 126 77.5 126Z" fill="#E2D6A9"/>
<path d="M87.5 176C91.9183 176 95.5 172.418 95.5 168C95.5 163.582 91.9183 160 87.5 160C83.0817 160 79.5 163.582 79.5 168C79.5 172.418 83.0817 176 87.5 176Z" fill="#E2D6A9"/>
<path d="M200.5 33C203.261 33 205.5 30.7614 205.5 28C205.5 25.2386 203.261 23 200.5 23C197.739 23 195.5 25.2386 195.5 28C195.5 30.7614 197.739 33 200.5 33Z" fill="#E2D6A9"/>
<path d="M217.5 54C220.814 54 223.5 51.3137 223.5 48C223.5 44.6863 220.814 42 217.5 42C214.186 42 211.5 44.6863 211.5 48C211.5 51.3137 214.186 54 217.5 54Z" fill="#E2D6A9"/>
<path d="M87.8042 336.224C87.4522 336.224 87.1802 336.128 86.9882 335.936C86.7962 335.728 86.7002 335.44 86.7002 335.072V320.264C86.7002 319.896 86.7962 319.616 86.9882 319.424C87.1962 319.232 87.4762 319.136 87.8282 319.136H93.5402C95.3642 319.136 96.7642 319.584 97.7402 320.48C98.7322 321.376 99.2282 322.632 99.2282 324.248C99.2282 325.88 98.7322 327.144 97.7402 328.04C96.7642 328.936 95.3642 329.384 93.5402 329.384H88.9322V335.072C88.9322 335.44 88.8362 335.728 88.6442 335.936C88.4682 336.128 88.1882 336.224 87.8042 336.224ZM88.9322 327.584H93.2522C94.5002 327.584 95.4362 327.304 96.0602 326.744C96.7002 326.168 97.0202 325.336 97.0202 324.248C97.0202 323.16 96.7002 322.344 96.0602 321.8C95.4362 321.24 94.5002 320.96 93.2522 320.96H88.9322V327.584ZM104.827 336.272C104.027 336.272 103.299 336.112 102.643 335.792C102.003 335.472 101.499 335.04 101.131 334.496C100.779 333.952 100.603 333.344 100.603 332.672C100.603 331.808 100.819 331.128 101.251 330.632C101.683 330.136 102.411 329.784 103.435 329.576C104.459 329.352 105.835 329.24 107.563 329.24H108.691V330.632H107.611C106.379 330.632 105.403 330.688 104.683 330.8C103.979 330.912 103.483 331.112 103.195 331.4C102.907 331.672 102.763 332.056 102.763 332.552C102.763 333.176 102.979 333.688 103.411 334.088C103.859 334.488 104.467 334.688 105.235 334.688C105.843 334.688 106.379 334.544 106.843 334.256C107.307 333.952 107.675 333.552 107.947 333.056C108.219 332.544 108.355 331.96 108.355 331.304V328.544C108.355 327.6 108.163 326.92 107.779 326.504C107.395 326.072 106.747 325.856 105.835 325.856C105.307 325.856 104.763 325.928 104.203 326.072C103.643 326.216 103.059 326.44 102.451 326.744C102.211 326.856 102.003 326.896 101.827 326.864C101.651 326.816 101.507 326.72 101.395 326.576C101.299 326.416 101.243 326.248 101.227 326.072C101.227 325.88 101.267 325.696 101.347 325.52C101.443 325.344 101.603 325.216 101.827 325.136C102.531 324.784 103.227 324.536 103.915 324.392C104.619 324.232 105.275 324.152 105.883 324.152C106.923 324.152 107.779 324.32 108.451 324.656C109.123 324.976 109.627 325.48 109.963 326.168C110.299 326.84 110.467 327.704 110.467 328.76V335.096C110.467 335.464 110.379 335.744 110.203 335.936C110.027 336.128 109.771 336.224 109.435 336.224C109.115 336.224 108.859 336.128 108.667 335.936C108.491 335.744 108.403 335.464 108.403 335.096V333.392H108.619C108.491 333.984 108.251 334.496 107.899 334.928C107.547 335.36 107.107 335.696 106.579 335.936C106.067 336.16 105.483 336.272 104.827 336.272ZM116.475 340.544C116.219 340.544 116.003 340.472 115.827 340.328C115.667 340.2 115.571 340.016 115.539 339.776C115.523 339.552 115.571 339.312 115.683 339.056L117.315 335.36V336.272L112.779 325.712C112.667 325.44 112.627 325.192 112.659 324.968C112.691 324.744 112.795 324.56 112.971 324.416C113.163 324.272 113.419 324.2 113.739 324.2C114.011 324.2 114.227 324.264 114.387 324.392C114.547 324.52 114.699 324.744 114.843 325.064L118.611 334.352H117.939L121.779 325.064C121.907 324.744 122.059 324.52 122.235 324.392C122.411 324.264 122.651 324.2 122.955 324.2C123.227 324.2 123.435 324.272 123.579 324.416C123.739 324.56 123.835 324.744 123.867 324.968C123.899 325.192 123.851 325.432 123.723 325.688L117.675 339.68C117.515 340.016 117.347 340.24 117.171 340.352C117.011 340.48 116.779 340.544 116.475 340.544ZM127.314 336.224C126.978 336.224 126.714 336.128 126.522 335.936C126.33 335.744 126.234 335.464 126.234 335.096V325.304C126.234 324.936 126.33 324.664 126.522 324.488C126.714 324.296 126.978 324.2 127.314 324.2C127.65 324.2 127.906 324.296 128.082 324.488C128.274 324.664 128.37 324.936 128.37 325.304V327.344L128.106 326.912C128.41 326.032 128.898 325.352 129.57 324.872C130.258 324.392 131.074 324.152 132.018 324.152C133.01 324.152 133.81 324.392 134.418 324.872C135.026 325.336 135.434 326.048 135.642 327.008H135.306C135.594 326.128 136.106 325.432 136.842 324.92C137.594 324.408 138.466 324.152 139.458 324.152C140.338 324.152 141.058 324.328 141.618 324.68C142.194 325.016 142.626 325.528 142.914 326.216C143.202 326.888 143.346 327.752 143.346 328.808V335.096C143.346 335.464 143.25 335.744 143.058 335.936C142.866 336.128 142.602 336.224 142.266 336.224C141.914 336.224 141.642 336.128 141.45 335.936C141.258 335.744 141.162 335.464 141.162 335.096V328.904C141.162 327.88 140.986 327.128 140.634 326.648C140.282 326.168 139.69 325.928 138.858 325.928C137.946 325.928 137.218 326.248 136.674 326.888C136.146 327.512 135.882 328.376 135.882 329.48V335.096C135.882 335.464 135.786 335.744 135.594 335.936C135.418 336.128 135.154 336.224 134.802 336.224C134.45 336.224 134.178 336.128 133.986 335.936C133.794 335.744 133.698 335.464 133.698 335.096V328.904C133.698 327.88 133.522 327.128 133.17 326.648C132.818 326.168 132.226 325.928 131.394 325.928C130.482 325.928 129.754 326.248 129.21 326.888C128.682 327.512 128.418 328.376 128.418 329.48V335.096C128.418 335.848 128.05 336.224 127.314 336.224ZM152.257 336.272C150.993 336.272 149.905 336.032 148.993 335.552C148.097 335.056 147.401 334.36 146.905 333.464C146.409 332.552 146.161 331.48 146.161 330.248C146.161 329.032 146.401 327.968 146.881 327.056C147.377 326.144 148.049 325.432 148.897 324.92C149.761 324.408 150.745 324.152 151.849 324.152C152.633 324.152 153.337 324.288 153.961 324.56C154.601 324.816 155.145 325.192 155.593 325.688C156.041 326.184 156.377 326.792 156.601 327.512C156.841 328.216 156.961 329.016 156.961 329.912C156.961 330.168 156.881 330.368 156.721 330.512C156.577 330.64 156.361 330.704 156.073 330.704H147.865V329.312H155.521L155.113 329.648C155.113 328.816 154.985 328.112 154.729 327.536C154.489 326.944 154.129 326.496 153.649 326.192C153.185 325.888 152.601 325.736 151.897 325.736C151.129 325.736 150.473 325.92 149.929 326.288C149.385 326.64 148.969 327.144 148.681 327.8C148.393 328.44 148.249 329.184 148.249 330.032V330.176C148.249 331.616 148.593 332.704 149.281 333.44C149.969 334.176 150.961 334.544 152.257 334.544C152.769 334.544 153.289 334.48 153.817 334.352C154.361 334.224 154.881 333.992 155.377 333.656C155.617 333.512 155.833 333.448 156.025 333.464C156.233 333.464 156.401 333.528 156.529 333.656C156.657 333.768 156.737 333.912 156.769 334.088C156.801 334.248 156.777 334.424 156.697 334.616C156.617 334.808 156.465 334.976 156.241 335.12C155.713 335.488 155.081 335.776 154.345 335.984C153.625 336.176 152.929 336.272 152.257 336.272ZM160.758 336.224C160.422 336.224 160.158 336.128 159.966 335.936C159.774 335.744 159.678 335.464 159.678 335.096V325.304C159.678 324.936 159.774 324.664 159.966 324.488C160.158 324.296 160.422 324.2 160.758 324.2C161.094 324.2 161.35 324.296 161.526 324.488C161.718 324.664 161.814 324.936 161.814 325.304V327.272L161.55 326.912C161.886 326 162.43 325.312 163.182 324.848C163.95 324.384 164.822 324.152 165.798 324.152C166.742 324.152 167.518 324.32 168.126 324.656C168.734 324.992 169.19 325.504 169.494 326.192C169.798 326.88 169.95 327.752 169.95 328.808V335.096C169.95 335.464 169.854 335.744 169.662 335.936C169.486 336.128 169.222 336.224 168.87 336.224C168.518 336.224 168.246 336.128 168.054 335.936C167.862 335.744 167.766 335.464 167.766 335.096V328.928C167.766 327.888 167.566 327.128 167.166 326.648C166.766 326.168 166.126 325.928 165.246 325.928C164.222 325.928 163.398 326.248 162.774 326.888C162.166 327.512 161.862 328.36 161.862 329.432V335.096C161.862 335.848 161.494 336.224 160.758 336.224ZM178.26 336.272C177.316 336.272 176.524 336.104 175.884 335.768C175.26 335.432 174.788 334.944 174.468 334.304C174.164 333.664 174.012 332.88 174.012 331.952V326.048H172.476C172.188 326.048 171.964 325.976 171.804 325.832C171.644 325.672 171.564 325.464 171.564 325.208C171.564 324.936 171.644 324.728 171.804 324.584C171.964 324.44 172.188 324.368 172.476 324.368H174.012V321.752C174.012 321.384 174.108 321.112 174.3 320.936C174.492 320.744 174.764 320.648 175.116 320.648C175.468 320.648 175.732 320.744 175.908 320.936C176.1 321.112 176.196 321.384 176.196 321.752V324.368H179.1C179.404 324.368 179.636 324.44 179.796 324.584C179.956 324.728 180.036 324.936 180.036 325.208C180.036 325.464 179.956 325.672 179.796 325.832C179.636 325.976 179.404 326.048 179.1 326.048H176.196V331.76C176.196 332.64 176.38 333.304 176.748 333.752C177.116 334.2 177.724 334.424 178.572 334.424C178.876 334.424 179.132 334.4 179.34 334.352C179.548 334.288 179.732 334.256 179.892 334.256C180.036 334.24 180.156 334.288 180.252 334.4C180.364 334.512 180.42 334.72 180.42 335.024C180.42 335.248 180.38 335.456 180.3 335.648C180.236 335.824 180.1 335.944 179.892 336.008C179.7 336.072 179.444 336.128 179.124 336.176C178.804 336.24 178.516 336.272 178.26 336.272ZM194.104 336.272C193.352 336.272 192.624 336.208 191.92 336.08C191.216 335.968 190.552 335.792 189.928 335.552C189.304 335.312 188.744 335.016 188.248 334.664C188.04 334.52 187.888 334.344 187.792 334.136C187.712 333.928 187.688 333.728 187.72 333.536C187.768 333.328 187.856 333.152 187.984 333.008C188.128 332.864 188.296 332.776 188.488 332.744C188.68 332.712 188.888 332.776 189.112 332.936C189.848 333.432 190.616 333.792 191.416 334.016C192.232 334.24 193.128 334.352 194.104 334.352C195.512 334.352 196.544 334.096 197.2 333.584C197.872 333.072 198.208 332.4 198.208 331.568C198.208 330.88 197.968 330.344 197.488 329.96C197.008 329.56 196.2 329.248 195.064 329.024L192.52 328.496C191.016 328.176 189.888 327.648 189.136 326.912C188.4 326.176 188.032 325.192 188.032 323.96C188.032 323.208 188.184 322.528 188.488 321.92C188.792 321.296 189.224 320.76 189.784 320.312C190.344 319.864 191 319.52 191.752 319.28C192.52 319.04 193.368 318.92 194.296 318.92C195.288 318.92 196.216 319.056 197.08 319.328C197.96 319.6 198.752 320 199.456 320.528C199.648 320.672 199.776 320.848 199.84 321.056C199.904 321.248 199.912 321.44 199.864 321.632C199.832 321.824 199.744 321.984 199.6 322.112C199.472 322.24 199.304 322.312 199.096 322.328C198.904 322.344 198.688 322.272 198.448 322.112C197.808 321.664 197.152 321.344 196.48 321.152C195.808 320.944 195.072 320.84 194.272 320.84C193.456 320.84 192.744 320.968 192.136 321.224C191.544 321.48 191.08 321.84 190.744 322.304C190.424 322.752 190.264 323.28 190.264 323.888C190.264 324.624 190.488 325.2 190.936 325.616C191.384 326.032 192.136 326.352 193.192 326.576L195.712 327.08C197.312 327.416 198.496 327.936 199.264 328.64C200.048 329.328 200.44 330.256 200.44 331.424C200.44 332.16 200.288 332.824 199.984 333.416C199.696 334.008 199.28 334.52 198.736 334.952C198.192 335.368 197.528 335.696 196.744 335.936C195.96 336.16 195.08 336.272 194.104 336.272ZM207.283 336.272C206.339 336.272 205.547 336.096 204.907 335.744C204.283 335.392 203.819 334.872 203.515 334.184C203.211 333.496 203.059 332.632 203.059 331.592V325.304C203.059 324.936 203.147 324.664 203.323 324.488C203.515 324.296 203.787 324.2 204.139 324.2C204.491 324.2 204.763 324.296 204.955 324.488C205.147 324.664 205.243 324.936 205.243 325.304V331.592C205.243 332.584 205.443 333.32 205.843 333.8C206.243 334.264 206.875 334.496 207.739 334.496C208.699 334.496 209.475 334.176 210.067 333.536C210.675 332.896 210.979 332.048 210.979 330.992V325.304C210.979 324.936 211.067 324.664 211.243 324.488C211.435 324.296 211.707 324.2 212.059 324.2C212.411 324.2 212.683 324.296 212.875 324.488C213.067 324.664 213.163 324.936 213.163 325.304V335.096C213.163 335.848 212.811 336.224 212.107 336.224C211.755 336.224 211.483 336.128 211.291 335.936C211.115 335.744 211.027 335.464 211.027 335.096V333.008L211.339 333.416C211.019 334.344 210.499 335.056 209.779 335.552C209.075 336.032 208.243 336.272 207.283 336.272ZM221.742 336.272C220.558 336.272 219.534 336.024 218.67 335.528C217.806 335.016 217.142 334.304 216.678 333.392C216.214 332.464 215.982 331.376 215.982 330.128C215.982 329.2 216.11 328.368 216.366 327.632C216.638 326.896 217.022 326.272 217.518 325.76C218.014 325.232 218.614 324.832 219.318 324.56C220.038 324.288 220.846 324.152 221.742 324.152C222.302 324.152 222.894 324.24 223.518 324.416C224.142 324.592 224.718 324.88 225.246 325.28C225.422 325.408 225.534 325.56 225.582 325.736C225.63 325.896 225.63 326.064 225.582 326.24C225.55 326.416 225.47 326.568 225.342 326.696C225.23 326.808 225.078 326.872 224.886 326.888C224.71 326.904 224.518 326.848 224.31 326.72C223.926 326.432 223.518 326.224 223.086 326.096C222.67 325.968 222.27 325.904 221.886 325.904C221.294 325.904 220.766 326 220.302 326.192C219.854 326.384 219.47 326.664 219.15 327.032C218.846 327.384 218.614 327.824 218.454 328.352C218.294 328.864 218.214 329.464 218.214 330.152C218.214 331.512 218.534 332.584 219.174 333.368C219.814 334.136 220.718 334.52 221.886 334.52C222.27 334.52 222.67 334.464 223.086 334.352C223.502 334.224 223.91 334.016 224.31 333.728C224.518 333.6 224.71 333.552 224.886 333.584C225.062 333.6 225.206 333.672 225.318 333.8C225.446 333.912 225.526 334.056 225.558 334.232C225.59 334.392 225.574 334.56 225.51 334.736C225.462 334.912 225.35 335.056 225.174 335.168C224.662 335.552 224.102 335.832 223.494 336.008C222.886 336.184 222.302 336.272 221.742 336.272ZM232.664 336.272C231.48 336.272 230.456 336.024 229.592 335.528C228.728 335.016 228.064 334.304 227.6 333.392C227.136 332.464 226.904 331.376 226.904 330.128C226.904 329.2 227.032 328.368 227.288 327.632C227.56 326.896 227.944 326.272 228.44 325.76C228.936 325.232 229.536 324.832 230.24 324.56C230.96 324.288 231.768 324.152 232.664 324.152C233.224 324.152 233.816 324.24 234.44 324.416C235.064 324.592 235.64 324.88 236.168 325.28C236.344 325.408 236.456 325.56 236.504 325.736C236.552 325.896 236.552 326.064 236.504 326.24C236.472 326.416 236.392 326.568 236.264 326.696C236.152 326.808 236 326.872 235.808 326.888C235.632 326.904 235.44 326.848 235.232 326.72C234.848 326.432 234.44 326.224 234.008 326.096C233.592 325.968 233.192 325.904 232.808 325.904C232.216 325.904 231.688 326 231.224 326.192C230.776 326.384 230.392 326.664 230.072 327.032C229.768 327.384 229.536 327.824 229.376 328.352C229.216 328.864 229.136 329.464 229.136 330.152C229.136 331.512 229.456 332.584 230.096 333.368C230.736 334.136 231.64 334.52 232.808 334.52C233.192 334.52 233.592 334.464 234.008 334.352C234.424 334.224 234.832 334.016 235.232 333.728C235.44 333.6 235.632 333.552 235.808 333.584C235.984 333.6 236.128 333.672 236.24 333.8C236.368 333.912 236.448 334.056 236.48 334.232C236.512 334.392 236.496 334.56 236.432 334.736C236.384 334.912 236.272 335.056 236.096 335.168C235.584 335.552 235.024 335.832 234.416 336.008C233.808 336.184 233.224 336.272 232.664 336.272ZM243.922 336.272C242.658 336.272 241.57 336.032 240.658 335.552C239.762 335.056 239.066 334.36 238.57 333.464C238.074 332.552 237.826 331.48 237.826 330.248C237.826 329.032 238.066 327.968 238.546 327.056C239.042 326.144 239.714 325.432 240.562 324.92C241.426 324.408 242.41 324.152 243.514 324.152C244.298 324.152 245.002 324.288 245.626 324.56C246.266 324.816 246.81 325.192 247.258 325.688C247.706 326.184 248.042 326.792 248.266 327.512C248.506 328.216 248.626 329.016 248.626 329.912C248.626 330.168 248.546 330.368 248.386 330.512C248.242 330.64 248.026 330.704 247.738 330.704H239.53V329.312H247.186L246.778 329.648C246.778 328.816 246.65 328.112 246.394 327.536C246.154 326.944 245.794 326.496 245.314 326.192C244.85 325.888 244.266 325.736 243.562 325.736C242.794 325.736 242.138 325.92 241.594 326.288C241.05 326.64 240.634 327.144 240.346 327.8C240.058 328.44 239.914 329.184 239.914 330.032V330.176C239.914 331.616 240.258 332.704 240.946 333.44C241.634 334.176 242.626 334.544 243.922 334.544C244.434 334.544 244.954 334.48 245.482 334.352C246.026 334.224 246.546 333.992 247.042 333.656C247.282 333.512 247.498 333.448 247.69 333.464C247.898 333.464 248.066 333.528 248.194 333.656C248.322 333.768 248.402 333.912 248.434 334.088C248.466 334.248 248.442 334.424 248.362 334.616C248.282 334.808 248.13 334.976 247.906 335.12C247.378 335.488 246.746 335.776 246.01 335.984C245.29 336.176 244.594 336.272 243.922 336.272ZM255.374 336.272C254.654 336.272 253.926 336.192 253.19 336.032C252.47 335.856 251.79 335.56 251.15 335.144C250.974 335.032 250.846 334.896 250.766 334.736C250.702 334.56 250.678 334.392 250.694 334.232C250.726 334.056 250.798 333.904 250.91 333.776C251.022 333.648 251.158 333.576 251.318 333.56C251.494 333.528 251.678 333.568 251.87 333.68C252.494 334.032 253.094 334.28 253.67 334.424C254.262 334.568 254.846 334.64 255.422 334.64C256.302 334.64 256.966 334.48 257.414 334.16C257.862 333.84 258.086 333.416 258.086 332.888C258.086 332.44 257.934 332.096 257.63 331.856C257.342 331.6 256.886 331.408 256.262 331.28L254.03 330.824C253.038 330.6 252.286 330.232 251.774 329.72C251.278 329.192 251.03 328.52 251.03 327.704C251.03 326.984 251.222 326.36 251.606 325.832C252.006 325.288 252.558 324.872 253.262 324.584C253.966 324.296 254.774 324.152 255.686 324.152C256.39 324.152 257.054 324.248 257.678 324.44C258.318 324.616 258.894 324.888 259.406 325.256C259.598 325.368 259.718 325.512 259.766 325.688C259.83 325.848 259.838 326.016 259.79 326.192C259.758 326.352 259.686 326.488 259.574 326.6C259.462 326.712 259.318 326.784 259.142 326.816C258.966 326.832 258.774 326.784 258.566 326.672C258.102 326.352 257.622 326.128 257.126 326C256.646 325.856 256.166 325.784 255.686 325.784C254.822 325.784 254.166 325.952 253.718 326.288C253.286 326.624 253.07 327.064 253.07 327.608C253.07 328.024 253.198 328.368 253.454 328.64C253.726 328.912 254.15 329.112 254.726 329.24L256.958 329.696C257.998 329.92 258.782 330.28 259.31 330.776C259.838 331.256 260.102 331.912 260.102 332.744C260.102 333.832 259.67 334.696 258.806 335.336C257.958 335.96 256.814 336.272 255.374 336.272ZM266.975 336.272C266.255 336.272 265.527 336.192 264.791 336.032C264.071 335.856 263.391 335.56 262.751 335.144C262.575 335.032 262.447 334.896 262.367 334.736C262.303 334.56 262.279 334.392 262.295 334.232C262.327 334.056 262.399 333.904 262.511 333.776C262.623 333.648 262.759 333.576 262.919 333.56C263.095 333.528 263.279 333.568 263.471 333.68C264.095 334.032 264.695 334.28 265.271 334.424C265.863 334.568 266.447 334.64 267.023 334.64C267.903 334.64 268.567 334.48 269.015 334.16C269.463 333.84 269.687 333.416 269.687 332.888C269.687 332.44 269.535 332.096 269.231 331.856C268.943 331.6 268.487 331.408 267.863 331.28L265.631 330.824C264.639 330.6 263.887 330.232 263.375 329.72C262.879 329.192 262.631 328.52 262.631 327.704C262.631 326.984 262.823 326.36 263.207 325.832C263.607 325.288 264.159 324.872 264.863 324.584C265.567 324.296 266.375 324.152 267.287 324.152C267.991 324.152 268.655 324.248 269.279 324.44C269.919 324.616 270.495 324.888 271.007 325.256C271.199 325.368 271.319 325.512 271.367 325.688C271.431 325.848 271.439 326.016 271.391 326.192C271.359 326.352 271.287 326.488 271.175 326.6C271.063 326.712 270.919 326.784 270.743 326.816C270.567 326.832 270.375 326.784 270.167 326.672C269.703 326.352 269.223 326.128 268.727 326C268.247 325.856 267.767 325.784 267.287 325.784C266.423 325.784 265.767 325.952 265.319 326.288C264.887 326.624 264.671 327.064 264.671 327.608C264.671 328.024 264.799 328.368 265.055 328.64C265.327 328.912 265.751 329.112 266.327 329.24L268.559 329.696C269.599 329.92 270.383 330.28 270.911 330.776C271.439 331.256 271.703 331.912 271.703 332.744C271.703 333.832 271.271 334.696 270.407 335.336C269.559 335.96 268.415 336.272 266.975 336.272ZM276.321 336.224C275.969 336.224 275.697 336.128 275.505 335.936C275.313 335.744 275.217 335.464 275.217 335.096V326.048H273.777C273.489 326.048 273.265 325.976 273.105 325.832C272.945 325.672 272.865 325.464 272.865 325.208C272.865 324.936 272.945 324.728 273.105 324.584C273.265 324.44 273.489 324.368 273.777 324.368H275.817L275.217 324.944V324.056C275.217 322.504 275.593 321.328 276.345 320.528C277.113 319.712 278.233 319.24 279.705 319.112L280.449 319.064C280.689 319.032 280.881 319.072 281.025 319.184C281.169 319.28 281.265 319.408 281.313 319.568C281.361 319.728 281.361 319.896 281.313 320.072C281.281 320.232 281.209 320.376 281.097 320.504C280.985 320.632 280.841 320.704 280.665 320.72L280.137 320.744C279.177 320.824 278.481 321.112 278.049 321.608C277.617 322.088 277.401 322.808 277.401 323.768V324.728L277.089 324.368H279.849C280.153 324.368 280.385 324.44 280.545 324.584C280.705 324.728 280.785 324.936 280.785 325.208C280.785 325.464 280.705 325.672 280.545 325.832C280.385 325.976 280.153 326.048 279.849 326.048H277.401V335.096C277.401 335.848 277.041 336.224 276.321 336.224ZM286.877 336.272C285.933 336.272 285.141 336.096 284.501 335.744C283.877 335.392 283.413 334.872 283.109 334.184C282.805 333.496 282.653 332.632 282.653 331.592V325.304C282.653 324.936 282.741 324.664 282.917 324.488C283.109 324.296 283.381 324.2 283.733 324.2C284.085 324.2 284.357 324.296 284.549 324.488C284.741 324.664 284.837 324.936 284.837 325.304V331.592C284.837 332.584 285.037 333.32 285.437 333.8C285.837 334.264 286.469 334.496 287.333 334.496C288.293 334.496 289.069 334.176 289.661 333.536C290.269 332.896 290.573 332.048 290.573 330.992V325.304C290.573 324.936 290.661 324.664 290.837 324.488C291.029 324.296 291.301 324.2 291.653 324.2C292.005 324.2 292.277 324.296 292.469 324.488C292.661 324.664 292.757 324.936 292.757 325.304V335.096C292.757 335.848 292.405 336.224 291.701 336.224C291.349 336.224 291.077 336.128 290.885 335.936C290.709 335.744 290.621 335.464 290.621 335.096V333.008L290.933 333.416C290.613 334.344 290.093 335.056 289.373 335.552C288.669 336.032 287.837 336.272 286.877 336.272ZM299.944 336.272C298.744 336.272 297.832 335.92 297.208 335.216C296.584 334.496 296.272 333.464 296.272 332.12V320.072C296.272 319.704 296.368 319.432 296.56 319.256C296.752 319.064 297.016 318.968 297.352 318.968C297.704 318.968 297.976 319.064 298.168 319.256C298.36 319.432 298.456 319.704 298.456 320.072V331.952C298.456 332.784 298.624 333.408 298.96 333.824C299.312 334.224 299.808 334.424 300.448 334.424C300.592 334.424 300.72 334.424 300.832 334.424C300.944 334.408 301.056 334.392 301.168 334.376C301.344 334.36 301.472 334.408 301.552 334.52C301.632 334.632 301.672 334.856 301.672 335.192C301.672 335.496 301.6 335.736 301.456 335.912C301.328 336.072 301.112 336.176 300.808 336.224C300.664 336.24 300.52 336.248 300.376 336.248C300.232 336.264 300.088 336.272 299.944 336.272ZM304.546 331.616C304.338 331.616 304.162 331.552 304.018 331.424C303.89 331.28 303.818 331.064 303.802 330.776L303.274 320.384C303.242 319.952 303.338 319.608 303.562 319.352C303.786 319.096 304.114 318.968 304.546 318.968C304.962 318.968 305.282 319.096 305.506 319.352C305.73 319.608 305.826 319.952 305.794 320.384L305.266 330.776C305.25 331.064 305.178 331.28 305.05 331.424C304.922 331.552 304.754 331.616 304.546 331.616ZM304.546 336.152C304.13 336.152 303.786 336.016 303.514 335.744C303.242 335.472 303.106 335.128 303.106 334.712C303.106 334.296 303.242 333.96 303.514 333.704C303.786 333.448 304.13 333.32 304.546 333.32C304.994 333.32 305.338 333.448 305.578 333.704C305.834 333.96 305.962 334.296 305.962 334.712C305.962 335.128 305.834 335.472 305.578 335.744C305.338 336.016 304.994 336.152 304.546 336.152Z" fill="#ABABAB"/>
<path d="M6.47113 372.168C6.25779 372.168 6.09246 372.109 5.97513 371.992C5.86846 371.864 5.81512 371.688 5.81512 371.464V366.216L6.10313 367.128L2.08713 361.592C1.99113 361.453 1.94313 361.314 1.94313 361.176C1.95379 361.026 2.01246 360.904 2.11913 360.808C2.22579 360.712 2.36446 360.664 2.53513 360.664C2.68446 360.664 2.81779 360.701 2.93513 360.776C3.05246 360.84 3.15913 360.946 3.25513 361.096L6.66313 365.8H6.32713L9.73513 361.096C9.85246 360.936 9.96446 360.824 10.0711 360.76C10.1778 360.696 10.3058 360.664 10.4551 360.664C10.6258 360.664 10.7591 360.712 10.8551 360.808C10.9511 360.893 10.9991 361.01 10.9991 361.16C11.0098 361.298 10.9618 361.448 10.8551 361.608L6.85513 367.128L7.12713 366.216V371.464C7.12713 371.933 6.90846 372.168 6.47113 372.168ZM14.4168 372.2C13.6594 372.2 13.0034 372.034 12.4488 371.704C11.8941 371.373 11.4621 370.909 11.1528 370.312C10.8541 369.704 10.7048 368.989 10.7048 368.168C10.7048 367.549 10.7901 366.994 10.9608 366.504C11.1314 366.002 11.3821 365.576 11.7128 365.224C12.0434 364.872 12.4328 364.605 12.8808 364.424C13.3394 364.232 13.8514 364.136 14.4168 364.136C15.1741 364.136 15.8301 364.301 16.3848 364.632C16.9394 364.962 17.3661 365.432 17.6648 366.04C17.9741 366.637 18.1288 367.346 18.1288 368.168C18.1288 368.786 18.0434 369.341 17.8728 369.832C17.7021 370.322 17.4514 370.749 17.1208 371.112C16.7901 371.464 16.3954 371.736 15.9368 371.928C15.4888 372.109 14.9821 372.2 14.4168 372.2ZM14.4168 371.16C14.8968 371.16 15.3181 371.042 15.6808 370.808C16.0434 370.573 16.3208 370.232 16.5128 369.784C16.7154 369.336 16.8168 368.797 16.8168 368.168C16.8168 367.197 16.5981 366.456 16.1608 365.944C15.7341 365.432 15.1528 365.176 14.4168 365.176C13.9261 365.176 13.4994 365.293 13.1368 365.528C12.7848 365.752 12.5074 366.088 12.3048 366.536C12.1128 366.973 12.0168 367.517 12.0168 368.168C12.0168 369.128 12.2354 369.869 12.6728 370.392C13.1101 370.904 13.6914 371.16 14.4168 371.16ZM22.8274 372.2C22.198 372.2 21.6754 372.088 21.2594 371.864C20.854 371.629 20.5447 371.282 20.3314 370.824C20.1287 370.365 20.0274 369.794 20.0274 369.112V364.824C20.0274 364.6 20.0807 364.434 20.1874 364.328C20.3047 364.221 20.4647 364.168 20.6674 364.168C20.8807 364.168 21.0407 364.221 21.1474 364.328C21.2647 364.434 21.3234 364.6 21.3234 364.824V369.096C21.3234 369.778 21.462 370.29 21.7394 370.632C22.0274 370.962 22.4754 371.128 23.0834 371.128C23.7447 371.128 24.2834 370.904 24.6994 370.456C25.1154 370.008 25.3234 369.421 25.3234 368.696V364.824C25.3234 364.6 25.3767 364.434 25.4834 364.328C25.6007 364.221 25.766 364.168 25.9794 364.168C26.182 364.168 26.3367 364.221 26.4434 364.328C26.5607 364.434 26.6194 364.6 26.6194 364.824V371.496C26.6194 371.944 26.4114 372.168 25.9954 372.168C25.7927 372.168 25.6327 372.109 25.5154 371.992C25.4087 371.874 25.3554 371.709 25.3554 371.496V370.04L25.5634 370.264C25.35 370.893 24.998 371.373 24.5074 371.704C24.0274 372.034 23.4674 372.2 22.8274 372.2ZM29.7001 372.168C29.4868 372.168 29.3215 372.109 29.2041 371.992C29.0975 371.874 29.0441 371.709 29.0441 371.496V364.824C29.0441 364.61 29.0975 364.45 29.2041 364.344C29.3108 364.226 29.4655 364.168 29.6681 364.168C29.8708 364.168 30.0255 364.226 30.1321 364.344C30.2495 364.45 30.3081 364.61 30.3081 364.824V366.12H30.1481C30.3188 365.49 30.6441 365.005 31.1241 364.664C31.6041 364.322 32.1961 364.141 32.9001 364.12C33.0601 364.109 33.1881 364.146 33.2841 364.232C33.3801 364.306 33.4335 364.44 33.4441 364.632C33.4548 364.813 33.4121 364.957 33.3161 365.064C33.2201 365.17 33.0708 365.234 32.8681 365.256L32.6121 365.288C31.8868 365.352 31.3268 365.586 30.9321 365.992C30.5481 366.386 30.3561 366.93 30.3561 367.624V371.496C30.3561 371.709 30.2975 371.874 30.1801 371.992C30.0735 372.109 29.9135 372.168 29.7001 372.168ZM42.5035 372.168C42.3008 372.168 42.1408 372.109 42.0235 371.992C41.9062 371.864 41.8475 371.693 41.8475 371.48V361.912H38.2475C38.0555 361.912 37.9062 361.858 37.7995 361.752C37.6928 361.645 37.6395 361.506 37.6395 361.336C37.6395 361.154 37.6928 361.016 37.7995 360.92C37.9062 360.824 38.0555 360.776 38.2475 360.776H46.7755C46.9675 360.776 47.1168 360.824 47.2235 360.92C47.3302 361.016 47.3835 361.154 47.3835 361.336C47.3835 361.517 47.3302 361.661 47.2235 361.768C47.1168 361.864 46.9675 361.912 46.7755 361.912H43.1755V371.48C43.1755 371.693 43.1168 371.864 42.9995 371.992C42.8928 372.109 42.7275 372.168 42.5035 372.168ZM50.1243 372.2C49.4949 372.2 48.9723 372.088 48.5563 371.864C48.1509 371.629 47.8416 371.282 47.6283 370.824C47.4256 370.365 47.3243 369.794 47.3243 369.112V364.824C47.3243 364.6 47.3776 364.434 47.4843 364.328C47.6016 364.221 47.7616 364.168 47.9643 364.168C48.1776 364.168 48.3376 364.221 48.4443 364.328C48.5616 364.434 48.6203 364.6 48.6203 364.824V369.096C48.6203 369.778 48.7589 370.29 49.0363 370.632C49.3243 370.962 49.7723 371.128 50.3802 371.128C51.0416 371.128 51.5803 370.904 51.9963 370.456C52.4123 370.008 52.6203 369.421 52.6203 368.696V364.824C52.6203 364.6 52.6736 364.434 52.7803 364.328C52.8976 364.221 53.0629 364.168 53.2763 364.168C53.4789 364.168 53.6336 364.221 53.7403 364.328C53.8576 364.434 53.9163 364.6 53.9163 364.824V371.496C53.9163 371.944 53.7083 372.168 53.2923 372.168C53.0896 372.168 52.9296 372.109 52.8123 371.992C52.7056 371.874 52.6523 371.709 52.6523 371.496V370.04L52.8603 370.264C52.6469 370.893 52.2949 371.373 51.8043 371.704C51.3243 372.034 50.7643 372.2 50.1243 372.2ZM56.997 372.168C56.7837 372.168 56.6183 372.109 56.501 371.992C56.3943 371.874 56.341 371.709 56.341 371.496V364.824C56.341 364.61 56.3943 364.45 56.501 364.344C56.6077 364.226 56.7623 364.168 56.965 364.168C57.1677 364.168 57.3223 364.226 57.429 364.344C57.5463 364.45 57.605 364.61 57.605 364.824V366.12H57.445C57.6157 365.49 57.941 365.005 58.421 364.664C58.901 364.322 59.493 364.141 60.197 364.12C60.357 364.109 60.485 364.146 60.581 364.232C60.677 364.306 60.7303 364.44 60.741 364.632C60.7517 364.813 60.709 364.957 60.613 365.064C60.517 365.17 60.3677 365.234 60.165 365.256L59.909 365.288C59.1837 365.352 58.6237 365.586 58.229 365.992C57.845 366.386 57.653 366.93 57.653 367.624V371.496C57.653 371.709 57.5943 371.874 57.477 371.992C57.3703 372.109 57.2103 372.168 56.997 372.168ZM63.5533 372.168C63.3506 372.168 63.1906 372.109 63.0733 371.992C62.9666 371.874 62.9133 371.709 62.9133 371.496V365.288H61.8893C61.7186 365.288 61.5799 365.245 61.4733 365.16C61.3773 365.064 61.3293 364.936 61.3293 364.776C61.3293 364.616 61.3773 364.493 61.4733 364.408C61.5799 364.322 61.7186 364.28 61.8893 364.28H63.2653L62.9133 364.616V364.008C62.9133 362.994 63.1586 362.221 63.6493 361.688C64.1506 361.154 64.8813 360.845 65.8413 360.76L66.3053 360.712C66.4546 360.701 66.5719 360.728 66.6573 360.792C66.7533 360.856 66.8119 360.936 66.8333 361.032C66.8653 361.128 66.8706 361.229 66.8493 361.336C66.8279 361.432 66.7799 361.517 66.7053 361.592C66.6306 361.666 66.5399 361.709 66.4333 361.72L66.0653 361.752C65.4146 361.805 64.9399 362.002 64.6413 362.344C64.3533 362.685 64.2093 363.186 64.2093 363.848V364.52L64.0173 364.28H65.9373C66.1186 364.28 66.2573 364.322 66.3533 364.408C66.4493 364.493 66.4973 364.616 66.4973 364.776C66.4973 364.936 66.4493 365.064 66.3533 365.16C66.2573 365.245 66.1186 365.288 65.9373 365.288H64.2093V371.496C64.2093 371.944 63.9906 372.168 63.5533 372.168ZM74.5744 372.2C74.0944 372.2 73.609 372.141 73.1184 372.024C72.6384 371.906 72.1904 371.704 71.7744 371.416C71.6677 371.341 71.593 371.256 71.5504 371.16C71.5077 371.053 71.4917 370.952 71.5024 370.856C71.5237 370.749 71.5664 370.658 71.6304 370.584C71.705 370.509 71.7904 370.466 71.8864 370.456C71.993 370.434 72.1104 370.456 72.2384 370.52C72.6544 370.776 73.0544 370.957 73.4384 371.064C73.833 371.16 74.2224 371.208 74.6064 371.208C75.2144 371.208 75.673 371.096 75.9824 370.872C76.2917 370.648 76.4464 370.344 76.4464 369.96C76.4464 369.661 76.345 369.426 76.1424 369.256C75.9397 369.074 75.6197 368.936 75.1824 368.84L73.7264 368.52C73.0544 368.381 72.553 368.141 72.2224 367.8C71.9024 367.458 71.7424 367.016 71.7424 366.472C71.7424 365.992 71.865 365.581 72.1104 365.24C72.3664 364.888 72.7237 364.616 73.1824 364.424C73.641 364.232 74.1744 364.136 74.7824 364.136C75.2517 364.136 75.6944 364.2 76.1104 364.328C76.537 364.445 76.921 364.637 77.2624 364.904C77.369 364.978 77.4384 365.069 77.4704 365.176C77.513 365.272 77.5184 365.373 77.4864 365.48C77.465 365.576 77.417 365.661 77.3424 365.736C77.2677 365.8 77.177 365.837 77.0704 365.848C76.9637 365.858 76.8517 365.826 76.7344 365.752C76.4144 365.538 76.089 365.384 75.7584 365.288C75.4277 365.181 75.1024 365.128 74.7824 365.128C74.185 365.128 73.7317 365.245 73.4224 365.48C73.113 365.714 72.9584 366.024 72.9584 366.408C72.9584 366.706 73.0544 366.952 73.2464 367.144C73.4384 367.336 73.737 367.474 74.1424 367.56L75.5984 367.864C76.2917 368.013 76.809 368.253 77.1504 368.584C77.5024 368.904 77.6784 369.341 77.6784 369.896C77.6784 370.6 77.3957 371.16 76.8304 371.576C76.265 371.992 75.513 372.2 74.5744 372.2ZM80.2935 375.048C80.0802 375.048 79.9202 374.989 79.8135 374.872C79.7068 374.765 79.6535 374.605 79.6535 374.392V364.824C79.6535 364.61 79.7068 364.45 79.8135 364.344C79.9202 364.226 80.0748 364.168 80.2775 364.168C80.4908 364.168 80.6508 364.226 80.7575 364.344C80.8748 364.45 80.9335 364.61 80.9335 364.824V366.344L80.7575 366.12C80.9282 365.512 81.2642 365.032 81.7655 364.68C82.2775 364.317 82.8855 364.136 83.5895 364.136C84.2828 364.136 84.8855 364.301 85.3975 364.632C85.9202 364.952 86.3202 365.416 86.5975 366.024C86.8855 366.621 87.0295 367.336 87.0295 368.168C87.0295 368.989 86.8855 369.704 86.5975 370.312C86.3202 370.909 85.9255 371.373 85.4135 371.704C84.9015 372.034 84.2935 372.2 83.5895 372.2C82.8855 372.2 82.2828 372.024 81.7815 371.672C81.2802 371.309 80.9388 370.829 80.7575 370.232H80.9495V374.392C80.9495 374.605 80.8908 374.765 80.7735 374.872C80.6562 374.989 80.4962 375.048 80.2935 375.048ZM83.3175 371.16C83.8082 371.16 84.2295 371.042 84.5815 370.808C84.9442 370.573 85.2215 370.232 85.4135 369.784C85.6162 369.336 85.7175 368.797 85.7175 368.168C85.7175 367.197 85.4988 366.456 85.0615 365.944C84.6348 365.432 84.0535 365.176 83.3175 365.176C82.8375 365.176 82.4162 365.293 82.0535 365.528C81.6908 365.752 81.4082 366.088 81.2055 366.536C81.0135 366.973 80.9175 367.517 80.9175 368.168C80.9175 369.128 81.1362 369.869 81.5735 370.392C82.0108 370.904 82.5922 371.16 83.3175 371.16ZM92.2136 372.2C91.4563 372.2 90.8003 372.034 90.2456 371.704C89.691 371.373 89.259 370.909 88.9496 370.312C88.651 369.704 88.5016 368.989 88.5016 368.168C88.5016 367.549 88.587 366.994 88.7576 366.504C88.9283 366.002 89.179 365.576 89.5096 365.224C89.8403 364.872 90.2296 364.605 90.6776 364.424C91.1363 364.232 91.6483 364.136 92.2136 364.136C92.971 364.136 93.627 364.301 94.1816 364.632C94.7363 364.962 95.163 365.432 95.4616 366.04C95.771 366.637 95.9256 367.346 95.9256 368.168C95.9256 368.786 95.8403 369.341 95.6696 369.832C95.499 370.322 95.2483 370.749 94.9176 371.112C94.587 371.464 94.1923 371.736 93.7336 371.928C93.2856 372.109 92.779 372.2 92.2136 372.2ZM92.2136 371.16C92.6936 371.16 93.115 371.042 93.4776 370.808C93.8403 370.573 94.1176 370.232 94.3096 369.784C94.5123 369.336 94.6136 368.797 94.6136 368.168C94.6136 367.197 94.395 366.456 93.9576 365.944C93.531 365.432 92.9496 365.176 92.2136 365.176C91.723 365.176 91.2963 365.293 90.9336 365.528C90.5816 365.752 90.3043 366.088 90.1016 366.536C89.9096 366.973 89.8136 367.517 89.8136 368.168C89.8136 369.128 90.0323 369.869 90.4696 370.392C90.907 370.904 91.4883 371.16 92.2136 371.16ZM100.914 372.2C100.306 372.2 99.7941 372.093 99.3781 371.88C98.9728 371.656 98.6688 371.336 98.4661 370.92C98.2635 370.493 98.1621 369.976 98.1621 369.368V365.288H97.0901C96.9088 365.288 96.7701 365.245 96.6741 365.16C96.5781 365.064 96.5301 364.936 96.5301 364.776C96.5301 364.616 96.5781 364.493 96.6741 364.408C96.7701 364.322 96.9088 364.28 97.0901 364.28H98.1621V362.44C98.1621 362.226 98.2208 362.066 98.3381 361.96C98.4555 361.842 98.6155 361.784 98.8181 361.784C99.0208 361.784 99.1755 361.842 99.2821 361.96C99.3995 362.066 99.4581 362.226 99.4581 362.44V364.28H101.474C101.655 364.28 101.794 364.322 101.89 364.408C101.986 364.493 102.034 364.616 102.034 364.776C102.034 364.936 101.986 365.064 101.89 365.16C101.794 365.245 101.655 365.288 101.474 365.288H99.4581V369.24C99.4581 369.848 99.5861 370.312 99.8421 370.632C100.098 370.941 100.514 371.096 101.09 371.096C101.293 371.096 101.463 371.074 101.602 371.032C101.751 370.989 101.874 370.968 101.97 370.968C102.066 370.957 102.146 370.989 102.21 371.064C102.274 371.138 102.306 371.266 102.306 371.448C102.306 371.576 102.279 371.693 102.226 371.8C102.183 371.906 102.103 371.981 101.986 372.024C101.858 372.066 101.687 372.104 101.474 372.136C101.271 372.178 101.085 372.2 100.914 372.2ZM111.449 372.2C110.745 372.2 110.137 372.018 109.625 371.656C109.124 371.293 108.788 370.808 108.617 370.2L108.793 370.024V371.496C108.793 371.709 108.734 371.874 108.617 371.992C108.51 372.109 108.356 372.168 108.153 372.168C107.94 372.168 107.78 372.109 107.673 371.992C107.566 371.874 107.513 371.709 107.513 371.496V361.32C107.513 361.106 107.566 360.946 107.673 360.84C107.78 360.722 107.94 360.664 108.153 360.664C108.356 360.664 108.516 360.722 108.633 360.84C108.75 360.946 108.809 361.106 108.809 361.32V366.088H108.617C108.798 365.49 109.14 365.016 109.641 364.664C110.142 364.312 110.745 364.136 111.449 364.136C112.153 364.136 112.761 364.301 113.273 364.632C113.785 364.952 114.18 365.416 114.457 366.024C114.745 366.621 114.889 367.336 114.889 368.168C114.889 368.989 114.745 369.704 114.457 370.312C114.18 370.909 113.78 371.373 113.257 371.704C112.745 372.034 112.142 372.2 111.449 372.2ZM111.177 371.16C111.668 371.16 112.089 371.042 112.441 370.808C112.804 370.573 113.081 370.232 113.273 369.784C113.476 369.336 113.577 368.797 113.577 368.168C113.577 367.197 113.358 366.456 112.921 365.944C112.494 365.432 111.913 365.176 111.177 365.176C110.697 365.176 110.276 365.293 109.913 365.528C109.55 365.752 109.268 366.088 109.065 366.536C108.873 366.973 108.777 367.517 108.777 368.168C108.777 369.128 108.996 369.869 109.433 370.392C109.87 370.904 110.452 371.16 111.177 371.16ZM120.073 372.2C119.316 372.2 118.66 372.034 118.105 371.704C117.55 371.373 117.118 370.909 116.809 370.312C116.51 369.704 116.361 368.989 116.361 368.168C116.361 367.549 116.446 366.994 116.617 366.504C116.788 366.002 117.038 365.576 117.369 365.224C117.7 364.872 118.089 364.605 118.537 364.424C118.996 364.232 119.508 364.136 120.073 364.136C120.83 364.136 121.486 364.301 122.041 364.632C122.596 364.962 123.022 365.432 123.321 366.04C123.63 366.637 123.785 367.346 123.785 368.168C123.785 368.786 123.7 369.341 123.529 369.832C123.358 370.322 123.108 370.749 122.777 371.112C122.446 371.464 122.052 371.736 121.593 371.928C121.145 372.109 120.638 372.2 120.073 372.2ZM120.073 371.16C120.553 371.16 120.974 371.042 121.337 370.808C121.7 370.573 121.977 370.232 122.169 369.784C122.372 369.336 122.473 368.797 122.473 368.168C122.473 367.197 122.254 366.456 121.817 365.944C121.39 365.432 120.809 365.176 120.073 365.176C119.582 365.176 119.156 365.293 118.793 365.528C118.441 365.752 118.164 366.088 117.961 366.536C117.769 366.973 117.673 367.517 117.673 368.168C117.673 369.128 117.892 369.869 118.329 370.392C118.766 370.904 119.348 371.16 120.073 371.16ZM128.964 372.2C128.206 372.2 127.55 372.034 126.996 371.704C126.441 371.373 126.009 370.909 125.7 370.312C125.401 369.704 125.252 368.989 125.252 368.168C125.252 367.549 125.337 366.994 125.508 366.504C125.678 366.002 125.929 365.576 126.26 365.224C126.59 364.872 126.98 364.605 127.428 364.424C127.886 364.232 128.398 364.136 128.964 364.136C129.721 364.136 130.377 364.301 130.932 364.632C131.486 364.962 131.913 365.432 132.212 366.04C132.521 366.637 132.676 367.346 132.676 368.168C132.676 368.786 132.59 369.341 132.42 369.832C132.249 370.322 131.998 370.749 131.668 371.112C131.337 371.464 130.942 371.736 130.484 371.928C130.036 372.109 129.529 372.2 128.964 372.2ZM128.964 371.16C129.444 371.16 129.865 371.042 130.228 370.808C130.59 370.573 130.868 370.232 131.06 369.784C131.262 369.336 131.364 368.797 131.364 368.168C131.364 367.197 131.145 366.456 130.708 365.944C130.281 365.432 129.7 365.176 128.964 365.176C128.473 365.176 128.046 365.293 127.684 365.528C127.332 365.752 127.054 366.088 126.852 366.536C126.66 366.973 126.564 367.517 126.564 368.168C126.564 369.128 126.782 369.869 127.22 370.392C127.657 370.904 128.238 371.16 128.964 371.16ZM135.262 372.168C135.049 372.168 134.889 372.109 134.782 371.992C134.676 371.874 134.622 371.709 134.622 371.496V361.32C134.622 361.106 134.676 360.946 134.782 360.84C134.889 360.722 135.049 360.664 135.262 360.664C135.465 360.664 135.625 360.722 135.742 360.84C135.86 360.946 135.918 361.106 135.918 361.32V367.736H135.95L139.23 364.6C139.38 364.461 139.508 364.354 139.614 364.28C139.732 364.205 139.886 364.168 140.078 364.168C140.249 364.168 140.382 364.216 140.478 364.312C140.574 364.397 140.617 364.509 140.606 364.648C140.606 364.776 140.542 364.914 140.414 365.064L136.926 368.376V367.672L140.718 371.24C140.868 371.389 140.942 371.533 140.942 371.672C140.942 371.81 140.889 371.928 140.782 372.024C140.686 372.12 140.558 372.168 140.398 372.168C140.206 372.168 140.052 372.13 139.934 372.056C139.817 371.97 139.673 371.848 139.502 371.688L135.95 368.408H135.918V371.496C135.918 371.944 135.7 372.168 135.262 372.168ZM143.262 372.136C143.049 372.136 142.889 372.077 142.782 371.96C142.676 371.832 142.622 371.656 142.622 371.432V364.888C142.622 364.664 142.676 364.493 142.782 364.376C142.889 364.258 143.049 364.2 143.262 364.2C143.465 364.2 143.625 364.258 143.742 364.376C143.86 364.493 143.918 364.664 143.918 364.888V371.432C143.918 371.656 143.86 371.832 143.742 371.96C143.636 372.077 143.476 372.136 143.262 372.136ZM143.262 362.408C142.996 362.408 142.788 362.338 142.638 362.2C142.489 362.05 142.414 361.853 142.414 361.608C142.414 361.352 142.489 361.16 142.638 361.032C142.788 360.893 142.996 360.824 143.262 360.824C143.54 360.824 143.748 360.893 143.886 361.032C144.036 361.16 144.11 361.352 144.11 361.608C144.11 361.853 144.036 362.05 143.886 362.2C143.748 362.338 143.54 362.408 143.262 362.408ZM146.981 372.168C146.768 372.168 146.608 372.109 146.501 371.992C146.394 371.874 146.341 371.709 146.341 371.496V364.824C146.341 364.61 146.394 364.45 146.501 364.344C146.608 364.226 146.762 364.168 146.965 364.168C147.168 364.168 147.322 364.226 147.429 364.344C147.546 364.45 147.605 364.61 147.605 364.824V366.2L147.429 366.008C147.653 365.389 148.016 364.925 148.517 364.616C149.029 364.296 149.616 364.136 150.277 364.136C150.896 364.136 151.408 364.248 151.813 364.472C152.229 364.696 152.538 365.037 152.741 365.496C152.944 365.944 153.045 366.514 153.045 367.208V371.496C153.045 371.709 152.986 371.874 152.869 371.992C152.762 372.109 152.608 372.168 152.405 372.168C152.192 372.168 152.026 372.109 151.909 371.992C151.802 371.874 151.749 371.709 151.749 371.496V367.288C151.749 366.562 151.605 366.034 151.317 365.704C151.04 365.362 150.592 365.192 149.973 365.192C149.258 365.192 148.688 365.416 148.261 365.864C147.845 366.301 147.637 366.888 147.637 367.624V371.496C147.637 371.944 147.418 372.168 146.981 372.168ZM158.875 375.08C158.309 375.08 157.755 375.01 157.211 374.872C156.677 374.744 156.192 374.536 155.755 374.248C155.627 374.173 155.541 374.082 155.499 373.976C155.467 373.869 155.461 373.762 155.483 373.656C155.504 373.56 155.552 373.469 155.627 373.384C155.701 373.309 155.787 373.261 155.883 373.24C155.989 373.218 156.096 373.234 156.203 373.288C156.672 373.576 157.12 373.773 157.547 373.88C157.973 373.986 158.395 374.04 158.811 374.04C159.568 374.04 160.139 373.837 160.523 373.432C160.917 373.026 161.115 372.44 161.115 371.672V369.864H161.275C161.115 370.482 160.773 370.973 160.251 371.336C159.739 371.698 159.136 371.88 158.443 371.88C157.728 371.88 157.109 371.72 156.587 371.4C156.064 371.069 155.659 370.61 155.371 370.024C155.093 369.437 154.955 368.76 154.955 367.992C154.955 367.416 155.035 366.893 155.195 366.424C155.355 365.944 155.584 365.538 155.883 365.208C156.192 364.866 156.56 364.605 156.987 364.424C157.424 364.232 157.909 364.136 158.443 364.136C159.147 364.136 159.755 364.317 160.267 364.68C160.779 365.032 161.109 365.512 161.259 366.12L161.099 366.312V364.824C161.099 364.61 161.152 364.45 161.259 364.344C161.376 364.226 161.536 364.168 161.739 364.168C161.952 364.168 162.112 364.226 162.219 364.344C162.325 364.45 162.379 364.61 162.379 364.824V371.496C162.379 372.68 162.08 373.57 161.483 374.168C160.896 374.776 160.027 375.08 158.875 375.08ZM158.683 370.824C159.184 370.824 159.616 370.712 159.979 370.488C160.341 370.253 160.619 369.922 160.811 369.496C161.013 369.069 161.115 368.568 161.115 367.992C161.115 367.128 160.896 366.445 160.459 365.944C160.021 365.432 159.429 365.176 158.683 365.176C158.192 365.176 157.765 365.293 157.403 365.528C157.04 365.752 156.757 366.077 156.555 366.504C156.363 366.92 156.267 367.416 156.267 367.992C156.267 368.856 156.485 369.544 156.923 370.056C157.36 370.568 157.947 370.824 158.683 370.824ZM169.575 372.168C169.361 372.168 169.201 372.109 169.095 371.992C168.988 371.874 168.935 371.709 168.935 371.496V361.32C168.935 361.106 168.988 360.946 169.095 360.84C169.201 360.722 169.361 360.664 169.575 360.664C169.777 360.664 169.937 360.722 170.055 360.84C170.172 360.946 170.231 361.106 170.231 361.32V366.008H170.023C170.247 365.389 170.609 364.925 171.111 364.616C171.623 364.296 172.209 364.136 172.871 364.136C173.489 364.136 174.001 364.248 174.407 364.472C174.823 364.696 175.132 365.037 175.335 365.496C175.537 365.944 175.639 366.514 175.639 367.208V371.496C175.639 371.709 175.58 371.874 175.463 371.992C175.356 372.109 175.201 372.168 174.999 372.168C174.785 372.168 174.62 372.109 174.503 371.992C174.396 371.874 174.343 371.709 174.343 371.496V367.288C174.343 366.562 174.199 366.034 173.911 365.704C173.633 365.362 173.185 365.192 172.567 365.192C171.852 365.192 171.281 365.416 170.855 365.864C170.439 366.301 170.231 366.888 170.231 367.624V371.496C170.231 371.944 170.012 372.168 169.575 372.168ZM180.477 372.2C179.943 372.2 179.463 372.098 179.037 371.896C178.621 371.682 178.29 371.394 178.045 371.032C177.799 370.669 177.677 370.264 177.677 369.816C177.677 369.24 177.821 368.786 178.109 368.456C178.407 368.125 178.893 367.89 179.565 367.752C180.247 367.613 181.175 367.544 182.349 367.544H183.069V368.392H182.365C181.501 368.392 180.818 368.434 180.317 368.52C179.826 368.594 179.479 368.728 179.277 368.92C179.085 369.112 178.989 369.384 178.989 369.736C178.989 370.173 179.138 370.53 179.437 370.808C179.746 371.085 180.162 371.224 180.685 371.224C181.111 371.224 181.485 371.122 181.805 370.92C182.135 370.717 182.391 370.44 182.573 370.088C182.765 369.736 182.861 369.33 182.861 368.872V367.048C182.861 366.386 182.727 365.912 182.461 365.624C182.194 365.325 181.757 365.176 181.149 365.176C180.775 365.176 180.402 365.224 180.029 365.32C179.655 365.416 179.261 365.57 178.845 365.784C178.695 365.858 178.567 365.885 178.461 365.864C178.354 365.832 178.269 365.773 178.205 365.688C178.141 365.602 178.103 365.506 178.093 365.4C178.082 365.282 178.103 365.17 178.157 365.064C178.221 364.957 178.317 364.872 178.445 364.808C178.914 364.573 179.378 364.402 179.837 364.296C180.295 364.189 180.733 364.136 181.149 364.136C181.821 364.136 182.375 364.248 182.813 364.472C183.25 364.685 183.575 365.016 183.789 365.464C184.002 365.901 184.109 366.466 184.109 367.16V371.496C184.109 371.709 184.055 371.874 183.949 371.992C183.853 372.109 183.709 372.168 183.517 372.168C183.314 372.168 183.159 372.109 183.053 371.992C182.946 371.874 182.893 371.709 182.893 371.496V370.248H183.037C182.951 370.653 182.786 371 182.541 371.288C182.306 371.576 182.013 371.8 181.661 371.96C181.309 372.12 180.914 372.2 180.477 372.2ZM189.137 372.2C188.657 372.2 188.172 372.141 187.681 372.024C187.201 371.906 186.753 371.704 186.337 371.416C186.23 371.341 186.156 371.256 186.113 371.16C186.07 371.053 186.054 370.952 186.065 370.856C186.086 370.749 186.129 370.658 186.193 370.584C186.268 370.509 186.353 370.466 186.449 370.456C186.556 370.434 186.673 370.456 186.801 370.52C187.217 370.776 187.617 370.957 188.001 371.064C188.396 371.16 188.785 371.208 189.169 371.208C189.777 371.208 190.236 371.096 190.545 370.872C190.854 370.648 191.009 370.344 191.009 369.96C191.009 369.661 190.908 369.426 190.705 369.256C190.502 369.074 190.182 368.936 189.745 368.84L188.289 368.52C187.617 368.381 187.116 368.141 186.785 367.8C186.465 367.458 186.305 367.016 186.305 366.472C186.305 365.992 186.428 365.581 186.673 365.24C186.929 364.888 187.286 364.616 187.745 364.424C188.204 364.232 188.737 364.136 189.345 364.136C189.814 364.136 190.257 364.2 190.673 364.328C191.1 364.445 191.484 364.637 191.825 364.904C191.932 364.978 192.001 365.069 192.033 365.176C192.076 365.272 192.081 365.373 192.049 365.48C192.028 365.576 191.98 365.661 191.905 365.736C191.83 365.8 191.74 365.837 191.633 365.848C191.526 365.858 191.414 365.826 191.297 365.752C190.977 365.538 190.652 365.384 190.321 365.288C189.99 365.181 189.665 365.128 189.345 365.128C188.748 365.128 188.294 365.245 187.985 365.48C187.676 365.714 187.521 366.024 187.521 366.408C187.521 366.706 187.617 366.952 187.809 367.144C188.001 367.336 188.3 367.474 188.705 367.56L190.161 367.864C190.854 368.013 191.372 368.253 191.713 368.584C192.065 368.904 192.241 369.341 192.241 369.896C192.241 370.6 191.958 371.16 191.393 371.576C190.828 371.992 190.076 372.2 189.137 372.2ZM202.277 372.2C201.573 372.2 200.965 372.018 200.453 371.656C199.952 371.293 199.616 370.808 199.445 370.2L199.621 370.024V371.496C199.621 371.709 199.562 371.874 199.445 371.992C199.338 372.109 199.184 372.168 198.981 372.168C198.768 372.168 198.608 372.109 198.501 371.992C198.394 371.874 198.341 371.709 198.341 371.496V361.32C198.341 361.106 198.394 360.946 198.501 360.84C198.608 360.722 198.768 360.664 198.981 360.664C199.184 360.664 199.344 360.722 199.461 360.84C199.578 360.946 199.637 361.106 199.637 361.32V366.088H199.445C199.626 365.49 199.968 365.016 200.469 364.664C200.97 364.312 201.573 364.136 202.277 364.136C202.981 364.136 203.589 364.301 204.101 364.632C204.613 364.952 205.008 365.416 205.285 366.024C205.573 366.621 205.717 367.336 205.717 368.168C205.717 368.989 205.573 369.704 205.285 370.312C205.008 370.909 204.608 371.373 204.085 371.704C203.573 372.034 202.97 372.2 202.277 372.2ZM202.005 371.16C202.496 371.16 202.917 371.042 203.269 370.808C203.632 370.573 203.909 370.232 204.101 369.784C204.304 369.336 204.405 368.797 204.405 368.168C204.405 367.197 204.186 366.456 203.749 365.944C203.322 365.432 202.741 365.176 202.005 365.176C201.525 365.176 201.104 365.293 200.741 365.528C200.378 365.752 200.096 366.088 199.893 366.536C199.701 366.973 199.605 367.517 199.605 368.168C199.605 369.128 199.824 369.869 200.261 370.392C200.698 370.904 201.28 371.16 202.005 371.16ZM211.173 372.2C210.352 372.2 209.642 372.04 209.045 371.72C208.458 371.389 208 370.925 207.669 370.328C207.349 369.73 207.189 369.016 207.189 368.184C207.189 367.373 207.349 366.669 207.669 366.072C207.989 365.464 208.426 364.989 208.981 364.648C209.546 364.306 210.197 364.136 210.933 364.136C211.456 364.136 211.925 364.226 212.341 364.408C212.757 364.578 213.109 364.829 213.397 365.16C213.696 365.49 213.92 365.89 214.069 366.36C214.229 366.829 214.309 367.357 214.309 367.944C214.309 368.114 214.261 368.242 214.165 368.328C214.069 368.402 213.93 368.44 213.749 368.44H208.181V367.592H213.445L213.189 367.8C213.189 367.224 213.104 366.738 212.933 366.344C212.762 365.938 212.512 365.629 212.181 365.416C211.861 365.202 211.456 365.096 210.965 365.096C210.421 365.096 209.957 365.224 209.573 365.48C209.2 365.725 208.917 366.072 208.725 366.52C208.533 366.957 208.437 367.469 208.437 368.056V368.152C208.437 369.133 208.672 369.88 209.141 370.392C209.621 370.904 210.298 371.16 211.173 371.16C211.536 371.16 211.893 371.112 212.245 371.016C212.608 370.92 212.96 370.76 213.301 370.536C213.45 370.44 213.584 370.397 213.701 370.408C213.829 370.408 213.93 370.445 214.005 370.52C214.08 370.584 214.128 370.669 214.149 370.776C214.181 370.872 214.17 370.978 214.117 371.096C214.074 371.213 213.984 371.314 213.845 371.4C213.493 371.656 213.077 371.853 212.597 371.992C212.117 372.13 211.642 372.2 211.173 372.2ZM219.689 372.2C218.867 372.2 218.158 372.04 217.561 371.72C216.974 371.389 216.515 370.925 216.185 370.328C215.865 369.73 215.705 369.016 215.705 368.184C215.705 367.373 215.865 366.669 216.185 366.072C216.505 365.464 216.942 364.989 217.497 364.648C218.062 364.306 218.713 364.136 219.449 364.136C219.971 364.136 220.441 364.226 220.857 364.408C221.273 364.578 221.625 364.829 221.913 365.16C222.211 365.49 222.435 365.89 222.585 366.36C222.745 366.829 222.825 367.357 222.825 367.944C222.825 368.114 222.777 368.242 222.681 368.328C222.585 368.402 222.446 368.44 222.265 368.44H216.697V367.592H221.961L221.705 367.8C221.705 367.224 221.619 366.738 221.449 366.344C221.278 365.938 221.027 365.629 220.697 365.416C220.377 365.202 219.971 365.096 219.481 365.096C218.937 365.096 218.473 365.224 218.089 365.48C217.715 365.725 217.433 366.072 217.241 366.52C217.049 366.957 216.953 367.469 216.953 368.056V368.152C216.953 369.133 217.187 369.88 217.657 370.392C218.137 370.904 218.814 371.16 219.689 371.16C220.051 371.16 220.409 371.112 220.761 371.016C221.123 370.92 221.475 370.76 221.817 370.536C221.966 370.44 222.099 370.397 222.217 370.408C222.345 370.408 222.446 370.445 222.521 370.52C222.595 370.584 222.643 370.669 222.665 370.776C222.697 370.872 222.686 370.978 222.633 371.096C222.59 371.213 222.499 371.314 222.361 371.4C222.009 371.656 221.593 371.853 221.113 371.992C220.633 372.13 220.158 372.2 219.689 372.2ZM225.34 372.168C225.127 372.168 224.967 372.109 224.86 371.992C224.754 371.874 224.7 371.709 224.7 371.496V364.824C224.7 364.61 224.754 364.45 224.86 364.344C224.967 364.226 225.122 364.168 225.324 364.168C225.527 364.168 225.682 364.226 225.788 364.344C225.906 364.45 225.964 364.61 225.964 364.824V366.2L225.788 366.008C226.012 365.389 226.375 364.925 226.876 364.616C227.388 364.296 227.975 364.136 228.636 364.136C229.255 364.136 229.767 364.248 230.172 364.472C230.588 364.696 230.898 365.037 231.1 365.496C231.303 365.944 231.404 366.514 231.404 367.208V371.496C231.404 371.709 231.346 371.874 231.228 371.992C231.122 372.109 230.967 372.168 230.764 372.168C230.551 372.168 230.386 372.109 230.268 371.992C230.162 371.874 230.108 371.709 230.108 371.496V367.288C230.108 366.562 229.964 366.034 229.676 365.704C229.399 365.362 228.951 365.192 228.332 365.192C227.618 365.192 227.047 365.416 226.62 365.864C226.204 366.301 225.996 366.888 225.996 367.624V371.496C225.996 371.944 225.778 372.168 225.34 372.168ZM240.543 372.2C240.063 372.2 239.578 372.141 239.087 372.024C238.607 371.906 238.159 371.704 237.743 371.416C237.636 371.341 237.562 371.256 237.519 371.16C237.476 371.053 237.46 370.952 237.471 370.856C237.492 370.749 237.535 370.658 237.599 370.584C237.674 370.509 237.759 370.466 237.855 370.456C237.962 370.434 238.079 370.456 238.207 370.52C238.623 370.776 239.023 370.957 239.407 371.064C239.802 371.16 240.191 371.208 240.575 371.208C241.183 371.208 241.642 371.096 241.951 370.872C242.26 370.648 242.415 370.344 242.415 369.96C242.415 369.661 242.314 369.426 242.111 369.256C241.908 369.074 241.588 368.936 241.151 368.84L239.695 368.52C239.023 368.381 238.522 368.141 238.191 367.8C237.871 367.458 237.711 367.016 237.711 366.472C237.711 365.992 237.834 365.581 238.079 365.24C238.335 364.888 238.692 364.616 239.151 364.424C239.61 364.232 240.143 364.136 240.751 364.136C241.22 364.136 241.663 364.2 242.079 364.328C242.506 364.445 242.89 364.637 243.231 364.904C243.338 364.978 243.407 365.069 243.439 365.176C243.482 365.272 243.487 365.373 243.455 365.48C243.434 365.576 243.386 365.661 243.311 365.736C243.236 365.8 243.146 365.837 243.039 365.848C242.932 365.858 242.82 365.826 242.703 365.752C242.383 365.538 242.058 365.384 241.727 365.288C241.396 365.181 241.071 365.128 240.751 365.128C240.154 365.128 239.7 365.245 239.391 365.48C239.082 365.714 238.927 366.024 238.927 366.408C238.927 366.706 239.023 366.952 239.215 367.144C239.407 367.336 239.706 367.474 240.111 367.56L241.567 367.864C242.26 368.013 242.778 368.253 243.119 368.584C243.471 368.904 243.647 369.341 243.647 369.896C243.647 370.6 243.364 371.16 242.799 371.576C242.234 371.992 241.482 372.2 240.543 372.2ZM248.374 372.2C247.745 372.2 247.222 372.088 246.806 371.864C246.401 371.629 246.092 371.282 245.878 370.824C245.676 370.365 245.574 369.794 245.574 369.112V364.824C245.574 364.6 245.628 364.434 245.734 364.328C245.852 364.221 246.012 364.168 246.214 364.168C246.428 364.168 246.588 364.221 246.694 364.328C246.812 364.434 246.87 364.6 246.87 364.824V369.096C246.87 369.778 247.009 370.29 247.286 370.632C247.574 370.962 248.022 371.128 248.63 371.128C249.292 371.128 249.83 370.904 250.246 370.456C250.662 370.008 250.87 369.421 250.87 368.696V364.824C250.87 364.6 250.924 364.434 251.03 364.328C251.148 364.221 251.313 364.168 251.526 364.168C251.729 364.168 251.884 364.221 251.99 364.328C252.108 364.434 252.166 364.6 252.166 364.824V371.496C252.166 371.944 251.958 372.168 251.542 372.168C251.34 372.168 251.18 372.109 251.062 371.992C250.956 371.874 250.902 371.709 250.902 371.496V370.04L251.11 370.264C250.897 370.893 250.545 371.373 250.054 371.704C249.574 372.034 249.014 372.2 248.374 372.2ZM257.887 372.2C257.108 372.2 256.436 372.029 255.871 371.688C255.306 371.346 254.868 370.872 254.559 370.264C254.26 369.645 254.111 368.93 254.111 368.12C254.111 367.501 254.196 366.946 254.367 366.456C254.538 365.965 254.788 365.549 255.119 365.208C255.45 364.856 255.844 364.589 256.303 364.408C256.772 364.226 257.3 364.136 257.887 364.136C258.271 364.136 258.671 364.194 259.087 364.312C259.503 364.429 259.882 364.632 260.223 364.92C260.33 364.994 260.399 365.085 260.431 365.192C260.463 365.298 260.463 365.405 260.431 365.512C260.399 365.608 260.346 365.693 260.271 365.768C260.196 365.832 260.1 365.869 259.983 365.88C259.876 365.89 259.764 365.853 259.647 365.768C259.37 365.554 259.087 365.405 258.799 365.32C258.511 365.234 258.234 365.192 257.967 365.192C257.551 365.192 257.188 365.261 256.879 365.4C256.57 365.528 256.308 365.714 256.095 365.96C255.882 366.205 255.716 366.509 255.599 366.872C255.492 367.234 255.439 367.656 255.439 368.136C255.439 369.064 255.658 369.8 256.095 370.344C256.532 370.877 257.156 371.144 257.967 371.144C258.234 371.144 258.506 371.101 258.783 371.016C259.071 370.93 259.359 370.781 259.647 370.568C259.764 370.482 259.876 370.445 259.983 370.456C260.09 370.466 260.18 370.509 260.255 370.584C260.33 370.648 260.378 370.733 260.399 370.84C260.431 370.946 260.431 371.053 260.399 371.16C260.367 371.256 260.298 371.341 260.191 371.416C259.85 371.693 259.476 371.896 259.071 372.024C258.666 372.141 258.271 372.2 257.887 372.2ZM265.137 372.2C264.358 372.2 263.686 372.029 263.121 371.688C262.556 371.346 262.118 370.872 261.809 370.264C261.51 369.645 261.361 368.93 261.361 368.12C261.361 367.501 261.446 366.946 261.617 366.456C261.788 365.965 262.038 365.549 262.369 365.208C262.7 364.856 263.094 364.589 263.553 364.408C264.022 364.226 264.55 364.136 265.137 364.136C265.521 364.136 265.921 364.194 266.337 364.312C266.753 364.429 267.132 364.632 267.473 364.92C267.58 364.994 267.649 365.085 267.681 365.192C267.713 365.298 267.713 365.405 267.681 365.512C267.649 365.608 267.596 365.693 267.521 365.768C267.446 365.832 267.35 365.869 267.233 365.88C267.126 365.89 267.014 365.853 266.897 365.768C266.62 365.554 266.337 365.405 266.049 365.32C265.761 365.234 265.484 365.192 265.217 365.192C264.801 365.192 264.438 365.261 264.129 365.4C263.82 365.528 263.558 365.714 263.345 365.96C263.132 366.205 262.966 366.509 262.849 366.872C262.742 367.234 262.689 367.656 262.689 368.136C262.689 369.064 262.908 369.8 263.345 370.344C263.782 370.877 264.406 371.144 265.217 371.144C265.484 371.144 265.756 371.101 266.033 371.016C266.321 370.93 266.609 370.781 266.897 370.568C267.014 370.482 267.126 370.445 267.233 370.456C267.34 370.466 267.43 370.509 267.505 370.584C267.58 370.648 267.628 370.733 267.649 370.84C267.681 370.946 267.681 371.053 267.649 371.16C267.617 371.256 267.548 371.341 267.441 371.416C267.1 371.693 266.726 371.896 266.321 372.024C265.916 372.141 265.521 372.2 265.137 372.2ZM272.595 372.2C271.774 372.2 271.064 372.04 270.467 371.72C269.88 371.389 269.422 370.925 269.091 370.328C268.771 369.73 268.611 369.016 268.611 368.184C268.611 367.373 268.771 366.669 269.091 366.072C269.411 365.464 269.848 364.989 270.403 364.648C270.968 364.306 271.619 364.136 272.355 364.136C272.878 364.136 273.347 364.226 273.763 364.408C274.179 364.578 274.531 364.829 274.819 365.16C275.118 365.49 275.342 365.89 275.491 366.36C275.651 366.829 275.731 367.357 275.731 367.944C275.731 368.114 275.683 368.242 275.587 368.328C275.491 368.402 275.352 368.44 275.171 368.44H269.603V367.592H274.867L274.611 367.8C274.611 367.224 274.526 366.738 274.355 366.344C274.184 365.938 273.934 365.629 273.603 365.416C273.283 365.202 272.878 365.096 272.387 365.096C271.843 365.096 271.379 365.224 270.995 365.48C270.622 365.725 270.339 366.072 270.147 366.52C269.955 366.957 269.859 367.469 269.859 368.056V368.152C269.859 369.133 270.094 369.88 270.563 370.392C271.043 370.904 271.72 371.16 272.595 371.16C272.958 371.16 273.315 371.112 273.667 371.016C274.03 370.92 274.382 370.76 274.723 370.536C274.872 370.44 275.006 370.397 275.123 370.408C275.251 370.408 275.352 370.445 275.427 370.52C275.502 370.584 275.55 370.669 275.571 370.776C275.603 370.872 275.592 370.978 275.539 371.096C275.496 371.213 275.406 371.314 275.267 371.4C274.915 371.656 274.499 371.853 274.019 371.992C273.539 372.13 273.064 372.2 272.595 372.2ZM280.231 372.2C279.751 372.2 279.265 372.141 278.775 372.024C278.295 371.906 277.847 371.704 277.431 371.416C277.324 371.341 277.249 371.256 277.207 371.16C277.164 371.053 277.148 370.952 277.159 370.856C277.18 370.749 277.223 370.658 277.287 370.584C277.361 370.509 277.447 370.466 277.543 370.456C277.649 370.434 277.767 370.456 277.895 370.52C278.311 370.776 278.711 370.957 279.095 371.064C279.489 371.16 279.879 371.208 280.263 371.208C280.871 371.208 281.329 371.096 281.639 370.872C281.948 370.648 282.103 370.344 282.103 369.96C282.103 369.661 282.001 369.426 281.799 369.256C281.596 369.074 281.276 368.936 280.839 368.84L279.383 368.52C278.711 368.381 278.209 368.141 277.879 367.8C277.559 367.458 277.399 367.016 277.399 366.472C277.399 365.992 277.521 365.581 277.767 365.24C278.023 364.888 278.38 364.616 278.839 364.424C279.297 364.232 279.831 364.136 280.439 364.136C280.908 364.136 281.351 364.2 281.767 364.328C282.193 364.445 282.577 364.637 282.919 364.904C283.025 364.978 283.095 365.069 283.127 365.176C283.169 365.272 283.175 365.373 283.143 365.48C283.121 365.576 283.073 365.661 282.999 365.736C282.924 365.8 282.833 365.837 282.727 365.848C282.62 365.858 282.508 365.826 282.391 365.752C282.071 365.538 281.745 365.384 281.415 365.288C281.084 365.181 280.759 365.128 280.439 365.128C279.841 365.128 279.388 365.245 279.079 365.48C278.769 365.714 278.615 366.024 278.615 366.408C278.615 366.706 278.711 366.952 278.903 367.144C279.095 367.336 279.393 367.474 279.799 367.56L281.255 367.864C281.948 368.013 282.465 368.253 282.807 368.584C283.159 368.904 283.335 369.341 283.335 369.896C283.335 370.6 283.052 371.16 282.487 371.576C281.921 371.992 281.169 372.2 280.231 372.2ZM287.934 372.2C287.454 372.2 286.968 372.141 286.478 372.024C285.998 371.906 285.55 371.704 285.134 371.416C285.027 371.341 284.952 371.256 284.91 371.16C284.867 371.053 284.851 370.952 284.862 370.856C284.883 370.749 284.926 370.658 284.99 370.584C285.064 370.509 285.15 370.466 285.246 370.456C285.352 370.434 285.47 370.456 285.598 370.52C286.014 370.776 286.414 370.957 286.798 371.064C287.192 371.16 287.582 371.208 287.966 371.208C288.574 371.208 289.032 371.096 289.342 370.872C289.651 370.648 289.806 370.344 289.806 369.96C289.806 369.661 289.704 369.426 289.502 369.256C289.299 369.074 288.979 368.936 288.542 368.84L287.086 368.52C286.414 368.381 285.912 368.141 285.582 367.8C285.262 367.458 285.102 367.016 285.102 366.472C285.102 365.992 285.224 365.581 285.47 365.24C285.726 364.888 286.083 364.616 286.542 364.424C287 364.232 287.534 364.136 288.142 364.136C288.611 364.136 289.054 364.2 289.47 364.328C289.896 364.445 290.28 364.637 290.622 364.904C290.728 364.978 290.798 365.069 290.83 365.176C290.872 365.272 290.878 365.373 290.846 365.48C290.824 365.576 290.776 365.661 290.702 365.736C290.627 365.8 290.536 365.837 290.43 365.848C290.323 365.858 290.211 365.826 290.094 365.752C289.774 365.538 289.448 365.384 289.118 365.288C288.787 365.181 288.462 365.128 288.142 365.128C287.544 365.128 287.091 365.245 286.782 365.48C286.472 365.714 286.318 366.024 286.318 366.408C286.318 366.706 286.414 366.952 286.606 367.144C286.798 367.336 287.096 367.474 287.502 367.56L288.958 367.864C289.651 368.013 290.168 368.253 290.51 368.584C290.862 368.904 291.038 369.341 291.038 369.896C291.038 370.6 290.755 371.16 290.19 371.576C289.624 371.992 288.872 372.2 287.934 372.2ZM294.069 372.168C293.866 372.168 293.706 372.109 293.589 371.992C293.482 371.874 293.429 371.709 293.429 371.496V365.288H292.405C292.234 365.288 292.096 365.245 291.989 365.16C291.893 365.064 291.845 364.936 291.845 364.776C291.845 364.616 291.893 364.493 291.989 364.408C292.096 364.322 292.234 364.28 292.405 364.28H293.781L293.429 364.616V364.008C293.429 362.994 293.674 362.221 294.165 361.688C294.666 361.154 295.397 360.845 296.357 360.76L296.821 360.712C296.97 360.701 297.088 360.728 297.173 360.792C297.269 360.856 297.328 360.936 297.349 361.032C297.381 361.128 297.386 361.229 297.365 361.336C297.344 361.432 297.296 361.517 297.221 361.592C297.146 361.666 297.056 361.709 296.949 361.72L296.581 361.752C295.93 361.805 295.456 362.002 295.157 362.344C294.869 362.685 294.725 363.186 294.725 363.848V364.52L294.533 364.28H296.453C296.634 364.28 296.773 364.322 296.869 364.408C296.965 364.493 297.013 364.616 297.013 364.776C297.013 364.936 296.965 365.064 296.869 365.16C296.773 365.245 296.634 365.288 296.453 365.288H294.725V371.496C294.725 371.944 294.506 372.168 294.069 372.168ZM301.093 372.2C300.464 372.2 299.941 372.088 299.525 371.864C299.12 371.629 298.81 371.282 298.597 370.824C298.394 370.365 298.293 369.794 298.293 369.112V364.824C298.293 364.6 298.346 364.434 298.453 364.328C298.57 364.221 298.73 364.168 298.933 364.168C299.146 364.168 299.306 364.221 299.413 364.328C299.53 364.434 299.589 364.6 299.589 364.824V369.096C299.589 369.778 299.728 370.29 300.005 370.632C300.293 370.962 300.741 371.128 301.349 371.128C302.01 371.128 302.549 370.904 302.965 370.456C303.381 370.008 303.589 369.421 303.589 368.696V364.824C303.589 364.6 303.642 364.434 303.749 364.328C303.866 364.221 304.032 364.168 304.245 364.168C304.448 364.168 304.602 364.221 304.709 364.328C304.826 364.434 304.885 364.6 304.885 364.824V371.496C304.885 371.944 304.677 372.168 304.261 372.168C304.058 372.168 303.898 372.109 303.781 371.992C303.674 371.874 303.621 371.709 303.621 371.496V370.04L303.829 370.264C303.616 370.893 303.264 371.373 302.773 371.704C302.293 372.034 301.733 372.2 301.093 372.2ZM309.678 372.2C308.91 372.2 308.323 371.965 307.918 371.496C307.512 371.026 307.31 370.354 307.31 369.48V361.32C307.31 361.106 307.363 360.946 307.47 360.84C307.576 360.722 307.736 360.664 307.95 360.664C308.152 360.664 308.312 360.722 308.43 360.84C308.547 360.946 308.606 361.106 308.606 361.32V369.384C308.606 369.96 308.718 370.392 308.942 370.68C309.176 370.957 309.518 371.096 309.966 371.096C310.062 371.096 310.147 371.09 310.222 371.08C310.296 371.069 310.371 371.064 310.446 371.064C310.563 371.053 310.643 371.08 310.686 371.144C310.739 371.208 310.766 371.336 310.766 371.528C310.766 371.72 310.723 371.864 310.638 371.96C310.552 372.056 310.414 372.12 310.222 372.152C310.136 372.162 310.046 372.173 309.95 372.184C309.854 372.194 309.763 372.2 309.678 372.2ZM314.412 372.2C313.644 372.2 313.057 371.965 312.652 371.496C312.247 371.026 312.044 370.354 312.044 369.48V361.32C312.044 361.106 312.097 360.946 312.204 360.84C312.311 360.722 312.471 360.664 312.684 360.664C312.887 360.664 313.047 360.722 313.164 360.84C313.281 360.946 313.34 361.106 313.34 361.32V369.384C313.34 369.96 313.452 370.392 313.676 370.68C313.911 370.957 314.252 371.096 314.7 371.096C314.796 371.096 314.881 371.09 314.956 371.08C315.031 371.069 315.105 371.064 315.18 371.064C315.297 371.053 315.377 371.08 315.42 371.144C315.473 371.208 315.5 371.336 315.5 371.528C315.5 371.72 315.457 371.864 315.372 371.96C315.287 372.056 315.148 372.12 314.956 372.152C314.871 372.162 314.78 372.173 314.684 372.184C314.588 372.194 314.497 372.2 314.412 372.2ZM318.335 375.048C318.175 375.048 318.047 375.005 317.951 374.92C317.855 374.834 317.796 374.717 317.775 374.568C317.764 374.429 317.791 374.285 317.855 374.136L318.959 371.656V372.216L315.887 365.08C315.823 364.92 315.801 364.77 315.823 364.632C315.844 364.493 315.908 364.381 316.015 364.296C316.121 364.21 316.271 364.168 316.463 364.168C316.633 364.168 316.767 364.205 316.863 364.28C316.959 364.354 317.044 364.488 317.119 364.68L319.743 371.112H319.311L321.967 364.68C322.052 364.488 322.143 364.354 322.239 364.28C322.335 364.205 322.473 364.168 322.655 364.168C322.825 364.168 322.953 364.21 323.039 364.296C323.135 364.381 323.188 364.493 323.199 364.632C323.22 364.76 323.199 364.904 323.135 365.064L319.039 374.536C318.953 374.728 318.857 374.861 318.751 374.936C318.655 375.01 318.516 375.048 318.335 375.048ZM329.606 372.168C329.393 372.168 329.228 372.109 329.11 371.992C329.004 371.874 328.95 371.709 328.95 371.496V364.824C328.95 364.61 329.004 364.45 329.11 364.344C329.217 364.226 329.372 364.168 329.574 364.168C329.777 364.168 329.932 364.226 330.038 364.344C330.156 364.45 330.214 364.61 330.214 364.824V366.12H330.054C330.225 365.49 330.55 365.005 331.03 364.664C331.51 364.322 332.102 364.141 332.806 364.12C332.966 364.109 333.094 364.146 333.19 364.232C333.286 364.306 333.34 364.44 333.35 364.632C333.361 364.813 333.318 364.957 333.222 365.064C333.126 365.17 332.977 365.234 332.774 365.256L332.518 365.288C331.793 365.352 331.233 365.586 330.838 365.992C330.454 366.386 330.262 366.93 330.262 367.624V371.496C330.262 371.709 330.204 371.874 330.086 371.992C329.98 372.109 329.82 372.168 329.606 372.168ZM338.095 372.2C337.274 372.2 336.564 372.04 335.967 371.72C335.38 371.389 334.922 370.925 334.591 370.328C334.271 369.73 334.111 369.016 334.111 368.184C334.111 367.373 334.271 366.669 334.591 366.072C334.911 365.464 335.348 364.989 335.903 364.648C336.468 364.306 337.119 364.136 337.855 364.136C338.378 364.136 338.847 364.226 339.263 364.408C339.679 364.578 340.031 364.829 340.319 365.16C340.618 365.49 340.842 365.89 340.991 366.36C341.151 366.829 341.231 367.357 341.231 367.944C341.231 368.114 341.183 368.242 341.087 368.328C340.991 368.402 340.852 368.44 340.671 368.44H335.103V367.592H340.367L340.111 367.8C340.111 367.224 340.026 366.738 339.855 366.344C339.684 365.938 339.434 365.629 339.103 365.416C338.783 365.202 338.378 365.096 337.887 365.096C337.343 365.096 336.879 365.224 336.495 365.48C336.122 365.725 335.839 366.072 335.647 366.52C335.455 366.957 335.359 367.469 335.359 368.056V368.152C335.359 369.133 335.594 369.88 336.063 370.392C336.543 370.904 337.22 371.16 338.095 371.16C338.458 371.16 338.815 371.112 339.167 371.016C339.53 370.92 339.882 370.76 340.223 370.536C340.372 370.44 340.506 370.397 340.623 370.408C340.751 370.408 340.852 370.445 340.927 370.52C341.002 370.584 341.05 370.669 341.071 370.776C341.103 370.872 341.092 370.978 341.039 371.096C340.996 371.213 340.906 371.314 340.767 371.4C340.415 371.656 339.999 371.853 339.519 371.992C339.039 372.13 338.564 372.2 338.095 372.2ZM345.731 372.2C345.251 372.2 344.765 372.141 344.275 372.024C343.795 371.906 343.347 371.704 342.931 371.416C342.824 371.341 342.749 371.256 342.707 371.16C342.664 371.053 342.648 370.952 342.659 370.856C342.68 370.749 342.723 370.658 342.787 370.584C342.861 370.509 342.947 370.466 343.043 370.456C343.149 370.434 343.267 370.456 343.395 370.52C343.811 370.776 344.211 370.957 344.595 371.064C344.989 371.16 345.379 371.208 345.763 371.208C346.371 371.208 346.829 371.096 347.139 370.872C347.448 370.648 347.603 370.344 347.603 369.96C347.603 369.661 347.501 369.426 347.299 369.256C347.096 369.074 346.776 368.936 346.339 368.84L344.883 368.52C344.211 368.381 343.709 368.141 343.379 367.8C343.059 367.458 342.899 367.016 342.899 366.472C342.899 365.992 343.021 365.581 343.267 365.24C343.523 364.888 343.88 364.616 344.339 364.424C344.797 364.232 345.331 364.136 345.939 364.136C346.408 364.136 346.851 364.2 347.267 364.328C347.693 364.445 348.077 364.637 348.419 364.904C348.525 364.978 348.595 365.069 348.627 365.176C348.669 365.272 348.675 365.373 348.643 365.48C348.621 365.576 348.573 365.661 348.499 365.736C348.424 365.8 348.333 365.837 348.227 365.848C348.12 365.858 348.008 365.826 347.891 365.752C347.571 365.538 347.245 365.384 346.915 365.288C346.584 365.181 346.259 365.128 345.939 365.128C345.341 365.128 344.888 365.245 344.579 365.48C344.269 365.714 344.115 366.024 344.115 366.408C344.115 366.706 344.211 366.952 344.403 367.144C344.595 367.336 344.893 367.474 345.299 367.56L346.755 367.864C347.448 368.013 347.965 368.253 348.307 368.584C348.659 368.904 348.835 369.341 348.835 369.896C348.835 370.6 348.552 371.16 347.987 371.576C347.421 371.992 346.669 372.2 345.731 372.2ZM354.314 372.2C353.492 372.2 352.783 372.04 352.186 371.72C351.599 371.389 351.14 370.925 350.81 370.328C350.49 369.73 350.33 369.016 350.33 368.184C350.33 367.373 350.49 366.669 350.81 366.072C351.13 365.464 351.567 364.989 352.122 364.648C352.687 364.306 353.338 364.136 354.074 364.136C354.596 364.136 355.066 364.226 355.482 364.408C355.898 364.578 356.25 364.829 356.538 365.16C356.836 365.49 357.06 365.89 357.21 366.36C357.37 366.829 357.45 367.357 357.45 367.944C357.45 368.114 357.402 368.242 357.306 368.328C357.21 368.402 357.071 368.44 356.89 368.44H351.322V367.592H356.586L356.33 367.8C356.33 367.224 356.244 366.738 356.074 366.344C355.903 365.938 355.652 365.629 355.322 365.416C355.002 365.202 354.596 365.096 354.106 365.096C353.562 365.096 353.098 365.224 352.714 365.48C352.34 365.725 352.058 366.072 351.866 366.52C351.674 366.957 351.578 367.469 351.578 368.056V368.152C351.578 369.133 351.812 369.88 352.282 370.392C352.762 370.904 353.439 371.16 354.314 371.16C354.676 371.16 355.034 371.112 355.386 371.016C355.748 370.92 356.1 370.76 356.442 370.536C356.591 370.44 356.724 370.397 356.842 370.408C356.97 370.408 357.071 370.445 357.146 370.52C357.22 370.584 357.268 370.669 357.29 370.776C357.322 370.872 357.311 370.978 357.258 371.096C357.215 371.213 357.124 371.314 356.986 371.4C356.634 371.656 356.218 371.853 355.738 371.992C355.258 372.13 354.783 372.2 354.314 372.2ZM359.981 372.168C359.768 372.168 359.603 372.109 359.485 371.992C359.379 371.874 359.325 371.709 359.325 371.496V364.824C359.325 364.61 359.379 364.45 359.485 364.344C359.592 364.226 359.747 364.168 359.949 364.168C360.152 364.168 360.307 364.226 360.413 364.344C360.531 364.45 360.589 364.61 360.589 364.824V366.12H360.429C360.6 365.49 360.925 365.005 361.405 364.664C361.885 364.322 362.477 364.141 363.181 364.12C363.341 364.109 363.469 364.146 363.565 364.232C363.661 364.306 363.715 364.44 363.725 364.632C363.736 364.813 363.693 364.957 363.597 365.064C363.501 365.17 363.352 365.234 363.149 365.256L362.893 365.288C362.168 365.352 361.608 365.586 361.213 365.992C360.829 366.386 360.637 366.93 360.637 367.624V371.496C360.637 371.709 360.579 371.874 360.461 371.992C360.355 372.109 360.195 372.168 359.981 372.168ZM368.44 372.168C368.259 372.168 368.099 372.12 367.96 372.024C367.821 371.917 367.704 371.757 367.608 371.544L364.84 365.08C364.765 364.92 364.739 364.77 364.76 364.632C364.781 364.493 364.845 364.381 364.952 364.296C365.059 364.21 365.208 364.168 365.4 364.168C365.571 364.168 365.704 364.205 365.8 364.28C365.896 364.354 365.981 364.488 366.056 364.68L368.68 371.096H368.248L370.92 364.68C370.995 364.488 371.08 364.354 371.176 364.28C371.272 364.205 371.411 364.168 371.592 364.168C371.763 364.168 371.891 364.21 371.976 364.296C372.072 364.381 372.125 364.493 372.136 364.632C372.157 364.76 372.136 364.904 372.072 365.064L369.272 371.544C369.197 371.757 369.085 371.917 368.936 372.024C368.797 372.12 368.632 372.168 368.44 372.168ZM377.173 372.2C376.352 372.2 375.642 372.04 375.045 371.72C374.458 371.389 374 370.925 373.669 370.328C373.349 369.73 373.189 369.016 373.189 368.184C373.189 367.373 373.349 366.669 373.669 366.072C373.989 365.464 374.426 364.989 374.981 364.648C375.546 364.306 376.197 364.136 376.933 364.136C377.456 364.136 377.925 364.226 378.341 364.408C378.757 364.578 379.109 364.829 379.397 365.16C379.696 365.49 379.92 365.89 380.069 366.36C380.229 366.829 380.309 367.357 380.309 367.944C380.309 368.114 380.261 368.242 380.165 368.328C380.069 368.402 379.93 368.44 379.749 368.44H374.181V367.592H379.445L379.189 367.8C379.189 367.224 379.104 366.738 378.933 366.344C378.762 365.938 378.512 365.629 378.181 365.416C377.861 365.202 377.456 365.096 376.965 365.096C376.421 365.096 375.957 365.224 375.573 365.48C375.2 365.725 374.917 366.072 374.725 366.52C374.533 366.957 374.437 367.469 374.437 368.056V368.152C374.437 369.133 374.672 369.88 375.141 370.392C375.621 370.904 376.298 371.16 377.173 371.16C377.536 371.16 377.893 371.112 378.245 371.016C378.608 370.92 378.96 370.76 379.301 370.536C379.45 370.44 379.584 370.397 379.701 370.408C379.829 370.408 379.93 370.445 380.005 370.52C380.08 370.584 380.128 370.669 380.149 370.776C380.181 370.872 380.17 370.978 380.117 371.096C380.074 371.213 379.984 371.314 379.845 371.4C379.493 371.656 379.077 371.853 378.597 371.992C378.117 372.13 377.642 372.2 377.173 372.2ZM385.145 372.2C384.451 372.2 383.843 372.034 383.321 371.704C382.809 371.373 382.409 370.909 382.121 370.312C381.843 369.704 381.705 368.989 381.705 368.168C381.705 367.336 381.843 366.621 382.121 366.024C382.409 365.416 382.809 364.952 383.321 364.632C383.843 364.301 384.451 364.136 385.145 364.136C385.849 364.136 386.451 364.312 386.953 364.664C387.454 365.016 387.79 365.49 387.961 366.088H387.785V361.32C387.785 361.106 387.838 360.946 387.945 360.84C388.062 360.722 388.227 360.664 388.441 360.664C388.643 360.664 388.798 360.722 388.905 360.84C389.022 360.946 389.081 361.106 389.081 361.32V371.496C389.081 371.709 389.027 371.874 388.921 371.992C388.814 372.109 388.654 372.168 388.441 372.168C388.238 372.168 388.078 372.109 387.961 371.992C387.854 371.874 387.801 371.709 387.801 371.496V369.976L387.977 370.2C387.806 370.808 387.465 371.293 386.953 371.656C386.451 372.018 385.849 372.2 385.145 372.2ZM385.417 371.16C385.897 371.16 386.318 371.042 386.681 370.808C387.043 370.573 387.321 370.232 387.513 369.784C387.715 369.336 387.817 368.797 387.817 368.168C387.817 367.197 387.598 366.456 387.161 365.944C386.734 365.432 386.153 365.176 385.417 365.176C384.926 365.176 384.499 365.293 384.137 365.528C383.785 365.752 383.507 366.088 383.305 366.536C383.113 366.973 383.017 367.517 383.017 368.168C383.017 369.128 383.235 369.869 383.673 370.392C384.11 370.904 384.691 371.16 385.417 371.16Z" fill="#606060"/>
<defs>
<clipPath id="clip0_9640_2003">
<rect width="185" height="185" fill="white" transform="translate(104.125 58.0244)"/>
</clipPath>
</defs>
</svg>
