<svg width="20" height="20" viewBox="0 0 20 20" fill="none" xmlns="http://www.w3.org/2000/svg">
<path d="M9.46686 9.63408C10.7904 9.63408 11.9363 9.15936 12.8729 8.22276C13.8092 7.28635 14.284 6.14057 14.284 4.8169C14.284 3.49363 13.8094 2.34773 12.8728 1.41097C11.9362 0.474687 10.7902 0 9.46686 0C8.14315 0 6.99733 0.474687 6.06093 1.41113C5.12452 2.34757 4.64964 3.49351 4.64964 4.8169C4.64964 6.14057 5.12448 7.28651 6.06097 8.22295C6.99768 9.15924 8.14362 9.63408 9.46682 9.63408H9.46686ZM6.88979 2.23984C7.60831 1.52129 8.45124 1.17203 9.46686 1.17203C10.4823 1.17203 11.3254 1.52129 12.044 2.23984C12.7626 2.95851 13.112 3.80155 13.112 4.81687C13.112 5.83249 12.7626 6.67542 12.044 7.39409C11.3254 8.1128 10.4823 8.46205 9.46686 8.46205C8.45151 8.46205 7.60866 8.11264 6.88979 7.39409C6.17108 6.67557 5.82167 5.83253 5.82167 4.8169C5.82167 3.80155 6.17108 2.95851 6.88979 2.23984ZM17.8956 15.379C17.8686 14.9893 17.814 14.5641 17.7336 14.1153C17.6524 13.663 17.5479 13.2354 17.4227 12.8447C17.2934 12.4408 17.1177 12.0419 16.9003 11.6597C16.6749 11.2629 16.41 10.9175 16.1128 10.6332C15.802 10.3358 15.4214 10.0967 14.9813 9.92229C14.5428 9.74885 14.0568 9.66096 13.537 9.66096C13.3328 9.66096 13.1354 9.74471 12.754 9.99299C12.483 10.1695 12.2111 10.3448 11.9385 10.5188C11.6765 10.6857 11.3215 10.8421 10.8831 10.9837C10.4555 11.1221 10.0212 11.1923 9.59241 11.1923C9.16397 11.1923 8.72967 11.1221 8.30167 10.9837C7.86378 10.8422 7.5087 10.6859 7.24714 10.5189C6.94362 10.325 6.66901 10.148 6.43081 9.99279C6.0498 9.74455 5.85233 9.66076 5.64819 9.66076C5.12816 9.66076 4.64234 9.74881 4.20394 9.92248C3.76417 10.0966 3.38347 10.3357 3.07234 10.6334C2.77511 10.9178 2.51023 11.2631 2.285 11.6597C2.06789 12.0419 1.89211 12.4406 1.76269 12.8448C1.63769 13.2356 1.5332 13.663 1.45203 14.1153C1.37145 14.5636 1.31699 14.9888 1.28996 15.3795C1.2634 15.7614 1.25 16.1589 1.25 16.5605C1.25 17.6045 1.58187 18.4497 2.23633 19.073C2.88269 19.6881 3.73781 20 4.77796 20H14.4081C15.4479 20 16.3031 19.6881 16.9496 19.073C17.6042 18.4501 17.9361 17.6047 17.9361 16.5603C17.9359 16.1574 17.9223 15.7599 17.8956 15.379ZM16.1415 18.2238C15.7144 18.6303 15.1474 18.8279 14.4079 18.8279H4.778C4.03843 18.8279 3.4714 18.6303 3.04445 18.224C2.62562 17.8253 2.42207 17.281 2.42207 16.5605C2.42207 16.1857 2.43441 15.8157 2.45918 15.4605C2.48324 15.112 2.53254 14.7291 2.60566 14.3223C2.67781 13.9206 2.76965 13.5435 2.8789 13.2022C2.98375 12.8749 3.12671 12.5508 3.30402 12.2386C3.47324 11.941 3.66792 11.6858 3.88277 11.4801C4.08374 11.2877 4.33706 11.1302 4.6355 11.0121C4.91152 10.9028 5.22175 10.843 5.55851 10.834C5.59952 10.8559 5.67265 10.8975 5.79105 10.9747C6.03198 11.1317 6.30968 11.3109 6.61671 11.5069C6.9628 11.7276 7.40862 11.9269 7.94131 12.0988C8.48588 12.2749 9.04131 12.3643 9.5926 12.3643C10.1439 12.3643 10.6995 12.2749 11.2438 12.099C11.7769 11.9267 12.2226 11.7276 12.5692 11.5066C12.8833 11.3058 13.1533 11.1319 13.3942 10.9747C13.5126 10.8976 13.5857 10.8558 13.6267 10.834C13.9636 10.843 14.2738 10.9028 14.55 11.0121C14.8483 11.1302 15.1017 11.2878 15.3026 11.4801C15.5174 11.6856 15.7121 11.9409 15.8813 12.2388C16.0588 12.5508 16.202 12.8751 16.3066 13.202C16.416 13.5438 16.508 13.9207 16.58 14.3222C16.653 14.7297 16.7024 15.1127 16.7265 15.4606V15.4609C16.7514 15.8148 16.7639 16.1847 16.7641 16.5605C16.7639 17.2812 16.5604 17.8253 16.1415 18.2238H16.1415Z" fill="#585858"/>
</svg>
