<svg width="20" height="20" viewBox="0 0 20 20" fill="none" xmlns="http://www.w3.org/2000/svg">
<g clip-path="url(#clip0_10101_1476)">
<path d="M6.81456 2.89414C6.85388 2.96224 6.91743 3.01301 6.99254 3.03633C7.06764 3.05964 7.14877 3.05378 7.21975 3.01992C7.94682 2.67297 8.72787 2.4657 9.54119 2.40387C9.61975 2.3979 9.69315 2.36248 9.74671 2.3047C9.80027 2.24692 9.83002 2.17105 9.83002 2.09226V0.625233C9.83001 0.582526 9.82124 0.540275 9.80426 0.501088C9.78729 0.4619 9.76246 0.426607 9.73131 0.397387C9.70017 0.368167 9.66336 0.345639 9.62317 0.331193C9.58298 0.316747 9.54026 0.310691 9.49764 0.313397C8.34881 0.386756 7.24463 0.682459 6.21577 1.1923C6.17751 1.21128 6.14354 1.23789 6.11596 1.27049C6.08839 1.3031 6.06778 1.34101 6.05542 1.38189C6.04306 1.42276 6.03921 1.46574 6.0441 1.50816C6.04899 1.55059 6.06252 1.59156 6.08385 1.62855L6.81456 2.89414ZM9.20502 0.965154V1.80832C8.51475 1.88828 7.84733 2.06535 7.21428 2.33648L6.79506 1.61035C7.56116 1.26929 8.36916 1.05297 9.20502 0.965154ZM2.28409 12.8052C2.30302 12.8435 2.32961 12.8775 2.36221 12.9051C2.39481 12.9328 2.43274 12.9534 2.47364 12.9658C2.51454 12.9782 2.55755 12.9821 2.60001 12.9772C2.64247 12.9723 2.68347 12.9588 2.72049 12.9374L3.99205 12.2033C4.06015 12.164 4.11093 12.1005 4.13425 12.0254C4.15757 11.9503 4.15172 11.8691 4.11788 11.7982C3.77002 11.0687 3.56174 10.2884 3.4987 9.47883C3.49259 9.40038 3.45711 9.32713 3.39936 9.27369C3.3416 9.22026 3.26581 9.19058 3.18713 9.19058H1.71967C1.67695 9.1906 1.63469 9.19937 1.5955 9.21635C1.5563 9.23334 1.521 9.25817 1.49178 9.28933C1.46256 9.32049 1.44003 9.35731 1.4256 9.39751C1.41116 9.43772 1.40511 9.48045 1.40784 9.52308C1.48159 10.673 1.77643 11.7772 2.28409 12.8052ZM2.90377 9.81554C2.98404 10.5003 3.16277 11.1699 3.43444 11.8036L2.70276 12.226C2.36319 11.4604 2.14756 10.6522 2.05967 9.81554H2.90377ZM1.71971 8.73683H3.19291C3.27112 8.73683 3.34648 8.70751 3.40412 8.65465C3.46176 8.60179 3.49749 8.52924 3.50424 8.45133C3.57459 7.63984 3.78452 6.86023 4.12819 6.13418C4.16175 6.06324 4.16741 5.98228 4.14402 5.90737C4.12064 5.83246 4.06993 5.76908 4.00198 5.72984L2.7228 4.99133C2.6858 4.96996 2.64482 4.95641 2.60238 4.95151C2.55994 4.94661 2.51695 4.95046 2.47606 4.96282C2.43517 4.97519 2.39725 4.99581 2.36464 5.02341C2.33203 5.051 2.30542 5.08499 2.28647 5.12328C1.77721 6.15176 1.48162 7.25566 1.40784 8.40429C1.40509 8.44693 1.41112 8.48969 1.42555 8.5299C1.43998 8.57012 1.46251 8.60695 1.49174 8.63812C1.52097 8.66929 1.55628 8.69413 1.59549 8.71111C1.6347 8.72809 1.67698 8.73684 1.71971 8.73683ZM2.70475 5.70258L3.44498 6.12996C3.17631 6.76047 2.99756 7.42484 2.91178 8.11183H2.05971C2.1478 7.27621 2.36405 6.4684 2.70475 5.70258ZM19.4514 9.77918C19.3703 9.61207 19.2044 9.50828 19.0185 9.50824H18.7106C18.7219 9.32695 18.7276 9.14484 18.7276 8.96371C18.7276 6.74539 17.8902 4.63492 16.3698 3.02109C14.856 1.41433 12.8127 0.452654 10.616 0.313123C10.5734 0.310428 10.5307 0.316493 10.4905 0.330944C10.4504 0.345395 10.4136 0.367926 10.3824 0.397146C10.3513 0.426365 10.3265 0.461655 10.3095 0.500836C10.2925 0.540018 10.2838 0.582261 10.2838 0.624959V2.09238C10.2838 2.1711 10.3135 2.24693 10.367 2.30469C10.4204 2.36245 10.4938 2.3979 10.5723 2.40394C13.9737 2.66637 16.6383 5.54773 16.6383 8.96367C16.6383 9.14492 16.6308 9.32715 16.6159 9.50816H16.4161C16.2302 9.50816 16.0643 9.61195 15.9832 9.77906C15.9021 9.94613 15.9231 10.1407 16.0381 10.2867L17.3394 11.9395C17.3843 11.9968 17.4417 12.0432 17.5072 12.0749C17.5727 12.1067 17.6446 12.1231 17.7174 12.1229C17.8658 12.1229 18.0035 12.056 18.0952 11.9395L19.3964 10.2867C19.5114 10.1407 19.5325 9.94625 19.4514 9.77918ZM17.7173 11.4093L16.7127 10.1333H16.8978C16.974 10.1333 17.0475 10.1054 17.1047 10.055C17.1618 10.0045 17.1985 9.93495 17.2079 9.85933C17.2447 9.56222 17.2632 9.26313 17.2632 8.96375C17.2632 7.1373 16.5786 5.39527 15.3355 4.05859C14.1651 2.80015 12.6023 2.00816 10.9087 1.80898V0.964881C14.9688 1.39172 18.1026 4.84258 18.1026 8.96375C18.1026 9.23894 18.0885 9.51664 18.0608 9.78906C18.0563 9.83255 18.0611 9.87648 18.0747 9.91801C18.0883 9.95955 18.1105 9.99778 18.1398 10.0302C18.1691 10.0627 18.2048 10.0886 18.2448 10.1063C18.2847 10.1241 18.328 10.1333 18.3717 10.1333H18.7219L17.7173 11.4093ZM2.9503 4.59879L4.22506 5.33476C4.29337 5.37424 4.37409 5.38641 4.451 5.36881C4.52792 5.35122 4.59532 5.30517 4.63967 5.23992C5.09694 4.56777 5.66545 3.99437 6.32936 3.53562C6.39394 3.49099 6.43936 3.42369 6.45659 3.3471C6.47382 3.27051 6.46158 3.19025 6.42233 3.12226L5.69135 1.85621C5.66996 1.81918 5.6412 1.78693 5.60685 1.76146C5.57249 1.73599 5.53328 1.71784 5.49163 1.70813C5.44998 1.69842 5.40678 1.69737 5.3647 1.70502C5.32263 1.71268 5.28257 1.72889 5.24702 1.75265C4.29256 2.3909 3.48498 3.19898 2.84663 4.15453C2.82288 4.19009 2.80669 4.23015 2.79905 4.27222C2.7914 4.31429 2.79247 4.35748 2.80219 4.39912C2.81191 4.44076 2.83007 4.47997 2.85554 4.51431C2.88102 4.54866 2.91327 4.57741 2.9503 4.59879ZM5.32045 2.46367L5.73995 3.19027C5.18909 3.60453 4.70342 4.09437 4.29123 4.65129L3.5576 4.22773C4.04976 3.55149 4.64455 2.95629 5.32045 2.46367ZM14.4128 13.0516L11.3999 14.8064C11.2853 14.8731 11.1692 14.9246 11.0495 14.9611C11.0873 14.8846 11.1173 14.8045 11.1392 14.722C11.2994 14.1239 10.9447 13.4997 10.3317 13.301C10.3183 13.2967 10.3046 13.2932 10.2908 13.2907C9.42858 13.1352 8.57592 12.827 7.89077 12.5793C7.65186 12.4929 7.4262 12.4113 7.23389 12.3489C6.44565 12.0932 5.73729 12.4073 5.1483 12.7484L2.94623 14.0234L2.75737 13.6896C2.65815 13.5143 2.49612 13.388 2.30116 13.3339C2.10623 13.28 1.90229 13.3048 1.72694 13.404L0.881586 13.8824C0.518773 14.0878 0.390648 14.55 0.595961 14.9128L3.08123 19.3041C3.18045 19.4795 3.34248 19.6058 3.53745 19.6598C3.60487 19.6785 3.67334 19.6878 3.74135 19.6878C3.86998 19.6878 3.99698 19.6546 4.11166 19.5898L4.95702 19.1113C5.13233 19.0121 5.25866 18.8501 5.31272 18.6551C5.36674 18.4602 5.34186 18.2562 5.24264 18.0809L5.00846 17.6671L5.46444 17.4038L9.30522 18.4329C9.52209 18.4911 9.73791 18.52 9.95014 18.52C10.3795 18.52 10.7943 18.4018 11.1735 18.1683L16.6412 14.8015C17.1595 14.4824 17.3248 13.6796 16.988 13.1173C16.8249 12.845 16.1573 12.0357 14.4128 13.0516ZM4.71045 18.4882C4.70498 18.5079 4.68975 18.5444 4.6492 18.5674L3.80385 19.0459C3.76334 19.0689 3.72413 19.0631 3.7044 19.0576C3.68467 19.0521 3.64815 19.0369 3.62518 18.9963L1.13995 14.605C1.10495 14.5432 1.1276 14.4614 1.18948 14.4264L2.03487 13.9479C2.05413 13.937 2.07591 13.9312 2.09807 13.9313C2.11291 13.9313 2.12553 13.9337 2.13432 13.9362C2.15405 13.9417 2.19057 13.9569 2.2135 13.9974L4.69877 18.3887C4.72166 18.4293 4.71592 18.4684 4.71045 18.4882ZM16.3135 14.2694L10.8459 17.6361C10.4233 17.8962 9.9594 17.9613 9.46702 17.8293L5.50116 16.7666C5.42111 16.7452 5.33583 16.7564 5.26405 16.7978L4.70061 17.1231L3.25409 14.5672L5.46143 13.2892C5.95483 13.0035 6.48768 12.7638 7.04104 12.9434C7.22346 13.0025 7.4342 13.0787 7.67823 13.167C8.37955 13.4205 9.25092 13.7355 10.1569 13.9016C10.4471 14.0046 10.6093 14.2846 10.5355 14.5601C10.4382 14.9231 10.133 14.9682 9.88932 14.9405C9.44823 14.8497 9.02819 14.7298 8.58381 14.6029C8.37202 14.5425 8.15303 14.4799 7.92776 14.4195C7.84817 14.3995 7.7639 14.4116 7.69314 14.4531C7.62238 14.4947 7.57082 14.5625 7.54957 14.6417C7.52834 14.721 7.53913 14.8054 7.57962 14.8768C7.62011 14.9482 7.68706 15.0008 7.766 15.0232C7.98631 15.0823 8.20284 15.1441 8.41217 15.2039C8.87287 15.3355 9.78784 15.5577 9.78991 15.558L10.1647 15.6189C10.7357 15.7102 11.2427 15.6212 11.7144 15.3464L14.7273 13.5916C15.5705 13.1005 16.2151 13.0432 16.4518 13.4384C16.6135 13.7083 16.5437 14.1277 16.3135 14.2694ZM2.25784 14.7567C2.26417 14.7962 2.2626 14.8366 2.25321 14.8754C2.24382 14.9143 2.22679 14.9509 2.20313 14.9832C2.17946 15.0154 2.14962 15.0426 2.11535 15.0632C2.08107 15.0838 2.04304 15.0974 2.00347 15.1032C1.9639 15.109 1.92357 15.1069 1.88483 15.0969C1.84609 15.087 1.80971 15.0695 1.77781 15.0453C1.7459 15.0212 1.71911 14.991 1.69898 14.9564C1.67886 14.9219 1.6658 14.8837 1.66057 14.844C1.6502 14.7654 1.6712 14.6858 1.71903 14.6225C1.76686 14.5593 1.83767 14.5174 1.91616 14.5059C1.99464 14.4944 2.07449 14.5143 2.13843 14.5612C2.20237 14.6082 2.24527 14.6784 2.25784 14.7567ZM12.7144 6.03543C12.7144 4.78887 11.7002 3.77469 10.4536 3.77469C9.20706 3.77469 8.19287 4.78887 8.19287 6.03543C8.19287 6.79574 8.57053 7.46906 9.14772 7.8791C7.63034 8.37699 6.49022 9.72164 6.31178 11.3891C6.3071 11.4327 6.31165 11.4767 6.32513 11.5185C6.33861 11.5602 6.36072 11.5986 6.39003 11.6312C6.41934 11.6638 6.45518 11.6899 6.49523 11.7078C6.53528 11.7256 6.57864 11.7348 6.62248 11.7348H14.2846C14.3285 11.7348 14.3718 11.7256 14.4119 11.7078C14.4519 11.6899 14.4878 11.6638 14.5171 11.6312C14.5464 11.5986 14.5685 11.5602 14.582 11.5184C14.5955 11.4767 14.6 11.4326 14.5953 11.389C14.4169 9.72164 13.2768 8.37703 11.7594 7.8791C12.3367 7.4691 12.7144 6.79574 12.7144 6.03543ZM13.9198 11.1098H6.98737C7.32416 9.48359 8.75702 8.29652 10.4528 8.29613L10.4536 8.29617H10.4544C12.1501 8.29656 13.583 9.48359 13.9198 11.1098ZM10.4536 7.67113H10.4526C9.55112 7.67054 8.81787 6.93703 8.81787 6.03543C8.81787 5.13347 9.55166 4.39969 10.4536 4.39969C11.3556 4.39969 12.0894 5.13347 12.0894 6.03543C12.0894 6.93703 11.3561 7.67058 10.4546 7.67113H10.4536Z" fill="#585858"/>
</g>
<defs>
<clipPath id="clip0_10101_1476">
<rect width="20" height="20" fill="white"/>
</clipPath>
</defs>
</svg>
