<svg width="13" height="12" viewBox="0 0 13 12" fill="none" xmlns="http://www.w3.org/2000/svg">
<path d="M11.2731 3.25725C11.2138 2.27194 10.3911 1.5 9.40015 1.5H8.91772V1.125C8.91772 1.02554 8.87821 0.930161 8.80788 0.859835C8.73756 0.789509 8.64217 0.75 8.54272 0.75C8.44326 0.75 8.34788 0.789509 8.27755 0.859835C8.20722 0.930161 8.16772 1.02554 8.16772 1.125V1.5H5.16772V1.125C5.16772 1.02554 5.12821 0.930161 5.05788 0.859835C4.98755 0.789509 4.89217 0.75 4.79272 0.75C4.69326 0.75 4.59788 0.789509 4.52755 0.859835C4.45722 0.930161 4.41772 1.02554 4.41772 1.125V1.5H3.93528C2.94415 1.5 2.1214 2.27194 2.06234 3.25725C1.95115 5.1105 1.95322 6.99037 2.06853 8.84456C2.12703 9.78619 2.88134 10.5405 3.82297 10.599C4.76665 10.6577 5.71709 10.6869 6.66753 10.6869C7.61778 10.6869 8.5684 10.6577 9.51209 10.599C10.4537 10.5405 11.208 9.78619 11.2665 8.84456C11.382 6.99131 11.3841 5.11162 11.2731 3.25725ZM10.5182 8.79806C10.5008 9.07149 10.3844 9.3292 10.1906 9.52293C9.99692 9.71666 9.7392 9.83312 9.46578 9.8505C7.60915 9.96581 5.72628 9.96581 3.86965 9.8505C3.59623 9.83312 3.33851 9.71666 3.14478 9.52293C2.95105 9.3292 2.83459 9.07149 2.81722 8.79806C2.72932 7.36713 2.70949 5.93282 2.75778 4.5H10.5778C10.6251 5.9325 10.6069 7.37306 10.5182 8.79806ZM4.79272 3C4.89217 3 4.98755 2.96049 5.05788 2.89016C5.12821 2.81984 5.16772 2.72446 5.16772 2.625V2.25H8.16772V2.625C8.16772 2.72446 8.20722 2.81984 8.27755 2.89016C8.34788 2.96049 8.44326 3 8.54272 3C8.64217 3 8.73756 2.96049 8.80788 2.89016C8.87821 2.81984 8.91772 2.72446 8.91772 2.625V2.25H9.40015C9.99509 2.25 10.489 2.71219 10.5244 3.30206C10.5332 3.45094 10.537 3.60075 10.5443 3.75H2.79115C2.79865 3.60075 2.80222 3.45094 2.81103 3.30206C2.84647 2.71219 3.34015 2.25 3.93528 2.25H4.41772V2.625C4.41772 2.72446 4.45722 2.81984 4.52755 2.89016C4.59788 2.96049 4.69326 3 4.79272 3Z" fill="#B8B8B8"/>
<path d="M4.79297 6.75C5.10363 6.75 5.35547 6.49816 5.35547 6.1875C5.35547 5.87684 5.10363 5.625 4.79297 5.625C4.48231 5.625 4.23047 5.87684 4.23047 6.1875C4.23047 6.49816 4.48231 6.75 4.79297 6.75Z" fill="#B8B8B8"/>
<path d="M6.66797 6.75C6.97863 6.75 7.23047 6.49816 7.23047 6.1875C7.23047 5.87684 6.97863 5.625 6.66797 5.625C6.35731 5.625 6.10547 5.87684 6.10547 6.1875C6.10547 6.49816 6.35731 6.75 6.66797 6.75Z" fill="#B8B8B8"/>
<path d="M4.79297 8.625C5.10363 8.625 5.35547 8.37316 5.35547 8.0625C5.35547 7.75184 5.10363 7.5 4.79297 7.5C4.48231 7.5 4.23047 7.75184 4.23047 8.0625C4.23047 8.37316 4.48231 8.625 4.79297 8.625Z" fill="#B8B8B8"/>
<path d="M8.54297 6.75C8.85363 6.75 9.10547 6.49816 9.10547 6.1875C9.10547 5.87684 8.85363 5.625 8.54297 5.625C8.23231 5.625 7.98047 5.87684 7.98047 6.1875C7.98047 6.49816 8.23231 6.75 8.54297 6.75Z" fill="#B8B8B8"/>
<path d="M8.54297 8.625C8.85363 8.625 9.10547 8.37316 9.10547 8.0625C9.10547 7.75184 8.85363 7.5 8.54297 7.5C8.23231 7.5 7.98047 7.75184 7.98047 8.0625C7.98047 8.37316 8.23231 8.625 8.54297 8.625Z" fill="#B8B8B8"/>
<path d="M6.66797 8.625C6.97863 8.625 7.23047 8.37316 7.23047 8.0625C7.23047 7.75184 6.97863 7.5 6.66797 7.5C6.35731 7.5 6.10547 7.75184 6.10547 8.0625C6.10547 8.37316 6.35731 8.625 6.66797 8.625Z" fill="#B8B8B8"/>
</svg>
