<svg width="12" height="12" viewBox="0 0 12 12" fill="none" xmlns="http://www.w3.org/2000/svg">
<path d="M10.7808 5.48034L10.3508 4.98534H10.5358C10.8558 4.98534 11.1158 4.72534 11.1158 4.40534V4.21534C11.1158 3.89534 10.8558 3.63534 10.5358 3.63534H10.3708C10.2308 3.63534 10.1208 3.74534 10.1208 3.88534C10.1208 4.02534 10.2308 4.13534 10.3708 4.13534H10.5358C10.5808 4.13534 10.6158 4.17034 10.6158 4.21534V4.40534C10.6158 4.45034 10.5808 4.48534 10.5358 4.48534H10.1858L9.81078 3.26034C9.69443 2.87822 9.45787 2.54384 9.13628 2.30693C8.81468 2.07001 8.42522 1.9432 8.02578 1.94534H3.97578C3.15078 1.94534 2.43578 2.47534 2.19078 3.26034L1.81578 4.48534H1.46578C1.42078 4.48534 1.38578 4.45034 1.38578 4.40534V4.21534C1.38578 4.17034 1.42078 4.13534 1.46578 4.13534H1.63078C1.77078 4.13534 1.88078 4.02534 1.88078 3.88534C1.88078 3.74534 1.77078 3.63534 1.63078 3.63534H1.46578C1.14578 3.63534 0.885781 3.89534 0.885781 4.21534V4.40534C0.885781 4.72534 1.14578 4.98534 1.46578 4.98534H1.65078L1.22078 5.48034C0.950781 5.79034 0.800781 6.19034 0.800781 6.60534V8.04034C0.800781 8.34534 0.970781 8.61034 1.22578 8.75034V9.31534C1.22578 9.73034 1.56078 10.0653 1.97578 10.0653H2.83578C3.25078 10.0653 3.58578 9.73034 3.58578 9.31534V8.85534H8.41578V9.31534C8.41578 9.73034 8.75078 10.0653 9.16578 10.0653H10.0258C10.4408 10.0653 10.7758 9.73034 10.7758 9.31534V8.75034C11.0258 8.61034 11.2008 8.35034 11.2008 8.04034V6.60534C11.2008 6.19034 11.0508 5.79034 10.7808 5.48034ZM1.60078 5.81034L2.08078 5.26034C2.10502 5.23522 2.12225 5.20419 2.13078 5.17034L2.23078 4.84534L2.24578 4.80034L2.67578 3.41034C2.7616 3.13113 2.93463 2.88678 3.16949 2.71311C3.40435 2.53944 3.68868 2.44559 3.98078 2.44534H8.02578C8.63078 2.44534 9.15578 2.83034 9.33078 3.41034L9.76078 4.80034C9.76078 4.80034 9.76578 4.83034 9.77578 4.84534L9.87578 5.17034C9.88431 5.20419 9.90155 5.23522 9.92578 5.26034L10.4058 5.81034C10.5958 6.03034 10.7058 6.31534 10.7058 6.61034V7.33534H9.56578C9.40078 7.33534 9.26078 7.20034 9.26078 7.03034V6.71034C9.26078 6.54534 9.39578 6.40534 9.56578 6.40534H10.1758C10.3158 6.40534 10.4258 6.29534 10.4258 6.15534C10.4258 6.01534 10.3158 5.90534 10.1758 5.90534H9.56578C9.12078 5.90534 8.76078 6.26534 8.76078 6.71034V7.03034C8.76078 7.47534 9.12078 7.83534 9.56578 7.83534H10.7058V8.04534C10.7058 8.21534 10.5658 8.35534 10.3958 8.35534H7.82578V7.50034C7.82578 7.36034 7.71578 7.25034 7.57578 7.25034H4.43578C4.29578 7.25034 4.18578 7.36034 4.18578 7.50034V8.35534H1.61578C1.44578 8.35534 1.30578 8.21534 1.30578 8.04534V7.83534H2.44578C2.89078 7.83534 3.25078 7.47534 3.25078 7.03034V6.71034C3.25078 6.26534 2.89078 5.90534 2.44578 5.90534H1.83578C1.69578 5.90534 1.58578 6.01534 1.58578 6.15534C1.58578 6.29534 1.69578 6.40534 1.83578 6.40534H2.44578C2.61078 6.40534 2.75078 6.54034 2.75078 6.71034V7.03034C2.75078 7.19534 2.61578 7.33534 2.44578 7.33534H1.30578V6.61034C1.30578 6.31534 1.41078 6.03534 1.60578 5.81034H1.60078ZM3.08578 9.31034C3.08578 9.45034 2.97578 9.56034 2.83578 9.56034H1.97578C1.83578 9.56034 1.72578 9.45034 1.72578 9.31034V8.85034H3.08578V9.31034ZM4.68078 8.35034V7.74534H7.32078V8.35034H4.68078ZM10.2758 9.31034C10.2758 9.45034 10.1658 9.56034 10.0258 9.56034H9.16578C9.02578 9.56034 8.91578 9.45034 8.91578 9.31034V8.85034H10.2758V9.31034Z" fill="#B8B8B8"/>
<path d="M2.99609 4.98047H9.00609C9.14609 4.98047 9.25609 4.87047 9.25609 4.73047C9.25609 4.59047 9.14609 4.48047 9.00609 4.48047H2.99609C2.85609 4.48047 2.74609 4.59047 2.74609 4.73047C2.74609 4.87047 2.85609 4.98047 2.99609 4.98047ZM8.04609 5.90047H3.95609C3.81609 5.90047 3.70609 6.01047 3.70609 6.15047C3.70609 6.29047 3.81609 6.40047 3.95609 6.40047H8.04609C8.18609 6.40047 8.29609 6.29047 8.29609 6.15047C8.29609 6.01047 8.18609 5.90047 8.04609 5.90047Z" fill="#B8B8B8"/>
</svg>
