<svg width="13" height="12" viewBox="0 0 13 12" fill="none" xmlns="http://www.w3.org/2000/svg">
<g clip-path="url(#clip0_9341_906)">
<path d="M6.33203 12C9.64003 12 12.332 9.30799 12.332 6C12.332 2.69201 9.64006 0 6.33203 0C3.024 0 0.332031 2.69201 0.332031 6C0.332031 9.30799 3.02404 12 6.33203 12ZM6.33203 0.799987C9.20002 0.799987 11.532 3.13198 11.532 6C11.532 8.86802 9.20005 11.2 6.33203 11.2C3.46401 11.2 1.13202 8.86802 1.13202 6C1.13202 3.13198 3.46404 0.799987 6.33203 0.799987Z" fill="#B8B8B8"/>
<path d="M8.07968 7.91239C8.1537 7.97238 8.24167 8.0004 8.32968 8.0004C8.38962 8.00052 8.44882 7.98709 8.50285 7.96112C8.55687 7.93514 8.60433 7.89729 8.64167 7.8504C8.77967 7.67839 8.75165 7.42639 8.57968 7.28839L6.72967 5.80838V2.80038C6.72967 2.58038 6.54968 2.40039 6.32968 2.40039C6.10968 2.40039 5.92969 2.58038 5.92969 2.80038V6.0004C5.92969 6.12241 5.9857 6.2364 6.07968 6.31238L8.07968 7.91239Z" fill="#B8B8B8"/>
</g>
<defs>
<clipPath id="clip0_9341_906">
<rect width="12" height="12" fill="white" transform="translate(0.332031)"/>
</clipPath>
</defs>
</svg>
