<svg width="12" height="12" viewBox="0 0 12 12" fill="none" xmlns="http://www.w3.org/2000/svg">
<path d="M5.99926 0C3.55493 0 1.56641 1.98853 1.56641 4.43286C1.56641 5.23755 1.92729 6.103 1.94242 6.1395C2.05897 6.41617 2.28896 6.84589 2.4548 7.09778L5.49418 11.703C5.61856 11.8918 5.80265 12 5.99926 12C6.19587 12 6.37997 11.8918 6.50435 11.7033L9.54398 7.09778C9.71008 6.84589 9.93981 6.41617 10.0564 6.1395C10.0715 6.10326 10.4321 5.23781 10.4321 4.43286C10.4321 1.98853 8.44359 0 5.99926 0ZM9.57553 5.93716C9.47149 6.18514 9.25741 6.58488 9.10852 6.81069L6.06888 11.4162C6.00891 11.5072 5.98987 11.5072 5.9299 11.4162L2.89027 6.81069C2.74137 6.58488 2.52729 6.18488 2.42325 5.9369C2.41882 5.92621 2.08792 5.1296 2.08792 4.43286C2.08792 2.27614 3.84255 0.521512 5.99926 0.521512C8.15598 0.521512 9.9106 2.27614 9.9106 4.43286C9.9106 5.13064 9.57892 5.92933 9.57553 5.93716Z" fill="#B8B8B8"/>
<path d="M5.99915 2.08594C4.70502 2.08594 3.65234 3.13887 3.65234 4.43274C3.65234 5.72662 4.70502 6.77955 5.99915 6.77955C7.29328 6.77955 8.34595 5.72662 8.34595 4.43274C8.34595 3.13887 7.29328 2.08594 5.99915 2.08594ZM5.99915 6.25804C4.99289 6.25804 4.17386 5.43926 4.17386 4.43274C4.17386 3.42622 4.99289 2.60745 5.99915 2.60745C7.00541 2.60745 7.82444 3.42622 7.82444 4.43274C7.82444 5.43926 7.00541 6.25804 5.99915 6.25804Z" fill="#B8B8B8"/>
</svg>
