<svg width="18" height="18" viewBox="0 0 18 18" fill="none" xmlns="http://www.w3.org/2000/svg">
<g clip-path="url(#clip0_9774_2929)">
<path d="M12.6788 15.83C10.4024 18.1064 6.22001 17.577 3.30824 14.6917C0.422947 11.78 -0.0799938 7.57115 2.19648 5.32115L2.91118 4.60645L13.42 15.0888L12.6788 15.83Z" fill="#CC104A"/>
<path d="M13.3674 15.1415C11.0909 17.4179 6.90855 16.8885 3.99679 14.0032C1.08502 11.0915 0.582082 6.90911 2.85855 4.63264C5.13502 2.35617 9.31738 2.88558 12.2027 5.77088C13.0762 6.64441 13.738 7.65029 14.1615 8.65617C14.2938 9.00029 14.4262 9.31793 14.5056 9.66205C15.088 11.7268 14.7174 13.7915 13.3674 15.1415Z" fill="#F34B58"/>
<path d="M11.5161 6.48576C13.7661 8.73576 14.1631 11.9916 12.4161 13.7652C10.669 15.5387 7.38664 15.1152 5.13664 12.8652C2.88664 10.6152 2.48958 7.35929 4.23664 5.58576C5.9837 3.81223 9.26605 4.23576 11.5161 6.48576Z" fill="white"/>
<path d="M10.8265 7.1736C12.4676 8.81477 12.7588 11.1971 11.4882 12.4677C10.2176 13.7383 7.83528 13.4736 6.1941 11.8059C4.55293 10.1648 4.26175 7.78242 5.53234 6.51183C6.80293 5.24124 9.18528 5.53242 10.8265 7.1736Z" fill="#F34B58"/>
<path d="M10.0833 7.91543C11.1421 8.97426 11.3274 10.4831 10.5068 11.3037C9.68621 12.1243 8.17738 11.939 7.11856 10.8801C6.05973 9.82132 5.87444 8.31249 6.69503 7.4919C7.51562 6.67132 9.05091 6.85661 10.0833 7.91543Z" fill="white"/>
<path d="M9.39798 8.60344C9.90093 9.10638 10.0068 9.84756 9.60975 10.2711C9.18622 10.6681 8.44504 10.5887 7.9421 10.0593C7.43916 9.55638 7.33328 8.81521 7.73034 8.41815C8.1274 8.02109 8.86857 8.1005 9.39798 8.60344Z" fill="#F34B58"/>
<path d="M14.5317 9.6885L8.78755 9.71497C8.12578 9.71497 8.09931 8.70909 8.78755 8.70909L14.1875 8.68262C14.3199 9.02673 14.4258 9.34438 14.5317 9.6885Z" fill="#1D2943" fill-opacity="0.12549"/>
<path d="M4.60356 13.3941C3.91533 12.8912 3.35944 12.2029 2.96238 11.4618C2.56533 10.6941 2.32709 9.84706 2.35356 9C2.5918 9.82059 2.88297 10.5882 3.28003 11.3029C3.65062 12.0176 4.10062 12.7059 4.60356 13.3941Z" fill="white"/>
<path d="M15.9075 2.09144C16.1193 2.30321 16.1193 2.62085 15.9075 2.80615L9.13102 9.55615C8.94573 9.74144 8.62808 9.74144 8.41631 9.55615C8.23102 9.37085 8.23102 9.05321 8.41631 8.84144L15.1928 2.09144C15.4046 1.87968 15.7222 1.87968 15.9075 2.09144Z" fill="#1D2943"/>
<path d="M15.8035 2.88575L16.9946 3.22987C17.2064 3.28281 17.2858 3.54752 17.127 3.70634L16.8093 4.02399C16.677 4.15634 16.4652 4.20928 16.2799 4.15634L15.8829 4.05046L15.9623 4.12987C16.1741 4.34164 16.1741 4.68575 15.9623 4.89752L15.3005 5.55928C15.1682 5.69164 14.9564 5.74458 14.7711 5.69164L13.3946 5.29458L15.8035 2.88575ZM15.1152 2.17105L14.7711 0.979872C14.7182 0.768108 14.4535 0.688696 14.2946 0.847519L13.3417 1.80046C13.2094 1.93281 13.1564 2.14458 13.2094 2.32987L13.3152 2.72693L13.0505 2.46223C12.9446 2.35634 12.7593 2.35634 12.6535 2.46223L12.4417 2.70046C12.3093 2.83281 12.2564 3.04458 12.3093 3.22987L12.7064 4.57987L15.1152 2.17105Z" fill="#FFD06C"/>
<path d="M13.2891 4.44725C13.5273 4.12961 13.8185 3.81196 14.1097 3.52078C14.2685 3.38843 14.7449 2.91196 14.5597 3.09725L15.0361 2.7002L14.6391 3.17667C14.5067 3.33549 14.3479 3.46784 14.2155 3.62667C13.9244 3.91784 13.6332 4.18255 13.2891 4.44725Z" fill="white"/>
</g>
<defs>
<clipPath id="clip0_9774_2929">
<rect width="18" height="18" fill="white"/>
</clipPath>
</defs>
</svg>
