<svg width="13" height="13" viewBox="0 0 13 13" fill="none" xmlns="http://www.w3.org/2000/svg">
<path d="M2.88 9.9048H2.935L4.4 9.7698C4.605 9.7498 4.795 9.65981 4.94 9.5148L10.47 3.9848C10.73 3.7248 10.875 3.3798 10.875 3.0148C10.875 2.6498 10.73 2.3048 10.47 2.0448L10.115 1.6898C9.595 1.1698 8.69 1.1698 8.17 1.6898L7.465 2.3948L2.645 7.2148C2.5 7.3598 2.41 7.5498 2.395 7.7548L2.26 9.2198C2.245 9.40481 2.31 9.5848 2.44 9.7198C2.56 9.8398 2.715 9.9048 2.88 9.9048ZM9.145 2.0348C9.305 2.0348 9.465 2.0948 9.585 2.2198L9.94 2.5748C9.99842 2.63223 10.0448 2.70071 10.0765 2.77625C10.1082 2.8518 10.1245 2.93289 10.1245 3.0148C10.1245 3.09672 10.1082 3.17781 10.0765 3.25336C10.0448 3.3289 9.99842 3.39738 9.94 3.4548L9.5 3.8948L8.265 2.6598L8.705 2.2198C8.825 2.0998 8.985 2.0348 9.145 2.0348ZM3.14 7.8248C3.14 7.7948 3.155 7.7698 3.175 7.7498L7.73 3.1898L8.965 4.4248L4.41 8.9798C4.41 8.9798 4.36 9.0148 4.335 9.0148L3.02 9.1348L3.14 7.8198V7.8248ZM11.875 11.4998C11.875 11.7048 11.705 11.8748 11.5 11.8748H1.5C1.295 11.8748 1.125 11.7048 1.125 11.4998C1.125 11.2948 1.295 11.1248 1.5 11.1248H11.5C11.705 11.1248 11.875 11.2948 11.875 11.4998Z" fill="#DBCC93"/>
</svg>
