<svg width="18" height="18" viewBox="0 0 18 18" fill="none" xmlns="http://www.w3.org/2000/svg">
<g clip-path="url(#clip0_9774_2917)">
<path d="M15.6008 0.299805H2.40078C1.24098 0.299805 0.300781 1.24001 0.300781 2.3998V15.5998C0.300781 16.7596 1.24098 17.6998 2.40078 17.6998H15.6008C16.7606 17.6998 17.7008 16.7596 17.7008 15.5998V2.3998C17.7008 1.24001 16.7606 0.299805 15.6008 0.299805Z" fill="#6BB577"/>
<path d="M7.31397 14.0994C7.18084 14.0993 7.04904 14.0729 6.92618 14.0216C6.80332 13.9703 6.69184 13.8952 6.59817 13.8006L3.89817 11.0805C3.70815 10.8885 3.60156 10.6294 3.60156 10.3593C3.60156 10.0892 3.70815 9.83001 3.89817 9.63807C3.9918 9.54341 4.10327 9.46826 4.22614 9.41697C4.34901 9.36568 4.48083 9.33928 4.61397 9.33928C4.74711 9.33928 4.87893 9.36568 5.0018 9.41697C5.12467 9.46826 5.23614 9.54341 5.32977 9.63807L7.20417 11.5263L12.5787 4.30707C12.658 4.20012 12.7577 4.10995 12.872 4.04175C12.9864 3.97354 13.1131 3.92866 13.2449 3.9097C13.3767 3.89073 13.5109 3.89805 13.6399 3.93124C13.7688 3.96443 13.8899 4.02283 13.9962 4.10307C14.2113 4.26633 14.3533 4.50794 14.3913 4.77535C14.4293 5.04276 14.3602 5.31435 14.199 5.53107L8.12397 13.6911C8.03018 13.8175 7.90811 13.9203 7.76752 13.9911C7.62692 14.062 7.47171 14.0989 7.31427 14.0991L7.31397 14.0994Z" fill="white"/>
</g>
<defs>
<clipPath id="clip0_9774_2917">
<rect width="18" height="18" fill="white"/>
</clipPath>
</defs>
</svg>
