<svg width="16" height="16" viewBox="0 0 16 16" fill="none" xmlns="http://www.w3.org/2000/svg">
<path d="M7.57349 7.70727C8.6323 7.70727 9.54905 7.32749 10.2983 6.57821C11.0474 5.82908 11.4272 4.91246 11.4272 3.85352C11.4272 2.7949 11.0475 1.87818 10.2982 1.12878C9.54892 0.379749 8.63217 0 7.57349 0C6.51452 0 5.59787 0.379749 4.84874 1.1289C4.09962 1.87806 3.71971 2.79481 3.71971 3.85352C3.71971 4.91246 4.09959 5.82921 4.84877 6.57836C5.59815 7.32739 6.51489 7.70727 7.57346 7.70727H7.57349ZM5.51183 1.79187C6.08665 1.21703 6.76099 0.937623 7.57349 0.937623C8.38586 0.937623 9.0603 1.21703 9.63523 1.79187C10.2101 2.36681 10.4896 3.04124 10.4896 3.85349C10.4896 4.66599 10.2101 5.34033 9.63523 5.91527C9.0603 6.49024 8.38586 6.76964 7.57349 6.76964C6.76121 6.76964 6.08693 6.49011 5.51183 5.91527C4.93687 5.34046 4.65734 4.66602 4.65734 3.85352C4.65734 3.04124 4.93687 2.36681 5.51183 1.79187ZM14.3165 12.3032C14.2949 11.9914 14.2512 11.6513 14.1868 11.2922C14.1219 10.9304 14.0383 10.5884 13.9382 10.2757C13.8347 9.95261 13.6942 9.63354 13.5202 9.32773C13.3399 9.01036 13.128 8.73398 12.8902 8.50658C12.6416 8.26867 12.3371 8.07739 11.9851 7.93783C11.6343 7.79908 11.2454 7.72877 10.8296 7.72877C10.6662 7.72877 10.5083 7.79577 10.2032 7.99439C9.98639 8.13559 9.76889 8.2758 9.55076 8.41501C9.34117 8.54858 9.05723 8.6737 8.70652 8.78698C8.36436 8.8977 8.01695 8.95386 7.67392 8.95386C7.33117 8.95386 6.98374 8.8977 6.64133 8.78698C6.29102 8.67379 6.00696 8.5487 5.79771 8.41514C5.5549 8.25998 5.33521 8.11839 5.14465 7.99423C4.83984 7.79564 4.68187 7.72861 4.51856 7.72861C4.10252 7.72861 3.71387 7.79905 3.36315 7.93798C3.01134 8.07726 2.70678 8.26855 2.45787 8.5067C2.22009 8.73423 2.00819 9.01045 1.828 9.32773C1.65431 9.63351 1.51369 9.95248 1.41016 10.2759C1.31016 10.5885 1.22656 10.9304 1.16162 11.2922C1.09716 11.6509 1.05359 11.9911 1.03197 12.3036C1.01072 12.6091 1 12.9271 1 13.2484C1 14.0836 1.2655 14.7597 1.78906 15.2584C2.30615 15.7505 2.99025 16 3.82237 16H11.5265C12.3584 16 13.0424 15.7505 13.5597 15.2584C14.0833 14.7601 14.3488 14.0837 14.3488 13.2483C14.3487 12.9259 14.3379 12.6079 14.3165 12.3032ZM12.9132 14.5791C12.5715 14.9043 12.1179 15.0623 11.5263 15.0623H3.8224C3.23075 15.0623 2.77712 14.9043 2.43556 14.5792C2.1005 14.2602 1.93765 13.8248 1.93765 13.2484C1.93765 12.9486 1.94753 12.6526 1.96734 12.3684C1.98659 12.0896 2.02603 11.7833 2.08453 11.4579C2.14225 11.1364 2.21572 10.8348 2.30312 10.5618C2.387 10.2999 2.50137 10.0406 2.64322 9.79089C2.77859 9.55282 2.93434 9.34861 3.10621 9.18407C3.267 9.03014 3.46965 8.90417 3.7084 8.8097C3.92921 8.72226 4.1774 8.67442 4.44681 8.6672C4.47962 8.6847 4.53812 8.71801 4.63284 8.77976C4.82559 8.90539 5.04774 9.0487 5.29337 9.20554C5.57024 9.38208 5.9269 9.54148 6.35305 9.67904C6.78871 9.81992 7.23305 9.89145 7.67408 9.89145C8.11514 9.89145 8.55958 9.81992 8.99502 9.67917C9.42151 9.54136 9.77808 9.38208 10.0553 9.20529C10.3067 9.04467 10.5226 8.90551 10.7153 8.77976C10.8101 8.71811 10.8685 8.68467 10.9014 8.66723C11.1709 8.67442 11.4191 8.72226 11.64 8.80967C11.8787 8.90417 12.0813 9.03026 12.2421 9.18404C12.4139 9.34848 12.5697 9.55273 12.7051 9.79101C12.847 10.0406 12.9616 10.3 13.0453 10.5616C13.1328 10.8351 13.2064 11.1366 13.264 11.4577C13.3224 11.7838 13.3619 12.0902 13.3812 12.3685V12.3688C13.4011 12.6518 13.4111 12.9477 13.4113 13.2484C13.4111 13.8249 13.2483 14.2603 12.9132 14.5791H12.9132Z" fill="#B8B8B8"/>
</svg>
