<svg width="30" height="30" viewBox="0 0 30 30" fill="none" xmlns="http://www.w3.org/2000/svg">
<path d="M14.365 3.48535H9.69125C5.8475 3.48535 3.4375 6.2066 3.4375 10.0591V20.4516C3.4375 24.3041 5.83625 27.0254 9.69125 27.0254H20.7212C24.5775 27.0254 26.9762 24.3041 26.9762 20.4516V15.4166" stroke="#8DB501" stroke-width="1.125" stroke-linecap="round" stroke-linejoin="round"/>
<path fill-rule="evenodd" clip-rule="evenodd" d="M11.0362 13.6506L20.3775 4.30937C21.5412 3.14688 23.4275 3.14688 24.5912 4.30937L26.1125 5.83062C27.2762 6.99437 27.2762 8.88187 26.1125 10.0444L16.7263 19.4306C16.2175 19.9394 15.5275 20.2256 14.8075 20.2256H10.125L10.2425 15.5006C10.26 14.8056 10.5437 14.1431 11.0362 13.6506Z" stroke="#8DB501" stroke-width="1.125" stroke-linecap="round" stroke-linejoin="round"/>
<path d="M18.957 5.75293L24.6645 11.4604" stroke="#8DB501" stroke-width="1.125" stroke-linecap="round" stroke-linejoin="round"/>
</svg>
