<svg width="12" height="12" viewBox="0 0 12 12" fill="none" xmlns="http://www.w3.org/2000/svg">
<g clip-path="url(#clip0_7131_6814)">
<path d="M2.38 9.4048H2.435L3.9 9.2698C4.105 9.2498 4.295 9.15981 4.44 9.0148L9.97 3.4848C10.23 3.2248 10.375 2.8798 10.375 2.5148C10.375 2.1498 10.23 1.8048 9.97 1.5448L9.615 1.1898C9.095 0.669805 8.19 0.669805 7.67 1.1898L6.965 1.8948L2.145 6.7148C2 6.8598 1.91 7.0498 1.895 7.2548L1.76 8.7198C1.745 8.90481 1.81 9.0848 1.94 9.2198C2.06 9.3398 2.215 9.4048 2.38 9.4048ZM8.645 1.5348C8.805 1.5348 8.965 1.5948 9.085 1.7198L9.44 2.0748C9.49842 2.13223 9.54481 2.20071 9.57648 2.27625C9.60815 2.3518 9.62446 2.43289 9.62446 2.5148C9.62446 2.59672 9.60815 2.67781 9.57648 2.75336C9.54481 2.8289 9.49842 2.89738 9.44 2.9548L9 3.3948L7.765 2.1598L8.205 1.7198C8.325 1.5998 8.485 1.5348 8.645 1.5348ZM2.64 7.3248C2.64 7.2948 2.655 7.2698 2.675 7.2498L7.23 2.6898L8.465 3.9248L3.91 8.4798C3.91 8.4798 3.86 8.5148 3.835 8.5148L2.52 8.6348L2.64 7.3198V7.3248ZM11.375 10.9998C11.375 11.2048 11.205 11.3748 11 11.3748H1C0.795 11.3748 0.625 11.2048 0.625 10.9998C0.625 10.7948 0.795 10.6248 1 10.6248H11C11.205 10.6248 11.375 10.7948 11.375 10.9998Z" fill="#B8B8B8"/>
</g>
<defs>
<clipPath id="clip0_7131_6814">
<rect width="12" height="12" fill="white"/>
</clipPath>
</defs>
</svg>
