<svg width="20" height="20" viewBox="0 0 20 20" fill="none" xmlns="http://www.w3.org/2000/svg">
<g clip-path="url(#clip0_9168_807)">
<path d="M8.17058 3.05345H10.5009L9.61831 3.93755C9.38976 4.16658 9.39007 4.53755 9.6191 4.76626C9.84769 4.99439 10.2188 4.99482 10.4476 4.76548L12.3272 2.88267C12.5585 2.65091 12.5566 2.2699 12.3138 2.04134L10.4477 0.171968C10.2191 -0.0570554 9.84812 -0.0573289 9.6191 0.171187C9.39007 0.399937 9.38976 0.770874 9.61831 0.999937L10.4985 1.88158C7.84328 1.88158 8.17441 1.88142 8.14539 1.88142C1.95109 1.88142 -1.98079 8.6229 1.12531 14.0416C1.28613 14.3222 1.64394 14.4196 1.92499 14.2586C2.20578 14.0976 2.30281 13.7396 2.14199 13.4589C-0.526763 8.80341 2.88082 3.02689 8.17058 3.05345ZM15.1815 5.95826C15.0207 5.67767 14.6626 5.58044 14.3818 5.7413C14.101 5.90224 14.004 6.26041 14.165 6.54115C16.8179 11.1692 13.4697 16.9466 8.15347 16.9466H5.80593L6.68851 16.0625C6.91722 15.8335 6.91691 15.4625 6.68789 15.2338C6.45886 15.0052 6.08777 15.0055 5.85917 15.2345L3.9796 17.1174C3.74507 17.3523 3.75269 17.7332 3.99378 17.9595L5.85917 19.8281C6.08777 20.0569 6.45871 20.0576 6.68789 19.8288C6.91691 19.6001 6.91722 19.2292 6.68867 19.0001L5.80851 18.1185H8.16082C14.3583 18.1183 18.287 11.3758 15.1815 5.95826Z" fill="#DBDBDB"/>
<path d="M7.56641 8.24219H9.91016C10.2337 8.24219 10.4961 7.97973 10.4961 7.65625C10.4961 7.33262 10.2337 7.07031 9.91016 7.07031H8.73828V6.48438C8.73828 6.16074 8.47586 5.89844 8.15234 5.89844C7.82871 5.89844 7.56641 6.16074 7.56641 6.48438V7.07031C6.59703 7.07031 5.80859 7.85891 5.80859 8.82812C5.80859 9.79734 6.59703 10.5859 7.56641 10.5859H8.73816C9.06133 10.5859 9.32422 10.8487 9.32422 11.1719C9.32422 11.495 9.06289 11.758 8.73816 11.758L6.39453 11.7578C6.0709 11.7578 5.80859 12.0201 5.80859 12.3436C5.80848 12.6672 6.07074 12.9295 6.39441 12.9297H7.56641V13.5156C7.56641 13.8391 7.82871 14.1016 8.15234 14.1016C8.47586 14.1016 8.73828 13.8391 8.73828 13.5156V12.9298C9.70969 12.9298 10.4961 12.1439 10.4961 11.1719C10.4961 10.2027 9.70742 9.41406 8.73816 9.41406H7.56641C7.24324 9.41406 6.98047 9.15117 6.98047 8.82812C6.98047 8.50496 7.24324 8.24219 7.56641 8.24219Z" fill="#DBDBDB"/>
</g>
<defs>
<clipPath id="clip0_9168_807">
<rect width="20" height="20" fill="white"/>
</clipPath>
</defs>
</svg>
