<svg width="20" height="20" viewBox="0 0 20 20" fill="none" xmlns="http://www.w3.org/2000/svg">
<path d="M10.0013 18.9587C8.22952 18.9587 6.49751 18.4333 5.02432 17.4489C3.55113 16.4646 2.40292 15.0655 1.72489 13.4285C1.04685 11.7916 0.869445 9.99039 1.2151 8.25265C1.56076 6.5149 2.41396 4.91868 3.66681 3.66583C4.91965 2.41299 6.51588 1.55979 8.25362 1.21413C9.99137 0.868469 11.7926 1.04587 13.4295 1.72391C15.0664 2.40194 16.4655 3.55016 17.4499 5.02335C18.4342 6.49654 18.9596 8.22854 18.9596 10.0003C18.9574 12.3756 18.0129 14.6529 16.3334 16.3324C14.6538 18.0119 12.3765 18.9565 10.0013 18.9587ZM10.0013 2.292C8.47674 2.292 6.98641 2.74408 5.71879 3.59108C4.45116 4.43809 3.46316 5.64196 2.87973 7.05048C2.29631 8.45899 2.14366 10.0089 2.44109 11.5042C2.73851 12.9994 3.47266 14.3729 4.55069 15.4509C5.62872 16.529 7.00221 17.2631 8.49749 17.5606C9.99276 17.858 11.5426 17.7053 12.9512 17.1219C14.3597 16.5385 15.5635 15.5505 16.4106 14.2829C17.2576 13.0152 17.7096 11.5249 17.7096 10.0003C17.7074 7.95663 16.8946 5.99727 15.4495 4.55215C14.0044 3.10704 12.045 2.2942 10.0013 2.292Z" fill="#DBDBDB"/>
<path d="M10.8346 14.792H9.16797C9.00221 14.792 8.84324 14.7261 8.72603 14.6089C8.60882 14.4917 8.54297 14.3328 8.54297 14.167C8.54297 14.0012 8.60882 13.8423 8.72603 13.725C8.84324 13.6078 9.00221 13.542 9.16797 13.542H10.8346C11.0004 13.542 11.1594 13.6078 11.2766 13.725C11.3938 13.8423 11.4596 14.0012 11.4596 14.167C11.4596 14.3328 11.3938 14.4917 11.2766 14.6089C11.1594 14.7261 11.0004 14.792 10.8346 14.792Z" fill="#DBDBDB"/>
<path d="M10.0019 14.7924C9.83677 14.7902 9.67905 14.7237 9.5623 14.6069C9.44556 14.4902 9.37902 14.3324 9.37686 14.1674V8.92569C9.23609 8.87781 9.11701 8.78131 9.04099 8.65353C8.96497 8.52575 8.937 8.37505 8.96209 8.2285C8.98719 8.08195 9.06371 7.94914 9.17791 7.85393C9.29211 7.75872 9.43652 7.70734 9.58519 7.70902H10.0019C10.1669 7.71118 10.3247 7.77772 10.4414 7.89447C10.5582 8.01122 10.6247 8.16894 10.6269 8.33402V14.1674C10.6247 14.3324 10.5582 14.4902 10.4414 14.6069C10.3247 14.7237 10.1669 14.7902 10.0019 14.7924Z" fill="#DBDBDB"/>
<path d="M10.0013 6.66667C10.4615 6.66667 10.8346 6.29357 10.8346 5.83333C10.8346 5.3731 10.4615 5 10.0013 5C9.54106 5 9.16797 5.3731 9.16797 5.83333C9.16797 6.29357 9.54106 6.66667 10.0013 6.66667Z" fill="#DBDBDB"/>
</svg>
