<svg width="16" height="16" viewBox="0 0 16 16" fill="none" xmlns="http://www.w3.org/2000/svg">
<path d="M7.99862 0.470703C5.64568 0.470703 3.76333 2.35306 3.76333 4.706V6.58835C2.96333 6.58835 2.35156 7.20011 2.35156 8.00011V14.1178C2.35156 14.9178 2.96333 15.5295 3.76333 15.5295H12.2339C13.0339 15.5295 13.6457 14.9178 13.6457 14.1178V8.00011C13.6457 7.20011 13.0339 6.58835 12.2339 6.58835V4.706C12.2339 2.35306 10.3516 0.470703 7.99862 0.470703ZM12.7045 8.00011V14.1178C12.7045 14.4001 12.5163 14.5884 12.2339 14.5884H3.76333C3.48097 14.5884 3.29274 14.4001 3.29274 14.1178V8.00011C3.29274 7.71776 3.48097 7.52953 3.76333 7.52953H12.2339C12.5163 7.52953 12.7045 7.71776 12.7045 8.00011ZM4.7045 6.58835V4.706C4.7045 2.8707 6.16333 1.41188 7.99862 1.41188C9.83392 1.41188 11.2927 2.8707 11.2927 4.706V6.58835H4.7045Z" fill="#DBDBDB"/>
<path d="M7.9977 8.94141C7.1977 8.94141 6.58594 9.55317 6.58594 10.3532C6.58594 10.9649 6.96241 11.4826 7.52711 11.6708V12.7061C7.52711 12.9885 7.71535 13.1767 7.9977 13.1767C8.28006 13.1767 8.46829 12.9885 8.46829 12.7061V11.6708C9.033 11.4826 9.40947 10.9649 9.40947 10.3532C9.40947 9.55317 8.7977 8.94141 7.9977 8.94141ZM7.9977 10.8238C7.71535 10.8238 7.52711 10.6355 7.52711 10.3532C7.52711 10.0708 7.71535 9.88258 7.9977 9.88258C8.28006 9.88258 8.46829 10.0708 8.46829 10.3532C8.46829 10.6355 8.28006 10.8238 7.9977 10.8238Z" fill="#DBDBDB"/>
</svg>
