<svg width="20" height="20" viewBox="0 0 20 20" fill="none" xmlns="http://www.w3.org/2000/svg">
<path d="M13.1981 18.5413H6.79808C6.15776 18.5321 5.54454 18.2815 5.08103 17.8396C4.61753 17.3977 4.33791 16.7972 4.29808 16.158L3.53975 4.62468C3.53586 4.54106 3.54859 4.45749 3.57719 4.37882C3.6058 4.30015 3.64972 4.22793 3.70641 4.16634C3.76482 4.10251 3.83553 4.05115 3.91429 4.01535C3.99306 3.97954 4.07825 3.96004 4.16475 3.95801H15.8314C15.9171 3.95782 16.0019 3.97526 16.0806 4.00924C16.1593 4.04322 16.2301 4.09302 16.2888 4.15554C16.3474 4.21807 16.3925 4.29198 16.4214 4.37268C16.4502 4.45339 16.4621 4.53916 16.4564 4.62468L15.7314 16.158C15.6912 16.8029 15.4069 17.4082 14.9363 17.8509C14.4657 18.2936 13.8442 18.5405 13.1981 18.5413ZM4.86475 5.20801L5.50641 16.083C5.52761 16.4109 5.673 16.7185 5.91298 16.9429C6.15295 17.1674 6.46947 17.292 6.79808 17.2913H13.1981C13.5261 17.2901 13.8415 17.1648 14.0811 16.9407C14.3206 16.7166 14.4666 16.4102 14.4897 16.083L15.1647 5.24968L4.86475 5.20801Z" fill="#DBDBDB"/>
<path d="M17.5 5.20801H2.5C2.33424 5.20801 2.17527 5.14216 2.05806 5.02495C1.94085 4.90774 1.875 4.74877 1.875 4.58301C1.875 4.41725 1.94085 4.25828 2.05806 4.14107C2.17527 4.02386 2.33424 3.95801 2.5 3.95801H17.5C17.6658 3.95801 17.8247 4.02386 17.9419 4.14107C18.0592 4.25828 18.125 4.41725 18.125 4.58301C18.125 4.74877 18.0592 4.90774 17.9419 5.02495C17.8247 5.14216 17.6658 5.20801 17.5 5.20801Z" fill="#DBDBDB"/>
<path d="M12.5 5.20801H7.5C7.33491 5.20585 7.17719 5.13931 7.06045 5.02256C6.9437 4.90582 6.87716 4.7481 6.875 4.58301V3.08301C6.88556 2.65536 7.06016 2.24814 7.36265 1.94565C7.66513 1.64317 8.07235 1.46857 8.5 1.45801H11.5C11.9348 1.46888 12.3481 1.64926 12.6517 1.96065C12.9553 2.27204 13.1251 2.68977 13.125 3.12467V4.58301C13.1228 4.7481 13.0563 4.90582 12.9396 5.02256C12.8228 5.13931 12.6651 5.20585 12.5 5.20801ZM8.125 3.95801H11.875V3.12467C11.875 3.02522 11.8355 2.92984 11.7652 2.85951C11.6948 2.78918 11.5995 2.74967 11.5 2.74967H8.5C8.40054 2.74967 8.30516 2.78918 8.23483 2.85951C8.16451 2.92984 8.125 3.02522 8.125 3.12467V3.95801ZM12.5 15.208C12.3349 15.2058 12.1772 15.1393 12.0604 15.0226C11.9437 14.9058 11.8772 14.7481 11.875 14.583V7.91634C11.875 7.75058 11.9408 7.59161 12.0581 7.4744C12.1753 7.35719 12.3342 7.29134 12.5 7.29134C12.6658 7.29134 12.8247 7.35719 12.9419 7.4744C13.0592 7.59161 13.125 7.75058 13.125 7.91634V14.583C13.1228 14.7481 13.0563 14.9058 12.9396 15.0226C12.8228 15.1393 12.6651 15.2058 12.5 15.208ZM7.5 15.208C7.33491 15.2058 7.17719 15.1393 7.06045 15.0226C6.9437 14.9058 6.87716 14.7481 6.875 14.583V7.91634C6.875 7.75058 6.94085 7.59161 7.05806 7.4744C7.17527 7.35719 7.33424 7.29134 7.5 7.29134C7.66576 7.29134 7.82473 7.35719 7.94194 7.4744C8.05915 7.59161 8.125 7.75058 8.125 7.91634V14.583C8.12284 14.7481 8.0563 14.9058 7.93955 15.0226C7.82281 15.1393 7.66509 15.2058 7.5 15.208ZM10 15.208C9.83491 15.2058 9.67719 15.1393 9.56045 15.0226C9.4437 14.9058 9.37716 14.7481 9.375 14.583V7.91634C9.375 7.75058 9.44085 7.59161 9.55806 7.4744C9.67527 7.35719 9.83424 7.29134 10 7.29134C10.1658 7.29134 10.3247 7.35719 10.4419 7.4744C10.5592 7.59161 10.625 7.75058 10.625 7.91634V14.583C10.6228 14.7481 10.5563 14.9058 10.4396 15.0226C10.3228 15.1393 10.1651 15.2058 10 15.208Z" fill="#DBDBDB"/>
</svg>
