<svg width="20" height="20" viewBox="0 0 20 20" fill="none" xmlns="http://www.w3.org/2000/svg">
<g clip-path="url(#clip0_7176_2559)">
<path d="M15 20.0005C14.9167 20.0005 14.8333 19.9838 14.755 19.9505C14.5617 19.868 10 17.8813 10 13.7955V10.4471C10 10.3166 10.041 10.1893 10.117 10.0832C10.1931 9.97705 10.3005 9.89742 10.4242 9.85546L14.7992 8.36713C14.9294 8.32294 15.0706 8.32294 15.2008 8.36713L19.5758 9.85546C19.6995 9.89742 19.8069 9.97705 19.883 10.0832C19.959 10.1893 20 10.3166 20 10.4471V13.7955C20 17.8813 15.4383 19.868 15.245 19.9513C15.1674 19.9836 15.0841 20.0003 15 20.0005ZM11.25 10.8946V13.7946C11.25 16.5721 14.13 18.2421 15 18.6821C15.87 18.2421 18.75 16.5721 18.75 13.7946V10.8946L15 9.6188L11.25 10.8946Z" fill="#DBDBDB"/>
<path d="M14.7917 16.25C14.7096 16.2502 14.6283 16.2341 14.5524 16.2026C14.4766 16.1712 14.4078 16.1249 14.35 16.0667L12.6833 14.4C12.6253 14.3419 12.5792 14.273 12.5478 14.1972C12.5164 14.1213 12.5002 14.04 12.5002 13.9579C12.5002 13.8758 12.5164 13.7945 12.5478 13.7187C12.5792 13.6428 12.6253 13.5739 12.6833 13.5158C12.7414 13.4578 12.8103 13.4117 12.8862 13.3803C12.962 13.3489 13.0433 13.3327 13.1254 13.3327C13.2075 13.3327 13.2888 13.3489 13.3647 13.3803C13.4405 13.4117 13.5094 13.4578 13.5675 13.5158L14.725 14.6733L16.7917 11.9167C16.8404 11.8496 16.902 11.7928 16.9729 11.7498C17.0438 11.7067 17.1225 11.6782 17.2045 11.6659C17.2865 11.6536 17.3702 11.6577 17.4506 11.678C17.531 11.6983 17.6065 11.7345 17.6728 11.7843C17.7391 11.8341 17.7949 11.8966 17.8368 11.9682C17.8787 12.0398 17.9059 12.119 17.9169 12.2012C17.9278 12.2834 17.9224 12.3669 17.9007 12.447C17.8791 12.5271 17.8417 12.602 17.7908 12.6675L15.2908 16.0008C15.2371 16.0725 15.1686 16.1317 15.0899 16.1746C15.0113 16.2174 14.9243 16.2428 14.835 16.2492L14.7917 16.25ZM8.825 17.5H2.29167C1.68401 17.4996 1.10138 17.258 0.671701 16.8283C0.242026 16.3986 0.000441448 15.816 0 15.2083L0 2.29167C0.000441448 1.68401 0.242026 1.10138 0.671701 0.671701C1.10138 0.242026 1.68401 0.000441448 2.29167 0L11.875 0C12.4827 0.000441448 13.0653 0.242026 13.495 0.671701C13.9246 1.10138 14.1662 1.68401 14.1667 2.29167V6.81667C14.1667 6.98243 14.1008 7.1414 13.9836 7.25861C13.8664 7.37582 13.7074 7.44167 13.5417 7.44167C13.3759 7.44167 13.2169 7.37582 13.0997 7.25861C12.9825 7.1414 12.9167 6.98243 12.9167 6.81667V2.29167C12.9167 1.7175 12.4492 1.25 11.875 1.25H2.29167C1.7175 1.25 1.25 1.7175 1.25 2.29167V15.2083C1.25 15.7825 1.7175 16.25 2.29167 16.25H8.825C8.99076 16.25 9.14973 16.3158 9.26694 16.4331C9.38415 16.5503 9.45 16.7092 9.45 16.875C9.45 17.0408 9.38415 17.1997 9.26694 17.3169C9.14973 17.4342 8.99076 17.5 8.825 17.5Z" fill="#DBDBDB"/>
<path d="M11.0417 7.91634H3.125C2.95924 7.91634 2.80027 7.85049 2.68306 7.73328C2.56585 7.61607 2.5 7.4571 2.5 7.29134C2.5 7.12558 2.56585 6.96661 2.68306 6.8494C2.80027 6.73219 2.95924 6.66634 3.125 6.66634H11.0417C11.2074 6.66634 11.3664 6.73219 11.4836 6.8494C11.6008 6.96661 11.6667 7.12558 11.6667 7.29134C11.6667 7.4571 11.6008 7.61607 11.4836 7.73328C11.3664 7.85049 11.2074 7.91634 11.0417 7.91634ZM7.70833 11.2497H3.125C2.95924 11.2497 2.80027 11.1838 2.68306 11.0666C2.56585 10.9494 2.5 10.7904 2.5 10.6247C2.5 10.4589 2.56585 10.2999 2.68306 10.1827C2.80027 10.0655 2.95924 9.99967 3.125 9.99967H7.70833C7.87409 9.99967 8.03306 10.0655 8.15028 10.1827C8.26749 10.2999 8.33333 10.4589 8.33333 10.6247C8.33333 10.7904 8.26749 10.9494 8.15028 11.0666C8.03306 11.1838 7.87409 11.2497 7.70833 11.2497ZM6.875 4.58301H3.125C2.95924 4.58301 2.80027 4.51716 2.68306 4.39995C2.56585 4.28274 2.5 4.12377 2.5 3.95801C2.5 3.79225 2.56585 3.63328 2.68306 3.51607C2.80027 3.39886 2.95924 3.33301 3.125 3.33301H6.875C7.04076 3.33301 7.19973 3.39886 7.31694 3.51607C7.43415 3.63328 7.5 3.79225 7.5 3.95801C7.5 4.12377 7.43415 4.28274 7.31694 4.39995C7.19973 4.51716 7.04076 4.58301 6.875 4.58301Z" fill="#DBDBDB"/>
</g>
<defs>
<clipPath id="clip0_7176_2559">
<rect width="20" height="20" fill="white"/>
</clipPath>
</defs>
</svg>
