<svg width="20" height="20" viewBox="0 0 20 20" fill="none" xmlns="http://www.w3.org/2000/svg">
<path fill-rule="evenodd" clip-rule="evenodd" d="M1.8137 16.0201C4.77659 16.0214 7.73837 16.0214 10.7026 16.0201C10.7675 16.5665 11.0397 17.0671 11.463 17.4185H3.35992C2.54036 17.4185 1.94903 16.7979 1.8137 16.0201ZM16.6448 2.58829C17.4644 2.58829 18.0568 3.20874 18.1921 3.98652H15.015C15.0731 3.5964 15.2698 3.24028 15.5692 2.98347C15.8685 2.72665 16.2504 2.58635 16.6448 2.58829ZM5.64725 2.58829H15.2617C14.7964 2.97852 14.4921 3.56163 14.4921 4.21341L14.4908 15.7678C14.4919 15.9842 14.4503 16.1987 14.3682 16.3989C14.2862 16.5992 14.1654 16.7812 14.0127 16.9346C13.8601 17.088 13.6787 17.2097 13.4788 17.2928C13.279 17.3758 13.0648 17.4185 12.8484 17.4185H12.8401C12.4051 17.4204 11.9871 17.2496 11.6779 16.9437C11.3687 16.6377 11.1935 16.2215 11.1908 15.7865C11.2004 15.6532 11.117 15.5132 10.9373 15.517H3.9977V4.23918C3.99637 4.02213 4.03812 3.80697 4.12054 3.60616C4.20295 3.40535 4.32438 3.22289 4.4778 3.06935C4.63123 2.9158 4.81359 2.79422 5.01433 2.71164C5.21507 2.62907 5.4302 2.58714 5.64725 2.58829ZM5.64725 2.08496C4.45836 2.08496 3.49325 3.05029 3.49325 4.23896V15.5167H1.45703C1.28348 15.5167 1.20703 15.6496 1.20703 15.7676C1.20703 16.9565 2.17125 17.9216 3.35992 17.9216H12.8404C14.1646 17.9216 14.9633 16.7874 14.9944 15.7676V4.48985H18.5477C18.6866 4.48985 18.7999 4.37763 18.7999 4.23896C18.7999 3.05007 17.8346 2.08496 16.645 2.08496H5.64725Z" fill="#DBDBDB"/>
<path d="M16.7189 7.50064H17.4424L17.4538 16.5971L17.0987 17.0738L16.7307 16.5864L16.7189 7.50064ZM16.4424 6.99753C16.3803 7.00355 16.3227 7.0325 16.2807 7.07871C16.2388 7.12493 16.2155 7.18512 16.2156 7.24753L16.2273 16.6715C16.2273 16.7253 16.2447 16.7786 16.2782 16.8226L16.8962 17.6446C16.9197 17.6761 16.9503 17.7016 16.9854 17.7191C17.0205 17.7367 17.0593 17.7457 17.0986 17.7456C17.1378 17.7455 17.1765 17.7362 17.2115 17.7184C17.2465 17.7006 17.2769 17.6749 17.3002 17.6433L17.9087 16.83C17.9411 16.7858 17.9587 16.734 17.9573 16.6793L17.946 7.24753C17.946 7.10864 17.8322 6.9962 17.6933 6.99753H16.4667C16.4586 6.9962 16.4505 6.9962 16.4424 6.99753ZM16.514 6.08531C16.1784 6.08531 16.2038 6.58864 16.5404 6.58864H17.6333C17.9813 6.58864 17.9813 6.08531 17.6333 6.08531H16.514ZM6.34489 5.73242C5.78466 5.73242 5.32422 6.18976 5.32422 6.74976V8.27198C5.32422 8.83109 5.78466 9.28687 6.34489 9.28687H7.83133C8.39133 9.28687 8.85311 8.83087 8.85311 8.27198V7.85976C8.85311 7.52331 8.34866 7.52331 8.34866 7.85976V8.27198C8.34866 8.55909 8.12244 8.78376 7.83133 8.78376H6.34489C6.05333 8.78376 5.82889 8.55909 5.82889 8.27198V6.74976C5.82889 6.46176 6.05355 6.23709 6.34489 6.23709H7.73644C8.07333 6.23709 8.07333 5.73242 7.73644 5.73242H6.34489Z" fill="#DBDBDB"/>
<path d="M9.00466 5.94064C8.93894 5.94197 8.87635 5.96893 8.83022 6.01576L7.22133 7.61887L6.71777 7.11864C6.69441 7.09524 6.66667 7.07667 6.63613 7.06398C6.60559 7.0513 6.57286 7.04476 6.53979 7.04472C6.50672 7.04469 6.47397 7.05118 6.44341 7.0638C6.41284 7.07643 6.38507 7.09495 6.36166 7.11831C6.33826 7.14167 6.31968 7.16941 6.307 7.19995C6.29432 7.23049 6.28777 7.26323 6.28774 7.2963C6.28771 7.32937 6.29419 7.36212 6.30682 7.39268C6.31945 7.42324 6.33797 7.45102 6.36133 7.47442L7.044 8.15376C7.09114 8.20041 7.15478 8.22658 7.22111 8.22658C7.28743 8.22658 7.35108 8.20041 7.39822 8.15376L9.18644 6.37242C9.34889 6.21153 9.23155 5.93598 9.00466 5.94064ZM9.87866 8.78353C9.84452 8.78178 9.81038 8.78698 9.77832 8.79884C9.74626 8.81069 9.71694 8.82894 9.69216 8.85249C9.66737 8.87603 9.64763 8.90437 9.63415 8.93578C9.62066 8.96719 9.61371 9.00102 9.61371 9.0352C9.61371 9.06938 9.62066 9.10321 9.63415 9.13462C9.64763 9.16603 9.66737 9.19437 9.69216 9.21791C9.71694 9.24146 9.74626 9.25971 9.77832 9.27156C9.81038 9.28342 9.84452 9.28862 9.87866 9.28687H12.9051C12.9392 9.28862 12.9734 9.28342 13.0054 9.27156C13.0375 9.25971 13.0668 9.24146 13.0916 9.21791C13.1164 9.19437 13.1361 9.16603 13.1496 9.13462C13.1631 9.10321 13.1701 9.06938 13.1701 9.0352C13.1701 9.00102 13.1631 8.96719 13.1496 8.93578C13.1361 8.90437 13.1164 8.87603 13.0916 8.85249C13.0668 8.82894 13.0375 8.81069 13.0054 8.79884C12.9734 8.78698 12.9392 8.78178 12.9051 8.78353H9.87866ZM10.7662 5.73242C10.6992 5.73236 10.6349 5.75887 10.5873 5.80615C10.5398 5.85343 10.513 5.91761 10.5127 5.98464C10.5127 6.12487 10.6264 6.23709 10.7662 6.23709H12.9051C13.242 6.23709 13.242 5.73242 12.9051 5.73242H10.7662ZM9.87866 7.76598C9.84471 7.76455 9.81082 7.77001 9.77903 7.78202C9.74724 7.79403 9.7182 7.81234 9.69367 7.83586C9.66914 7.85938 9.64962 7.88762 9.63629 7.91888C9.62296 7.95014 9.61608 7.98377 9.61608 8.01776C9.61608 8.05174 9.62296 8.08537 9.63629 8.11663C9.64962 8.14789 9.66914 8.17613 9.69367 8.19965C9.7182 8.22317 9.74724 8.24148 9.77903 8.25349C9.81082 8.2655 9.84471 8.27096 9.87866 8.26953H12.9051C12.9391 8.27096 12.973 8.2655 13.0047 8.25349C13.0365 8.24148 13.0656 8.22317 13.0901 8.19965C13.1146 8.17613 13.1341 8.14789 13.1475 8.11663C13.1608 8.08537 13.1677 8.05174 13.1677 8.01776C13.1677 7.98377 13.1608 7.95014 13.1475 7.91888C13.1341 7.88762 13.1146 7.85938 13.0901 7.83586C13.0656 7.81234 13.0365 7.79403 13.0047 7.78202C12.973 7.77001 12.9391 7.76455 12.9051 7.76598H9.87866ZM9.87866 6.74976C9.84471 6.74833 9.81082 6.75378 9.77903 6.76579C9.74724 6.7778 9.7182 6.79612 9.69367 6.81964C9.66914 6.84316 9.64962 6.8714 9.63629 6.90266C9.62296 6.93392 9.61608 6.96755 9.61608 7.00153C9.61608 7.03552 9.62296 7.06915 9.63629 7.10041C9.64962 7.13167 9.66914 7.15991 9.69367 7.18343C9.7182 7.20695 9.74724 7.22526 9.77903 7.23727C9.81082 7.24928 9.84471 7.25474 9.87866 7.25331H12.9051C12.9391 7.25474 12.973 7.24928 13.0047 7.23727C13.0365 7.22526 13.0656 7.20695 13.0901 7.18343C13.1146 7.15991 13.1341 7.13167 13.1475 7.10041C13.1608 7.06915 13.1677 7.03552 13.1677 7.00153C13.1677 6.96755 13.1608 6.93392 13.1475 6.90266C13.1341 6.8714 13.1146 6.84316 13.0901 6.81964C13.0656 6.79612 13.0365 6.7778 13.0047 6.76579C12.973 6.75378 12.9391 6.74833 12.9051 6.74976H9.87866ZM9.87866 13.464C9.542 13.464 9.542 13.9686 9.87866 13.9686H12.9051C13.242 13.9686 13.242 13.464 12.9051 13.464H9.87866ZM10.7662 10.412C10.4293 10.412 10.4293 10.9175 10.7662 10.9175H12.9051C13.242 10.9175 13.242 10.412 12.9051 10.412H10.7662ZM9.87866 12.4466C9.73844 12.4466 9.626 12.5604 9.626 12.6989C9.626 12.8391 9.73844 12.9524 9.87866 12.9524H12.9051C13.242 12.9524 13.242 12.4469 12.9051 12.4469H9.87866V12.4466ZM9.87866 11.4293C9.73844 11.4293 9.626 11.5426 9.626 11.6829C9.626 11.8218 9.73844 11.9351 9.87866 11.9351H12.9051C13.242 11.9351 13.242 11.4295 12.9051 11.4295L9.87866 11.4293ZM6.34489 10.414C5.78466 10.414 5.32422 10.8711 5.32422 11.4313V12.9535C5.32422 13.5126 5.78466 13.9686 6.34489 13.9686H7.83133C8.39133 13.9686 8.85311 13.5124 8.85311 12.9535V12.5415C8.85311 12.2042 8.34866 12.2042 8.34866 12.5415V12.9535C8.34866 13.2404 8.12244 13.4649 7.83133 13.4649H6.34489C6.05333 13.4649 5.82889 13.2404 5.82889 12.9535V11.4313C5.82889 11.1431 6.05355 10.9186 6.34489 10.9186H7.73644C8.07333 10.9186 8.07333 10.414 7.73644 10.414H6.34489Z" fill="#DBDBDB"/>
<path d="M9.0053 10.6221C8.93965 10.6234 8.87708 10.6502 8.83085 10.6968L7.22197 12.3001L6.71841 11.8001C6.69546 11.7752 6.6677 11.7551 6.6368 11.7411C6.60589 11.7271 6.57248 11.7195 6.53857 11.7188C6.50466 11.718 6.47095 11.7242 6.43946 11.7368C6.40797 11.7494 6.37936 11.7682 6.35533 11.7921C6.3313 11.8161 6.31236 11.8446 6.29963 11.8761C6.28691 11.9075 6.28067 11.9412 6.28129 11.9751C6.28191 12.009 6.28938 12.0425 6.30324 12.0734C6.3171 12.1044 6.33708 12.1322 6.36197 12.1552L7.04463 12.835C7.09172 12.8818 7.15538 12.908 7.22174 12.908C7.2881 12.908 7.35177 12.8818 7.39885 12.835L9.18708 11.0537C9.34952 10.8928 9.23219 10.6172 9.0053 10.6221Z" fill="#DBDBDB"/>
</svg>
